<?xml version="1.0" encoding="UTF-8" standalone="no"?>
<!DOCTYPE svg PUBLIC "-//W3C//DTD SVG 1.1//EN"
 "http://www.w3.org/Graphics/SVG/1.1/DTD/svg11.dtd">
<!-- Generated by graphviz version 15.0.0 (20260523.1842)
 -->
<!-- Title: source/src/DayNightCycle.hpp Pages: 1 -->
<svg width="269pt" height="83pt"
 viewBox="0.00 0.00 269.00 83.00" xmlns="http://www.w3.org/2000/svg" xmlns:xlink="http://www.w3.org/1999/xlink">
<g id="graph0" class="graph" transform="scale(1 1) rotate(0) translate(4 78.5)">
<title>source/src/DayNightCycle.hpp</title>
<!-- Node1 -->
<g id="Node000001" class="node">
<title>Node1</title>
<g id="a_Node000001"><a xlink:title="Automatic day/night cycle driving the sun/moon light, sky tint and shadow direction.">
<polygon fill="#999999" stroke="#666666" points="170.62,-74.5 20.38,-74.5 20.38,-55.25 170.62,-55.25 170.62,-74.5"/>
<text xml:space="preserve" text-anchor="middle" x="95.5" y="-61" font-family="Helvetica,sans-Serif" font-size="10.00">source/src/DayNightCycle.hpp</text>
</a>
</g>
</g>
<!-- Node2 -->
<g id="Node000002" class="node">
<title>Node2</title>
<g id="a_Node000002"><a xlink:title=" ">
<polygon fill="#e0e0e0" stroke="#999999" points="43,-19.25 0,-19.25 0,0 43,0 43,-19.25"/>
<text xml:space="preserve" text-anchor="middle" x="21.5" y="-5.75" font-family="Helvetica,sans-Serif" font-size="10.00">cmath</text>
</a>
</g>
</g>
<!-- Node1&#45;&gt;Node2 -->
<g id="edge1_Node000001_Node000002" class="edge">
<title>Node1&#45;&gt;Node2</title>
<g id="a_edge1_Node000001_Node000002"><a xlink:title=" ">
<path fill="none" stroke="#63b8ff" d="M82.95,-54.84C72.04,-46.99 56,-35.45 43.04,-26.12"/>
<polygon fill="#63b8ff" stroke="#63b8ff" points="45.26,-23.41 35.1,-20.41 41.17,-29.09 45.26,-23.41"/>
</a>
</g>
</g>
<!-- Node3 -->
<g id="Node000003" class="node">
<title>Node3</title>
<g id="a_Node000003"><a xlink:title=" ">
<polygon fill="#e0e0e0" stroke="#999999" points="130.12,-19.25 60.88,-19.25 60.88,0 130.12,0 130.12,-19.25"/>
<text xml:space="preserve" text-anchor="middle" x="95.5" y="-5.75" font-family="Helvetica,sans-Serif" font-size="10.00">glm/glm.hpp</text>
</a>
</g>
</g>
<!-- Node1&#45;&gt;Node3 -->
<g id="edge2_Node000001_Node000003" class="edge">
<title>Node1&#45;&gt;Node3</title>
<g id="a_edge2_Node000001_Node000003"><a xlink:title=" ">
<path fill="none" stroke="#63b8ff" d="M95.5,-55.08C95.5,-48.57 95.5,-39.42 95.5,-31.12"/>
<polygon fill="#63b8ff" stroke="#63b8ff" points="99,-31.12 95.5,-21.12 92,-31.12 99,-31.12"/>
</a>
</g>
</g>
<!-- Node4 -->
<g id="Node000004" class="node">
<title>Node4</title>
<g id="a_Node000004"><a xlink:title=" ">
<polygon fill="#e0e0e0" stroke="#999999" points="260.88,-19.25 148.12,-19.25 148.12,0 260.88,0 260.88,-19.25"/>
<text xml:space="preserve" text-anchor="middle" x="204.5" y="-5.75" font-family="Helvetica,sans-Serif" font-size="10.00">glm/gtc/constants.hpp</text>
</a>
</g>
</g>
<!-- Node1&#45;&gt;Node4 -->
<g id="edge3_Node000001_Node000004" class="edge">
<title>Node1&#45;&gt;Node4</title>
<g id="a_edge3_Node000001_Node000004"><a xlink:title=" ">
<path fill="none" stroke="#63b8ff" d="M113.99,-54.84C130.9,-46.58 156.19,-34.23 175.74,-24.68"/>
<polygon fill="#63b8ff" stroke="#63b8ff" points="177.11,-27.9 184.56,-20.37 174.04,-21.61 177.11,-27.9"/>
</a>
</g>
</g>
</g>
</svg>
