<?xml version="1.0" encoding="UTF-8" standalone="no"?>
<!DOCTYPE svg PUBLIC "-//W3C//DTD SVG 1.1//EN"
 "http://www.w3.org/Graphics/SVG/1.1/DTD/svg11.dtd">
<!-- Generated by graphviz version 15.0.0 (20260523.1842)
 -->
<!-- Title: source/src/DialogueSystem.hpp Pages: 1 -->
<svg width="578pt" height="138pt"
 viewBox="0.00 0.00 578.00 138.00" xmlns="http://www.w3.org/2000/svg" xmlns:xlink="http://www.w3.org/1999/xlink">
<g id="graph0" class="graph" transform="scale(1 1) rotate(0) translate(4 133.75)">
<title>source/src/DialogueSystem.hpp</title>
<!-- Node1 -->
<g id="Node000001" class="node">
<title>Node1</title>
<g id="a_Node000001"><a xlink:title="Branching NPC dialogue loaded from assets/dialogue/dialogues.json.">
<polygon fill="#999999" stroke="#666666" points="392.73,-129.75 237.23,-129.75 237.23,-110.5 392.73,-110.5 392.73,-129.75"/>
<text xml:space="preserve" text-anchor="middle" x="314.98" y="-116.25" font-family="Helvetica,sans-Serif" font-size="10.00">source/src/DialogueSystem.hpp</text>
</a>
</g>
</g>
<!-- Node2 -->
<g id="Node000002" class="node">
<title>Node2</title>
<g id="a_Node000002"><a xlink:title=" ">
<polygon fill="#e0e0e0" stroke="#999999" points="39.85,-19.25 2.1,-19.25 2.1,0 39.85,0 39.85,-19.25"/>
<text xml:space="preserve" text-anchor="middle" x="20.98" y="-5.75" font-family="Helvetica,sans-Serif" font-size="10.00">array</text>
</a>
</g>
</g>
<!-- Node1&#45;&gt;Node2 -->
<g id="edge1_Node000001_Node000002" class="edge">
<title>Node1&#45;&gt;Node2</title>
<g id="a_edge1_Node000001_Node000002"><a xlink:title=" ">
<path fill="none" stroke="#63b8ff" d="M237.07,-119.04C155.52,-117.1 35.29,-108.36 5.98,-74.5 -4.84,-62.01 1.42,-43.17 8.87,-29.19"/>
<polygon fill="#63b8ff" stroke="#63b8ff" points="11.68,-31.31 13.77,-20.92 5.66,-27.74 11.68,-31.31"/>
</a>
</g>
</g>
<!-- Node3 -->
<g id="Node000003" class="node">
<title>Node3</title>
<g id="a_Node000003"><a xlink:title=" ">
<polygon fill="#e0e0e0" stroke="#999999" points="64.48,-74.5 15.48,-74.5 15.48,-55.25 64.48,-55.25 64.48,-74.5"/>
<text xml:space="preserve" text-anchor="middle" x="39.98" y="-61" font-family="Helvetica,sans-Serif" font-size="10.00">fstream</text>
</a>
</g>
</g>
<!-- Node1&#45;&gt;Node3 -->
<g id="edge2_Node000001_Node000003" class="edge">
<title>Node1&#45;&gt;Node3</title>
<g id="a_edge2_Node000001_Node000003"><a xlink:title=" ">
<path fill="none" stroke="#63b8ff" d="M260.21,-110.04C213.72,-102.08 144.99,-89.77 75.9,-74.8"/>
<polygon fill="#63b8ff" stroke="#63b8ff" points="76.81,-71.42 66.29,-72.7 75.31,-78.25 76.81,-71.42"/>
</a>
</g>
</g>
<!-- Node4 -->
<g id="Node000004" class="node">
<title>Node4</title>
<g id="a_Node000004"><a xlink:title=" ">
<polygon fill="#e0e0e0" stroke="#999999" points="370.98,-19.25 330.98,-19.25 330.98,0 370.98,0 370.98,-19.25"/>
<text xml:space="preserve" text-anchor="middle" x="350.98" y="-5.75" font-family="Helvetica,sans-Serif" font-size="10.00">string</text>
</a>
</g>
</g>
<!-- Node1&#45;&gt;Node4 -->
<g id="edge3_Node000001_Node000004" class="edge">
<title>Node1&#45;&gt;Node4</title>
<g id="a_edge3_Node000001_Node000004"><a xlink:title=" ">
<path fill="none" stroke="#63b8ff" d="M375.39,-110C415.39,-102.59 462.68,-90.69 474.98,-74.5 501.66,-39.36 427.54,-21.88 382.59,-14.73"/>
<polygon fill="#63b8ff" stroke="#63b8ff" points="383.24,-11.28 372.83,-13.27 382.21,-18.21 383.24,-11.28"/>
</a>
</g>
</g>
<!-- Node5 -->
<g id="Node000005" class="node">
<title>Node5</title>
<g id="a_Node000005"><a xlink:title=" ">
<polygon fill="#e0e0e0" stroke="#999999" points="277.35,-74.5 194.6,-74.5 194.6,-55.25 277.35,-55.25 277.35,-74.5"/>
<text xml:space="preserve" text-anchor="middle" x="235.98" y="-61" font-family="Helvetica,sans-Serif" font-size="10.00">unordered_map</text>
</a>
</g>
</g>
<!-- Node1&#45;&gt;Node5 -->
<g id="edge4_Node000001_Node000005" class="edge">
<title>Node1&#45;&gt;Node5</title>
<g id="a_edge4_Node000001_Node000005"><a xlink:title=" ">
<path fill="none" stroke="#63b8ff" d="M301.58,-110.09C289.89,-102.21 272.68,-90.61 258.82,-81.27"/>
<polygon fill="#63b8ff" stroke="#63b8ff" points="260.95,-78.49 250.7,-75.8 257.03,-84.29 260.95,-78.49"/>
</a>
</g>
</g>
<!-- Node6 -->
<g id="Node000006" class="node">
<title>Node6</title>
<g id="a_Node000006"><a xlink:title=" ">
<polygon fill="#e0e0e0" stroke="#999999" points="334.6,-74.5 295.35,-74.5 295.35,-55.25 334.6,-55.25 334.6,-74.5"/>
<text xml:space="preserve" text-anchor="middle" x="314.98" y="-61" font-family="Helvetica,sans-Serif" font-size="10.00">utility</text>
</a>
</g>
</g>
<!-- Node1&#45;&gt;Node6 -->
<g id="edge5_Node000001_Node000006" class="edge">
<title>Node1&#45;&gt;Node6</title>
<g id="a_edge5_Node000001_Node000006"><a xlink:title=" ">
<path fill="none" stroke="#63b8ff" d="M314.98,-110.33C314.98,-103.82 314.98,-94.67 314.98,-86.37"/>
<polygon fill="#63b8ff" stroke="#63b8ff" points="318.48,-86.37 314.98,-76.37 311.48,-86.37 318.48,-86.37"/>
</a>
</g>
</g>
<!-- Node7 -->
<g id="Node000007" class="node">
<title>Node7</title>
<g id="a_Node000007"><a xlink:title=" ">
<polygon fill="#e0e0e0" stroke="#999999" points="395.48,-74.5 352.48,-74.5 352.48,-55.25 395.48,-55.25 395.48,-74.5"/>
<text xml:space="preserve" text-anchor="middle" x="373.98" y="-61" font-family="Helvetica,sans-Serif" font-size="10.00">vector</text>
</a>
</g>
</g>
<!-- Node1&#45;&gt;Node7 -->
<g id="edge6_Node000001_Node000007" class="edge">
<title>Node1&#45;&gt;Node7</title>
<g id="a_edge6_Node000001_Node000007"><a xlink:title=" ">
<path fill="none" stroke="#63b8ff" d="M324.99,-110.09C333.34,-102.55 345.48,-91.6 355.58,-82.48"/>
<polygon fill="#63b8ff" stroke="#63b8ff" points="357.91,-85.09 362.99,-75.79 353.22,-79.89 357.91,-85.09"/>
</a>
</g>
</g>
<!-- Node8 -->
<g id="Node000008" class="node">
<title>Node8</title>
<g id="a_Node000008"><a xlink:title=" ">
<polygon fill="#e0e0e0" stroke="#999999" points="466.35,-74.5 413.6,-74.5 413.6,-55.25 466.35,-55.25 466.35,-74.5"/>
<text xml:space="preserve" text-anchor="middle" x="439.98" y="-61" font-family="Helvetica,sans-Serif" font-size="10.00">json.hpp</text>
</a>
</g>
</g>
<!-- Node1&#45;&gt;Node8 -->
<g id="edge7_Node000001_Node000008" class="edge">
<title>Node1&#45;&gt;Node8</title>
<g id="a_edge7_Node000001_Node000008"><a xlink:title=" ">
<path fill="none" stroke="#63b8ff" d="M336.18,-110.09C355.93,-101.68 385.65,-89.02 408.23,-79.4"/>
<polygon fill="#63b8ff" stroke="#63b8ff" points="409.45,-82.68 417.28,-75.55 406.7,-76.24 409.45,-82.68"/>
</a>
</g>
</g>
<!-- Node9 -->
<g id="Node000009" class="node">
<title>Node9</title>
<g id="a_Node000009"><a xlink:href="_input_bindings_8hpp.html" target="_top" xlink:title="Single source of truth for keyboard controls and their HUD labels.">
<polygon fill="white" stroke="#666666" points="176.98,-74.5 82.98,-74.5 82.98,-55.25 176.98,-55.25 176.98,-74.5"/>
<text xml:space="preserve" text-anchor="middle" x="129.98" y="-61" font-family="Helvetica,sans-Serif" font-size="10.00">InputBindings.hpp</text>
</a>
</g>
</g>
<!-- Node1&#45;&gt;Node9 -->
<g id="edge8_Node000001_Node000009" class="edge">
<title>Node1&#45;&gt;Node9</title>
<g id="a_edge8_Node000001_Node000009"><a xlink:title=" ">
<path fill="none" stroke="#63b8ff" d="M283.59,-110.09C253.03,-101.29 206.35,-87.86 172.47,-78.11"/>
<polygon fill="#63b8ff" stroke="#63b8ff" points="173.55,-74.77 162.97,-75.37 171.61,-81.5 173.55,-74.77"/>
</a>
</g>
</g>
<!-- Node11 -->
<g id="Node000011" class="node">
<title>Node11</title>
<g id="a_Node000011"><a xlink:title=" ">
<polygon fill="#e0e0e0" stroke="#999999" points="569.73,-74.5 522.23,-74.5 522.23,-55.25 569.73,-55.25 569.73,-74.5"/>
<text xml:space="preserve" text-anchor="middle" x="545.98" y="-61" font-family="Helvetica,sans-Serif" font-size="10.00">imgui.h</text>
</a>
</g>
</g>
<!-- Node1&#45;&gt;Node11 -->
<g id="edge12_Node000001_Node000011" class="edge">
<title>Node1&#45;&gt;Node11</title>
<g id="a_edge12_Node000001_Node000011"><a xlink:title=" ">
<path fill="none" stroke="#63b8ff" d="M354.42,-110.03C398.36,-99.9 468.72,-83.68 510.83,-73.98"/>
<polygon fill="#63b8ff" stroke="#63b8ff" points="511.48,-77.42 520.44,-71.76 509.91,-70.6 511.48,-77.42"/>
</a>
</g>
</g>
<!-- Node9&#45;&gt;Node2 -->
<g id="edge9_Node000009_Node000002" class="edge">
<title>Node9&#45;&gt;Node2</title>
<g id="a_edge9_Node000009_Node000002"><a xlink:title=" ">
<path fill="none" stroke="#63b8ff" d="M111.49,-54.84C94.57,-46.58 69.29,-34.23 49.74,-24.68"/>
<polygon fill="#63b8ff" stroke="#63b8ff" points="51.44,-21.61 40.92,-20.37 48.37,-27.9 51.44,-21.61"/>
</a>
</g>
</g>
<!-- Node9&#45;&gt;Node4 -->
<g id="edge10_Node000009_Node000004" class="edge">
<title>Node9&#45;&gt;Node4</title>
<g id="a_edge10_Node000009_Node000004"><a xlink:title=" ">
<path fill="none" stroke="#63b8ff" d="M167.72,-54.78C210.49,-44.48 279.44,-27.86 319.45,-18.22"/>
<polygon fill="#63b8ff" stroke="#63b8ff" points="320.27,-21.62 329.17,-15.88 318.63,-14.82 320.27,-21.62"/>
</a>
</g>
</g>
<!-- Node10 -->
<g id="Node000010" class="node">
<title>Node10</title>
<g id="a_Node000010"><a xlink:title=" ">
<polygon fill="#e0e0e0" stroke="#999999" points="169.48,-19.25 90.48,-19.25 90.48,0 169.48,0 169.48,-19.25"/>
<text xml:space="preserve" text-anchor="middle" x="129.98" y="-5.75" font-family="Helvetica,sans-Serif" font-size="10.00">GLFW/glfw3.h</text>
</a>
</g>
</g>
<!-- Node9&#45;&gt;Node10 -->
<g id="edge11_Node000009_Node000010" class="edge">
<title>Node9&#45;&gt;Node10</title>
<g id="a_edge11_Node000009_Node000010"><a xlink:title=" ">
<path fill="none" stroke="#63b8ff" d="M129.98,-55.08C129.98,-48.57 129.98,-39.42 129.98,-31.12"/>
<polygon fill="#63b8ff" stroke="#63b8ff" points="133.48,-31.12 129.98,-21.12 126.48,-31.12 133.48,-31.12"/>
</a>
</g>
</g>
</g>
</svg>
