<?xml version="1.0" encoding="UTF-8" standalone="no"?>
<!DOCTYPE svg PUBLIC "-//W3C//DTD SVG 1.1//EN"
 "http://www.w3.org/Graphics/SVG/1.1/DTD/svg11.dtd">
<!-- Generated by graphviz version 15.0.0 (20260523.1842)
 -->
<!-- Title: source/src/DungeonApp.cpp Pages: 1 -->
<svg width="2161pt" height="204pt"
 viewBox="0.00 0.00 2161.00 204.00" xmlns="http://www.w3.org/2000/svg" xmlns:xlink="http://www.w3.org/1999/xlink">
<g id="graph0" class="graph" transform="scale(1 1) rotate(0) translate(4 200.25)">
<title>source/src/DungeonApp.cpp</title>
<!-- Node1 -->
<g id="Node000001" class="node">
<title>Node1</title>
<g id="a_Node000001"><a xlink:title="Application entry point and main class: a first&#45;person dungeon tavern with an interactive NPC,...">
<polygon fill="#999999" stroke="#666666" points="1476.25,-196.25 1336.5,-196.25 1336.5,-177 1476.25,-177 1476.25,-196.25"/>
<text xml:space="preserve" text-anchor="middle" x="1406.38" y="-182.75" font-family="Helvetica,sans-Serif" font-size="10.00">source/src/DungeonApp.cpp</text>
</a>
</g>
</g>
<!-- Node2 -->
<g id="Node000002" class="node">
<title>Node2</title>
<g id="a_Node000002"><a xlink:title=" ">
<polygon fill="#e0e0e0" stroke="#999999" points="1835.25,-19.25 1797.5,-19.25 1797.5,0 1835.25,0 1835.25,-19.25"/>
<text xml:space="preserve" text-anchor="middle" x="1816.38" y="-5.75" font-family="Helvetica,sans-Serif" font-size="10.00">array</text>
</a>
</g>
</g>
<!-- Node1&#45;&gt;Node2 -->
<g id="edge1_Node000001_Node000002" class="edge">
<title>Node1&#45;&gt;Node2</title>
<g id="a_edge1_Node000001_Node000002"><a xlink:title=" ">
<path fill="none" stroke="#63b8ff" d="M1476.74,-182.74C1591.97,-177.37 1810.84,-164.22 1837.38,-141 1866.55,-115.47 1866.53,-91.72 1853.38,-55.25 1849.64,-44.91 1842.36,-35.26 1835.23,-27.61"/>
<polygon fill="#63b8ff" stroke="#63b8ff" points="1837.8,-25.23 1828.24,-20.68 1832.88,-30.2 1837.8,-25.23"/>
</a>
</g>
</g>
<!-- Node3 -->
<g id="Node000003" class="node">
<title>Node3</title>
<g id="a_Node000003"><a xlink:title=" ">
<polygon fill="#e0e0e0" stroke="#999999" points="325.88,-74.5 282.88,-74.5 282.88,-55.25 325.88,-55.25 325.88,-74.5"/>
<text xml:space="preserve" text-anchor="middle" x="304.38" y="-61" font-family="Helvetica,sans-Serif" font-size="10.00">cmath</text>
</a>
</g>
</g>
<!-- Node1&#45;&gt;Node3 -->
<g id="edge2_Node000001_Node000003" class="edge">
<title>Node1&#45;&gt;Node3</title>
<g id="a_edge2_Node000001_Node000003"><a xlink:title=" ">
<path fill="none" stroke="#63b8ff" d="M1336.11,-185.96C1116.17,-186.56 450.45,-184.7 364.38,-141 340.82,-129.04 323.46,-103.16 313.64,-85.14"/>
<polygon fill="#63b8ff" stroke="#63b8ff" points="316.75,-83.55 309.08,-76.24 310.52,-86.74 316.75,-83.55"/>
</a>
</g>
</g>
<!-- Node4 -->
<g id="Node000004" class="node">
<title>Node4</title>
<g id="a_Node000004"><a xlink:title=" ">
<polygon fill="#e0e0e0" stroke="#999999" points="660.88,-74.5 599.88,-74.5 599.88,-55.25 660.88,-55.25 660.88,-74.5"/>
<text xml:space="preserve" text-anchor="middle" x="630.38" y="-61" font-family="Helvetica,sans-Serif" font-size="10.00">filesystem</text>
</a>
</g>
</g>
<!-- Node1&#45;&gt;Node4 -->
<g id="edge3_Node000001_Node000004" class="edge">
<title>Node1&#45;&gt;Node4</title>
<g id="a_edge3_Node000001_Node000004"><a xlink:title=" ">
<path fill="none" stroke="#63b8ff" d="M1336.3,-186.16C1228.04,-185.65 1014.12,-179.26 837.38,-141 772.28,-126.91 699.92,-97.2 660.33,-79.66"/>
<polygon fill="#63b8ff" stroke="#63b8ff" points="661.77,-76.47 651.21,-75.58 658.9,-82.86 661.77,-76.47"/>
</a>
</g>
</g>
<!-- Node5 -->
<g id="Node000005" class="node">
<title>Node5</title>
<g id="a_Node000005"><a xlink:title=" ">
<polygon fill="#e0e0e0" stroke="#999999" points="303,-19.25 251.75,-19.25 251.75,0 303,0 303,-19.25"/>
<text xml:space="preserve" text-anchor="middle" x="277.38" y="-5.75" font-family="Helvetica,sans-Serif" font-size="10.00">memory</text>
</a>
</g>
</g>
<!-- Node1&#45;&gt;Node5 -->
<g id="edge4_Node000001_Node000005" class="edge">
<title>Node1&#45;&gt;Node5</title>
<g id="a_edge4_Node000001_Node000005"><a xlink:title=" ">
<path fill="none" stroke="#63b8ff" d="M1336.4,-184.96C1082.05,-182.29 218.73,-171.06 168.38,-141 132.43,-119.54 104.41,-88.86 129.38,-55.25 132.8,-50.64 197.83,-32.24 240.54,-20.55"/>
<polygon fill="#63b8ff" stroke="#63b8ff" points="241.21,-24 249.94,-17.99 239.37,-17.25 241.21,-24"/>
</a>
</g>
</g>
<!-- Node6 -->
<g id="Node000006" class="node">
<title>Node6</title>
<g id="a_Node000006"><a xlink:title=" ">
<polygon fill="#e0e0e0" stroke="#999999" points="1593.38,-19.25 1553.38,-19.25 1553.38,0 1593.38,0 1593.38,-19.25"/>
<text xml:space="preserve" text-anchor="middle" x="1573.38" y="-5.75" font-family="Helvetica,sans-Serif" font-size="10.00">string</text>
</a>
</g>
</g>
<!-- Node1&#45;&gt;Node6 -->
<g id="edge5_Node000001_Node000006" class="edge">
<title>Node1&#45;&gt;Node6</title>
<g id="a_edge5_Node000001_Node000006"><a xlink:title=" ">
<path fill="none" stroke="#63b8ff" d="M1476.51,-186.45C1577.95,-186.23 1759.01,-180.15 1809.38,-141 1840.72,-116.64 1859.97,-85.59 1834.38,-55.25 1819.69,-37.84 1671.35,-20.64 1605.07,-13.76"/>
<polygon fill="#63b8ff" stroke="#63b8ff" points="1605.51,-10.29 1595.21,-12.75 1604.8,-17.25 1605.51,-10.29"/>
</a>
</g>
</g>
<!-- Node7 -->
<g id="Node000007" class="node">
<title>Node7</title>
<g id="a_Node000007"><a xlink:title=" ">
<polygon fill="#e0e0e0" stroke="#999999" points="1399.75,-74.5 1317,-74.5 1317,-55.25 1399.75,-55.25 1399.75,-74.5"/>
<text xml:space="preserve" text-anchor="middle" x="1358.38" y="-61" font-family="Helvetica,sans-Serif" font-size="10.00">unordered_map</text>
</a>
</g>
</g>
<!-- Node1&#45;&gt;Node7 -->
<g id="edge6_Node000001_Node000007" class="edge">
<title>Node1&#45;&gt;Node7</title>
<g id="a_edge6_Node000001_Node000007"><a xlink:title=" ">
<path fill="none" stroke="#63b8ff" d="M1402.77,-176.62C1395.05,-157.38 1376.8,-111.85 1366.26,-85.55"/>
<polygon fill="#63b8ff" stroke="#63b8ff" points="1369.56,-84.36 1362.59,-76.39 1363.06,-86.97 1369.56,-84.36"/>
</a>
</g>
</g>
<!-- Node8 -->
<g id="Node000008" class="node">
<title>Node8</title>
<g id="a_Node000008"><a xlink:title=" ">
<polygon fill="#e0e0e0" stroke="#999999" points="819.88,-19.25 776.88,-19.25 776.88,0 819.88,0 819.88,-19.25"/>
<text xml:space="preserve" text-anchor="middle" x="798.38" y="-5.75" font-family="Helvetica,sans-Serif" font-size="10.00">vector</text>
</a>
</g>
</g>
<!-- Node1&#45;&gt;Node8 -->
<g id="edge7_Node000001_Node000008" class="edge">
<title>Node1&#45;&gt;Node8</title>
<g id="a_edge7_Node000001_Node000008"><a xlink:title=" ">
<path fill="none" stroke="#63b8ff" d="M1336.24,-185.85C1213.5,-185.15 952.17,-178.84 735.38,-141 629.71,-122.56 567.93,-160.16 503.38,-74.5 498.23,-67.67 497.8,-61.74 503.38,-55.25 536.9,-16.27 695.82,-10.91 765.5,-10.47"/>
<polygon fill="#63b8ff" stroke="#63b8ff" points="765.16,-13.97 775.15,-10.44 765.13,-6.97 765.16,-13.97"/>
</a>
</g>
</g>
<!-- Node9 -->
<g id="Node000009" class="node">
<title>Node9</title>
<g id="a_Node000009"><a xlink:href="_scene_types_8hpp.html" target="_top" xlink:title="Core data model shared across the app: light/uniform GPU structs and the per&#45;object SceneObject (rend...">
<polygon fill="white" stroke="#666666" points="226.75,-74.5 138,-74.5 138,-55.25 226.75,-55.25 226.75,-74.5"/>
<text xml:space="preserve" text-anchor="middle" x="182.38" y="-61" font-family="Helvetica,sans-Serif" font-size="10.00">SceneTypes.hpp</text>
</a>
</g>
</g>
<!-- Node1&#45;&gt;Node9 -->
<g id="edge8_Node000001_Node000009" class="edge">
<title>Node1&#45;&gt;Node9</title>
<g id="a_edge8_Node000001_Node000009"><a xlink:title=" ">
<path fill="none" stroke="#63b8ff" d="M1336.13,-185.72C1081.91,-185.74 222.59,-182.71 182.38,-141 168.61,-126.72 171.2,-102.89 175.57,-85.9"/>
<polygon fill="#63b8ff" stroke="#63b8ff" points="178.89,-87.01 178.42,-76.42 172.19,-84.99 178.89,-87.01"/>
</a>
</g>
</g>
<!-- Node12 -->
<g id="Node000012" class="node">
<title>Node12</title>
<g id="a_Node000012"><a xlink:href="_day_night_cycle_8hpp.html" target="_top" xlink:title="Automatic day/night cycle driving the sun/moon light, sky tint and shadow direction.">
<polygon fill="white" stroke="#666666" points="475.12,-135.38 373.62,-135.38 373.62,-116.12 475.12,-116.12 475.12,-135.38"/>
<text xml:space="preserve" text-anchor="middle" x="424.38" y="-121.88" font-family="Helvetica,sans-Serif" font-size="10.00">DayNightCycle.hpp</text>
</a>
</g>
</g>
<!-- Node1&#45;&gt;Node12 -->
<g id="edge14_Node000001_Node000012" class="edge">
<title>Node1&#45;&gt;Node12</title>
<g id="a_edge14_Node000001_Node000012"><a xlink:title=" ">
<path fill="none" stroke="#63b8ff" d="M1336.13,-186.19C1182.07,-186.57 803.2,-182.74 489.38,-141 483.65,-140.24 477.69,-139.23 471.79,-138.1"/>
<polygon fill="#63b8ff" stroke="#63b8ff" points="472.61,-134.7 462.11,-136.12 471.2,-141.56 472.61,-134.7"/>
</a>
</g>
</g>
<!-- Node15 -->
<g id="Node000015" class="node">
<title>Node15</title>
<g id="a_Node000015"><a xlink:href="_dialogue_system_8hpp.html" target="_top" xlink:title="Branching NPC dialogue loaded from assets/dialogue/dialogues.json.">
<polygon fill="white" stroke="#666666" points="1516.75,-135.38 1410,-135.38 1410,-116.12 1516.75,-116.12 1516.75,-135.38"/>
<text xml:space="preserve" text-anchor="middle" x="1463.38" y="-121.88" font-family="Helvetica,sans-Serif" font-size="10.00">DialogueSystem.hpp</text>
</a>
</g>
</g>
<!-- Node1&#45;&gt;Node15 -->
<g id="edge18_Node000001_Node000015" class="edge">
<title>Node1&#45;&gt;Node15</title>
<g id="a_edge18_Node000001_Node000015"><a xlink:title=" ">
<path fill="none" stroke="#63b8ff" d="M1415.03,-176.68C1423.4,-168.04 1436.3,-154.71 1446.68,-144"/>
<polygon fill="#63b8ff" stroke="#63b8ff" points="1449.14,-146.48 1453.58,-136.86 1444.11,-141.61 1449.14,-146.48"/>
</a>
</g>
</g>
<!-- Node19 -->
<g id="Node000019" class="node">
<title>Node19</title>
<g id="a_Node000019"><a xlink:href="_input_bindings_8hpp.html" target="_top" xlink:title="Single source of truth for keyboard controls and their HUD labels.">
<polygon fill="white" stroke="#666666" points="1825.38,-74.5 1731.38,-74.5 1731.38,-55.25 1825.38,-55.25 1825.38,-74.5"/>
<text xml:space="preserve" text-anchor="middle" x="1778.38" y="-61" font-family="Helvetica,sans-Serif" font-size="10.00">InputBindings.hpp</text>
</a>
</g>
</g>
<!-- Node1&#45;&gt;Node19 -->
<g id="edge56_Node000001_Node000019" class="edge">
<title>Node1&#45;&gt;Node19</title>
<g id="a_edge56_Node000001_Node000019"><a xlink:title=" ">
<path fill="none" stroke="#63b8ff" d="M1476.58,-182.46C1581.93,-176.98 1770.84,-164.05 1791.38,-141 1805.1,-125.6 1797.29,-101.1 1789.09,-84.3"/>
<polygon fill="#63b8ff" stroke="#63b8ff" points="1792.38,-83.03 1784.57,-75.87 1786.21,-86.34 1792.38,-83.03"/>
</a>
</g>
</g>
<!-- Node21 -->
<g id="Node000021" class="node">
<title>Node21</title>
<g id="a_Node000021"><a xlink:title=" ">
<polygon fill="#e0e0e0" stroke="#999999" points="1713.12,-74.5 1665.62,-74.5 1665.62,-55.25 1713.12,-55.25 1713.12,-74.5"/>
<text xml:space="preserve" text-anchor="middle" x="1689.38" y="-61" font-family="Helvetica,sans-Serif" font-size="10.00">imgui.h</text>
</a>
</g>
</g>
<!-- Node1&#45;&gt;Node21 -->
<g id="edge59_Node000001_Node000021" class="edge">
<title>Node1&#45;&gt;Node21</title>
<g id="a_edge59_Node000001_Node000021"><a xlink:title=" ">
<path fill="none" stroke="#63b8ff" d="M1476.72,-178.2C1535.29,-170.93 1613.17,-158.41 1639.38,-141 1659.71,-127.49 1673.82,-102.58 1681.74,-85.16"/>
<polygon fill="#63b8ff" stroke="#63b8ff" points="1684.78,-86.96 1685.47,-76.39 1678.34,-84.23 1684.78,-86.96"/>
</a>
</g>
</g>
<!-- Node22 -->
<g id="Node000022" class="node">
<title>Node22</title>
<g id="a_Node000022"><a xlink:href="_first_person_controller_8hpp.html" target="_top" xlink:title="First&#45;person camera controller: mouse&#45;look, WASD movement, jumping and sliding wall collisions.">
<polygon fill="white" stroke="#666666" points="317.5,-135.38 191.25,-135.38 191.25,-116.12 317.5,-116.12 317.5,-135.38"/>
<text xml:space="preserve" text-anchor="middle" x="254.38" y="-121.88" font-family="Helvetica,sans-Serif" font-size="10.00">FirstPersonController.hpp</text>
</a>
</g>
</g>
<!-- Node1&#45;&gt;Node22 -->
<g id="edge31_Node000001_Node000022" class="edge">
<title>Node1&#45;&gt;Node22</title>
<g id="a_edge31_Node000001_Node000022"><a xlink:title=" ">
<path fill="none" stroke="#63b8ff" d="M1336.31,-186.14C1164.48,-186.65 708.64,-183.52 331.38,-141 323.93,-140.16 316.13,-139.02 308.46,-137.75"/>
<polygon fill="#63b8ff" stroke="#63b8ff" points="309.33,-134.35 298.87,-136.08 308.12,-141.25 309.33,-134.35"/>
</a>
</g>
</g>
<!-- Node23 -->
<g id="Node000023" class="node">
<title>Node23</title>
<g id="a_Node000023"><a xlink:href="_scene_loader_8hpp.html" target="_top" xlink:title="Loads scene.json into the app&#39;s SceneObject list (meshes, colliders, flames/lights,...">
<polygon fill="white" stroke="#666666" points="936.88,-135.38 845.88,-135.38 845.88,-116.12 936.88,-116.12 936.88,-135.38"/>
<text xml:space="preserve" text-anchor="middle" x="891.38" y="-121.88" font-family="Helvetica,sans-Serif" font-size="10.00">SceneLoader.hpp</text>
</a>
</g>
</g>
<!-- Node1&#45;&gt;Node23 -->
<g id="edge35_Node000001_Node000023" class="edge">
<title>Node1&#45;&gt;Node23</title>
<g id="a_edge35_Node000001_Node000023"><a xlink:title=" ">
<path fill="none" stroke="#63b8ff" d="M1336.12,-177.59C1233.2,-165.83 1043.41,-144.13 948.52,-133.28"/>
<polygon fill="#63b8ff" stroke="#63b8ff" points="948.99,-129.81 938.66,-132.16 948.2,-136.77 948.99,-129.81"/>
</a>
</g>
</g>
<!-- Node28 -->
<g id="Node000028" class="node">
<title>Node28</title>
<g id="a_Node000028"><a xlink:href="_shop_system_8hpp.html" target="_top" xlink:title="The merchant&#39;s buy/sell screen and its session&#45;persistent economy.">
<polygon fill="white" stroke="#666666" points="1629.88,-135.38 1538.88,-135.38 1538.88,-116.12 1629.88,-116.12 1629.88,-135.38"/>
<text xml:space="preserve" text-anchor="middle" x="1584.38" y="-121.88" font-family="Helvetica,sans-Serif" font-size="10.00">ShopSystem.hpp</text>
</a>
</g>
</g>
<!-- Node1&#45;&gt;Node28 -->
<g id="edge48_Node000001_Node000028" class="edge">
<title>Node1&#45;&gt;Node28</title>
<g id="a_edge48_Node000001_Node000028"><a xlink:title=" ">
<path fill="none" stroke="#63b8ff" d="M1433.8,-176.55C1463.85,-166.61 1512.27,-150.6 1546.07,-139.42"/>
<polygon fill="#63b8ff" stroke="#63b8ff" points="1547.09,-142.77 1555.48,-136.31 1544.89,-136.12 1547.09,-142.77"/>
</a>
</g>
</g>
<!-- Node29 -->
<g id="Node000029" class="node">
<title>Node29</title>
<g id="a_Node000029"><a xlink:href="_splash_screen_8hpp.html" target="_top" xlink:title="Start/pause menu (Start, Controls, Quit) drawn over the live scene.">
<polygon fill="white" stroke="#666666" points="1782.12,-135.38 1686.62,-135.38 1686.62,-116.12 1782.12,-116.12 1782.12,-135.38"/>
<text xml:space="preserve" text-anchor="middle" x="1734.38" y="-121.88" font-family="Helvetica,sans-Serif" font-size="10.00">SplashScreen.hpp</text>
</a>
</g>
</g>
<!-- Node1&#45;&gt;Node29 -->
<g id="edge53_Node000001_Node000029" class="edge">
<title>Node1&#45;&gt;Node29</title>
<g id="a_edge53_Node000001_Node000029"><a xlink:title=" ">
<path fill="none" stroke="#63b8ff" d="M1467.04,-176.5C1521.08,-168.13 1602.22,-154.93 1672.38,-141 1676.64,-140.15 1681.06,-139.23 1685.49,-138.27"/>
<polygon fill="#63b8ff" stroke="#63b8ff" points="1685.93,-141.76 1694.94,-136.18 1684.42,-134.92 1685.93,-141.76"/>
</a>
</g>
</g>
<!-- Node30 -->
<g id="Node000030" class="node">
<title>Node30</title>
<g id="a_Node000030"><a xlink:title=" ">
<polygon fill="#e0e0e0" stroke="#999999" points="2027.12,-141 1919.62,-141 1919.62,-110.5 2027.12,-110.5 2027.12,-141"/>
<text xml:space="preserve" text-anchor="start" x="1927.62" y="-127.5" font-family="Helvetica,sans-Serif" font-size="10.00">backends/imgui_impl</text>
<text xml:space="preserve" text-anchor="middle" x="1973.38" y="-116.25" font-family="Helvetica,sans-Serif" font-size="10.00">_glfw.h</text>
</a>
</g>
</g>
<!-- Node1&#45;&gt;Node30 -->
<g id="edge57_Node000001_Node000030" class="edge">
<title>Node1&#45;&gt;Node30</title>
<g id="a_edge57_Node000001_Node000030"><a xlink:title=" ">
<path fill="none" stroke="#63b8ff" d="M1476.51,-181.96C1573.36,-176.3 1753.32,-163.65 1905.38,-141 1906.23,-140.87 1907.08,-140.74 1907.94,-140.61"/>
<polygon fill="#63b8ff" stroke="#63b8ff" points="1908.52,-144.06 1917.8,-138.94 1907.35,-137.16 1908.52,-144.06"/>
</a>
</g>
</g>
<!-- Node31 -->
<g id="Node000031" class="node">
<title>Node31</title>
<g id="a_Node000031"><a xlink:title=" ">
<polygon fill="#e0e0e0" stroke="#999999" points="2153.12,-141 2045.62,-141 2045.62,-110.5 2153.12,-110.5 2153.12,-141"/>
<text xml:space="preserve" text-anchor="start" x="2053.62" y="-127.5" font-family="Helvetica,sans-Serif" font-size="10.00">backends/imgui_impl</text>
<text xml:space="preserve" text-anchor="middle" x="2099.38" y="-116.25" font-family="Helvetica,sans-Serif" font-size="10.00">_vulkan.h</text>
</a>
</g>
</g>
<!-- Node1&#45;&gt;Node31 -->
<g id="edge58_Node000001_Node000031" class="edge">
<title>Node1&#45;&gt;Node31</title>
<g id="a_edge58_Node000001_Node000031"><a xlink:title=" ">
<path fill="none" stroke="#63b8ff" d="M1476.67,-184.12C1591.41,-180.91 1826.18,-171.14 2034.05,-141.19"/>
<polygon fill="#63b8ff" stroke="#63b8ff" points="2034.29,-144.69 2043.68,-139.78 2033.28,-137.76 2034.29,-144.69"/>
</a>
</g>
</g>
<!-- Node9&#45;&gt;Node5 -->
<g id="edge9_Node000009_Node000005" class="edge">
<title>Node9&#45;&gt;Node5</title>
<g id="a_edge9_Node000009_Node000005"><a xlink:title=" ">
<path fill="none" stroke="#63b8ff" d="M198.49,-54.84C212.96,-46.73 234.45,-34.68 251.36,-25.21"/>
<polygon fill="#63b8ff" stroke="#63b8ff" points="252.85,-28.39 259.86,-20.44 249.43,-22.28 252.85,-28.39"/>
</a>
</g>
</g>
<!-- Node9&#45;&gt;Node6 -->
<g id="edge10_Node000009_Node000006" class="edge">
<title>Node9&#45;&gt;Node6</title>
<g id="a_edge10_Node000009_Node000006"><a xlink:title=" ">
<path fill="none" stroke="#63b8ff" d="M227.23,-59.08C241.92,-57.66 258.33,-56.22 273.38,-55.25 778.66,-22.66 1396.07,-12.93 1541.6,-11.01"/>
<polygon fill="#63b8ff" stroke="#63b8ff" points="1541.64,-14.51 1551.59,-10.88 1541.55,-7.51 1541.64,-14.51"/>
</a>
</g>
</g>
<!-- Node9&#45;&gt;Node8 -->
<g id="edge11_Node000009_Node000008" class="edge">
<title>Node9&#45;&gt;Node8</title>
<g id="a_edge11_Node000009_Node000008"><a xlink:title=" ">
<path fill="none" stroke="#63b8ff" d="M226.98,-56.93C231.5,-56.32 236.03,-55.75 240.38,-55.25 438.9,-32.58 678.48,-17.54 765.1,-12.5"/>
<polygon fill="#63b8ff" stroke="#63b8ff" points="765.23,-15.99 775.01,-11.93 764.82,-9.01 765.23,-15.99"/>
</a>
</g>
</g>
<!-- Node10 -->
<g id="Node000010" class="node">
<title>Node10</title>
<g id="a_Node000010"><a xlink:title=" ">
<polygon fill="#e0e0e0" stroke="#999999" points="233.88,-19.25 130.88,-19.25 130.88,0 233.88,0 233.88,-19.25"/>
<text xml:space="preserve" text-anchor="middle" x="182.38" y="-5.75" font-family="Helvetica,sans-Serif" font-size="10.00">modules/Starter.hpp</text>
</a>
</g>
</g>
<!-- Node9&#45;&gt;Node10 -->
<g id="edge12_Node000009_Node000010" class="edge">
<title>Node9&#45;&gt;Node10</title>
<g id="a_edge12_Node000009_Node000010"><a xlink:title=" ">
<path fill="none" stroke="#63b8ff" d="M182.38,-55.08C182.38,-48.57 182.38,-39.42 182.38,-31.12"/>
<polygon fill="#63b8ff" stroke="#63b8ff" points="185.88,-31.12 182.38,-21.12 178.88,-31.12 185.88,-31.12"/>
</a>
</g>
</g>
<!-- Node11 -->
<g id="Node000011" class="node">
<title>Node11</title>
<g id="a_Node000011"><a xlink:title=" ">
<polygon fill="#e0e0e0" stroke="#999999" points="112.75,-19.25 0,-19.25 0,0 112.75,0 112.75,-19.25"/>
<text xml:space="preserve" text-anchor="middle" x="56.38" y="-5.75" font-family="Helvetica,sans-Serif" font-size="10.00">modules/Colliders.hpp</text>
</a>
</g>
</g>
<!-- Node9&#45;&gt;Node11 -->
<g id="edge13_Node000009_Node000011" class="edge">
<title>Node9&#45;&gt;Node11</title>
<g id="a_edge13_Node000009_Node000011"><a xlink:title=" ">
<path fill="none" stroke="#63b8ff" d="M161,-54.84C141.09,-46.43 111.14,-33.77 88.37,-24.15"/>
<polygon fill="#63b8ff" stroke="#63b8ff" points="89.82,-20.96 79.25,-20.29 87.1,-27.41 89.82,-20.96"/>
</a>
</g>
</g>
<!-- Node12&#45;&gt;Node3 -->
<g id="edge15_Node000012_Node000003" class="edge">
<title>Node12&#45;&gt;Node3</title>
<g id="a_edge15_Node000012_Node000003"><a xlink:title=" ">
<path fill="none" stroke="#63b8ff" d="M405.89,-115.68C386.36,-106.1 355.34,-90.88 332.72,-79.78"/>
<polygon fill="#63b8ff" stroke="#63b8ff" points="334.56,-76.79 324.04,-75.53 331.48,-83.07 334.56,-76.79"/>
</a>
</g>
</g>
<!-- Node13 -->
<g id="Node000013" class="node">
<title>Node13</title>
<g id="a_Node000013"><a xlink:title=" ">
<polygon fill="#e0e0e0" stroke="#999999" points="582,-74.5 512.75,-74.5 512.75,-55.25 582,-55.25 582,-74.5"/>
<text xml:space="preserve" text-anchor="middle" x="547.38" y="-61" font-family="Helvetica,sans-Serif" font-size="10.00">glm/glm.hpp</text>
</a>
</g>
</g>
<!-- Node12&#45;&gt;Node13 -->
<g id="edge16_Node000012_Node000013" class="edge">
<title>Node12&#45;&gt;Node13</title>
<g id="a_edge16_Node000012_Node000013"><a xlink:title=" ">
<path fill="none" stroke="#63b8ff" d="M443.32,-115.68C463.34,-106.1 495.14,-90.88 518.32,-79.78"/>
<polygon fill="#63b8ff" stroke="#63b8ff" points="519.73,-82.99 527.24,-75.51 516.71,-76.67 519.73,-82.99"/>
</a>
</g>
</g>
<!-- Node14 -->
<g id="Node000014" class="node">
<title>Node14</title>
<g id="a_Node000014"><a xlink:title=" ">
<polygon fill="#e0e0e0" stroke="#999999" points="456.75,-74.5 344,-74.5 344,-55.25 456.75,-55.25 456.75,-74.5"/>
<text xml:space="preserve" text-anchor="middle" x="400.38" y="-61" font-family="Helvetica,sans-Serif" font-size="10.00">glm/gtc/constants.hpp</text>
</a>
</g>
</g>
<!-- Node12&#45;&gt;Node14 -->
<g id="edge17_Node000012_Node000014" class="edge">
<title>Node12&#45;&gt;Node14</title>
<g id="a_edge17_Node000012_Node000014"><a xlink:title=" ">
<path fill="none" stroke="#63b8ff" d="M420.73,-115.81C417.45,-107.77 412.52,-95.68 408.34,-85.41"/>
<polygon fill="#63b8ff" stroke="#63b8ff" points="411.64,-84.24 404.63,-76.3 405.16,-86.88 411.64,-84.24"/>
</a>
</g>
</g>
<!-- Node15&#45;&gt;Node2 -->
<g id="edge19_Node000015_Node000002" class="edge">
<title>Node15&#45;&gt;Node2</title>
<g id="a_edge19_Node000015_Node000002"><a xlink:title=" ">
<path fill="none" stroke="#63b8ff" d="M1486.64,-115.68C1522.69,-101.78 1594.38,-74.77 1656.38,-55.25 1711.48,-37.9 1728.71,-36.66 1786.39,-20.03"/>
<polygon fill="#63b8ff" stroke="#63b8ff" points="1787.16,-23.45 1795.78,-17.28 1785.2,-16.73 1787.16,-23.45"/>
</a>
</g>
</g>
<!-- Node15&#45;&gt;Node6 -->
<g id="edge21_Node000015_Node000006" class="edge">
<title>Node15&#45;&gt;Node6</title>
<g id="a_edge21_Node000015_Node000006"><a xlink:title=" ">
<path fill="none" stroke="#63b8ff" d="M1472.01,-115.79C1490.32,-96.79 1533.33,-52.18 1557.01,-27.6"/>
<polygon fill="#63b8ff" stroke="#63b8ff" points="1559.31,-30.26 1563.73,-20.63 1554.27,-25.4 1559.31,-30.26"/>
</a>
</g>
</g>
<!-- Node15&#45;&gt;Node7 -->
<g id="edge22_Node000015_Node000007" class="edge">
<title>Node15&#45;&gt;Node7</title>
<g id="a_edge22_Node000015_Node000007"><a xlink:title=" ">
<path fill="none" stroke="#63b8ff" d="M1447.43,-115.81C1430.7,-106.43 1404.14,-91.54 1384.37,-80.45"/>
<polygon fill="#63b8ff" stroke="#63b8ff" points="1386.23,-77.48 1375.79,-75.64 1382.8,-83.58 1386.23,-77.48"/>
</a>
</g>
</g>
<!-- Node15&#45;&gt;Node8 -->
<g id="edge24_Node000015_Node000008" class="edge">
<title>Node15&#45;&gt;Node8</title>
<g id="a_edge24_Node000015_Node000008"><a xlink:title=" ">
<path fill="none" stroke="#63b8ff" d="M1459.44,-116C1451.99,-100.59 1434.21,-68.94 1408.38,-55.25 1357.23,-28.16 950.8,-14.85 831.31,-11.49"/>
<polygon fill="#63b8ff" stroke="#63b8ff" points="831.64,-8 821.55,-11.22 831.45,-15 831.64,-8"/>
</a>
</g>
</g>
<!-- Node16 -->
<g id="Node000016" class="node">
<title>Node16</title>
<g id="a_Node000016"><a xlink:title=" ">
<polygon fill="#e0e0e0" stroke="#999999" points="1227.88,-74.5 1178.88,-74.5 1178.88,-55.25 1227.88,-55.25 1227.88,-74.5"/>
<text xml:space="preserve" text-anchor="middle" x="1203.38" y="-61" font-family="Helvetica,sans-Serif" font-size="10.00">fstream</text>
</a>
</g>
</g>
<!-- Node15&#45;&gt;Node16 -->
<g id="edge20_Node000015_Node000016" class="edge">
<title>Node15&#45;&gt;Node16</title>
<g id="a_edge20_Node000015_Node000016"><a xlink:title=" ">
<path fill="none" stroke="#63b8ff" d="M1420.8,-115.68C1377.62,-106.39 1308.57,-91.3 1239.34,-74.91"/>
<polygon fill="#63b8ff" stroke="#63b8ff" points="1240.25,-71.53 1229.71,-72.62 1238.63,-78.34 1240.25,-71.53"/>
</a>
</g>
</g>
<!-- Node17 -->
<g id="Node000017" class="node">
<title>Node17</title>
<g id="a_Node000017"><a xlink:title=" ">
<polygon fill="#e0e0e0" stroke="#999999" points="1495,-74.5 1455.75,-74.5 1455.75,-55.25 1495,-55.25 1495,-74.5"/>
<text xml:space="preserve" text-anchor="middle" x="1475.38" y="-61" font-family="Helvetica,sans-Serif" font-size="10.00">utility</text>
</a>
</g>
</g>
<!-- Node15&#45;&gt;Node17 -->
<g id="edge23_Node000015_Node000017" class="edge">
<title>Node15&#45;&gt;Node17</title>
<g id="a_edge23_Node000015_Node000017"><a xlink:title=" ">
<path fill="none" stroke="#63b8ff" d="M1465.2,-115.81C1466.8,-107.94 1469.19,-96.2 1471.26,-86.07"/>
<polygon fill="#63b8ff" stroke="#63b8ff" points="1474.67,-86.88 1473.23,-76.38 1467.81,-85.48 1474.67,-86.88"/>
</a>
</g>
</g>
<!-- Node18 -->
<g id="Node000018" class="node">
<title>Node18</title>
<g id="a_Node000018"><a xlink:title=" ">
<polygon fill="#e0e0e0" stroke="#999999" points="1298.75,-74.5 1246,-74.5 1246,-55.25 1298.75,-55.25 1298.75,-74.5"/>
<text xml:space="preserve" text-anchor="middle" x="1272.38" y="-61" font-family="Helvetica,sans-Serif" font-size="10.00">json.hpp</text>
</a>
</g>
</g>
<!-- Node15&#45;&gt;Node18 -->
<g id="edge25_Node000015_Node000018" class="edge">
<title>Node15&#45;&gt;Node18</title>
<g id="a_edge25_Node000015_Node000018"><a xlink:title=" ">
<path fill="none" stroke="#63b8ff" d="M1433.95,-115.68C1400.57,-105.39 1346.06,-88.59 1309.71,-77.38"/>
<polygon fill="#63b8ff" stroke="#63b8ff" points="1311.09,-74.15 1300.5,-74.55 1309.03,-80.84 1311.09,-74.15"/>
</a>
</g>
</g>
<!-- Node15&#45;&gt;Node19 -->
<g id="edge26_Node000015_Node000019" class="edge">
<title>Node15&#45;&gt;Node19</title>
<g id="a_edge26_Node000015_Node000019"><a xlink:title=" ">
<path fill="none" stroke="#63b8ff" d="M1505.15,-115.65C1513.5,-113.9 1522.21,-112.1 1530.38,-110.5 1595.09,-97.8 1669.59,-84.58 1719.91,-75.86"/>
<polygon fill="#63b8ff" stroke="#63b8ff" points="1720.46,-79.32 1729.72,-74.16 1719.27,-72.42 1720.46,-79.32"/>
</a>
</g>
</g>
<!-- Node15&#45;&gt;Node21 -->
<g id="edge30_Node000015_Node000021" class="edge">
<title>Node15&#45;&gt;Node21</title>
<g id="a_edge30_Node000015_Node000021"><a xlink:title=" ">
<path fill="none" stroke="#63b8ff" d="M1498.19,-115.68C1540.61,-104.63 1611.86,-86.07 1654.37,-75"/>
<polygon fill="#63b8ff" stroke="#63b8ff" points="1655.03,-78.44 1663.82,-72.53 1653.26,-71.67 1655.03,-78.44"/>
</a>
</g>
</g>
<!-- Node19&#45;&gt;Node2 -->
<g id="edge27_Node000019_Node000002" class="edge">
<title>Node19&#45;&gt;Node2</title>
<g id="a_edge27_Node000019_Node000002"><a xlink:title=" ">
<path fill="none" stroke="#63b8ff" d="M1784.65,-55.08C1789.73,-47.96 1797.07,-37.68 1803.41,-28.8"/>
<polygon fill="#63b8ff" stroke="#63b8ff" points="1806.12,-31.01 1809.08,-20.84 1800.43,-26.95 1806.12,-31.01"/>
</a>
</g>
</g>
<!-- Node19&#45;&gt;Node6 -->
<g id="edge28_Node000019_Node000006" class="edge">
<title>Node19&#45;&gt;Node6</title>
<g id="a_edge28_Node000019_Node000006"><a xlink:title=" ">
<path fill="none" stroke="#63b8ff" d="M1743.6,-54.84C1704.57,-44.7 1641.83,-28.41 1604.4,-18.68"/>
<polygon fill="#63b8ff" stroke="#63b8ff" points="1605.68,-15.4 1595.12,-16.27 1603.92,-22.18 1605.68,-15.4"/>
</a>
</g>
</g>
<!-- Node20 -->
<g id="Node000020" class="node">
<title>Node20</title>
<g id="a_Node000020"><a xlink:title=" ">
<polygon fill="#e0e0e0" stroke="#999999" points="1779.88,-19.25 1700.88,-19.25 1700.88,0 1779.88,0 1779.88,-19.25"/>
<text xml:space="preserve" text-anchor="middle" x="1740.38" y="-5.75" font-family="Helvetica,sans-Serif" font-size="10.00">GLFW/glfw3.h</text>
</a>
</g>
</g>
<!-- Node19&#45;&gt;Node20 -->
<g id="edge29_Node000019_Node000020" class="edge">
<title>Node19&#45;&gt;Node20</title>
<g id="a_edge29_Node000019_Node000020"><a xlink:title=" ">
<path fill="none" stroke="#63b8ff" d="M1772.1,-55.08C1767.02,-47.96 1759.68,-37.68 1753.34,-28.8"/>
<polygon fill="#63b8ff" stroke="#63b8ff" points="1756.32,-26.95 1747.67,-20.84 1750.63,-31.01 1756.32,-26.95"/>
</a>
</g>
</g>
<!-- Node22&#45;&gt;Node3 -->
<g id="edge32_Node000022_Node000003" class="edge">
<title>Node22&#45;&gt;Node3</title>
<g id="a_edge32_Node000022_Node000003"><a xlink:title=" ">
<path fill="none" stroke="#63b8ff" d="M261.97,-115.81C269.24,-107.25 280.4,-94.1 289.45,-83.45"/>
<polygon fill="#63b8ff" stroke="#63b8ff" points="291.92,-85.94 295.73,-76.05 286.59,-81.41 291.92,-85.94"/>
</a>
</g>
</g>
<!-- Node22&#45;&gt;Node8 -->
<g id="edge33_Node000022_Node000008" class="edge">
<title>Node22&#45;&gt;Node8</title>
<g id="a_edge33_Node000022_Node000008"><a xlink:title=" ">
<path fill="none" stroke="#63b8ff" d="M253.86,-115.83C253.53,-100.73 255.3,-70.3 273.38,-55.25 311.15,-23.8 655.59,-13.7 765.11,-11.27"/>
<polygon fill="#63b8ff" stroke="#63b8ff" points="764.97,-14.78 774.89,-11.06 764.82,-7.78 764.97,-14.78"/>
</a>
</g>
</g>
<!-- Node22&#45;&gt;Node9 -->
<g id="edge34_Node000022_Node000009" class="edge">
<title>Node22&#45;&gt;Node9</title>
<g id="a_edge34_Node000022_Node000009"><a xlink:title=" ">
<path fill="none" stroke="#63b8ff" d="M243.44,-115.81C232.55,-106.9 215.59,-93.03 202.3,-82.17"/>
<polygon fill="#63b8ff" stroke="#63b8ff" points="204.54,-79.48 194.58,-75.86 200.11,-84.9 204.54,-79.48"/>
</a>
</g>
</g>
<!-- Node23&#45;&gt;Node3 -->
<g id="edge36_Node000023_Node000003" class="edge">
<title>Node23&#45;&gt;Node3</title>
<g id="a_edge36_Node000023_Node000003"><a xlink:title=" ">
<path fill="none" stroke="#63b8ff" d="M845.59,-123.42C751.86,-120.09 531.33,-109.16 337.53,-74.54"/>
<polygon fill="#63b8ff" stroke="#63b8ff" points="338.23,-71.11 327.77,-72.77 336.98,-78 338.23,-71.11"/>
</a>
</g>
</g>
<!-- Node23&#45;&gt;Node4 -->
<g id="edge38_Node000023_Node000004" class="edge">
<title>Node23&#45;&gt;Node4</title>
<g id="a_edge38_Node000023_Node000004"><a xlink:title=" ">
<path fill="none" stroke="#63b8ff" d="M851.17,-115.68C802.71,-104.75 721.69,-86.47 672.43,-75.36"/>
<polygon fill="#63b8ff" stroke="#63b8ff" points="673.23,-71.95 662.71,-73.17 671.69,-78.78 673.23,-71.95"/>
</a>
</g>
</g>
<!-- Node23&#45;&gt;Node5 -->
<g id="edge40_Node000023_Node000005" class="edge">
<title>Node23&#45;&gt;Node5</title>
<g id="a_edge40_Node000023_Node000005"><a xlink:title=" ">
<path fill="none" stroke="#63b8ff" d="M849.59,-115.68C812.02,-106.96 755.65,-92.47 708.38,-74.5 690.31,-67.63 687.92,-60.7 669.38,-55.25 542.96,-18.09 385.18,-11.58 314.56,-10.64"/>
<polygon fill="#63b8ff" stroke="#63b8ff" points="314.75,-7.14 304.71,-10.54 314.68,-14.14 314.75,-7.14"/>
</a>
</g>
</g>
<!-- Node23&#45;&gt;Node6 -->
<g id="edge42_Node000023_Node000006" class="edge">
<title>Node23&#45;&gt;Node6</title>
<g id="a_edge42_Node000023_Node000006"><a xlink:title=" ">
<path fill="none" stroke="#63b8ff" d="M936.76,-115.64C981.45,-106.38 1051.53,-91.06 1111.38,-74.5 1137.96,-67.14 1143.41,-61.08 1170.38,-55.25 1306.68,-25.79 1473.36,-15.2 1541.78,-11.92"/>
<polygon fill="#63b8ff" stroke="#63b8ff" points="1541.67,-15.43 1551.5,-11.47 1541.35,-8.44 1541.67,-15.43"/>
</a>
</g>
</g>
<!-- Node23&#45;&gt;Node8 -->
<g id="edge44_Node000023_Node000008" class="edge">
<title>Node23&#45;&gt;Node8</title>
<g id="a_edge44_Node000023_Node000008"><a xlink:title=" ">
<path fill="none" stroke="#63b8ff" d="M937.34,-123.78C1009.97,-120.68 1138.6,-107.83 1093.38,-55.25 1059.85,-16.27 900.93,-10.91 831.25,-10.47"/>
<polygon fill="#63b8ff" stroke="#63b8ff" points="831.62,-6.97 821.6,-10.44 831.59,-13.97 831.62,-6.97"/>
</a>
</g>
</g>
<!-- Node23&#45;&gt;Node13 -->
<g id="edge45_Node000023_Node000013" class="edge">
<title>Node23&#45;&gt;Node13</title>
<g id="a_edge45_Node000023_Node000013"><a xlink:title=" ">
<path fill="none" stroke="#63b8ff" d="M845.4,-117.55C788.54,-108.54 688.51,-92.35 593.37,-75"/>
<polygon fill="#63b8ff" stroke="#63b8ff" points="594.05,-71.57 583.58,-73.21 592.78,-78.46 594.05,-71.57"/>
</a>
</g>
</g>
<!-- Node23&#45;&gt;Node16 -->
<g id="edge39_Node000023_Node000016" class="edge">
<title>Node23&#45;&gt;Node16</title>
<g id="a_edge39_Node000023_Node000016"><a xlink:title=" ">
<path fill="none" stroke="#63b8ff" d="M937.36,-116.8C991.7,-107.29 1084.79,-90.62 1164.38,-74.5 1165.39,-74.3 1166.41,-74.09 1167.45,-73.87"/>
<polygon fill="#63b8ff" stroke="#63b8ff" points="1168.11,-77.31 1177.17,-71.8 1166.66,-70.46 1168.11,-77.31"/>
</a>
</g>
</g>
<!-- Node23&#45;&gt;Node18 -->
<g id="edge47_Node000023_Node000018" class="edge">
<title>Node23&#45;&gt;Node18</title>
<g id="a_edge47_Node000023_Node000018"><a xlink:title=" ">
<path fill="none" stroke="#63b8ff" d="M937.23,-119.53C1001.57,-111.9 1122.47,-96.4 1234.52,-74.9"/>
<polygon fill="#63b8ff" stroke="#63b8ff" points="1235.05,-78.37 1244.2,-73.03 1233.71,-71.5 1235.05,-78.37"/>
</a>
</g>
</g>
<!-- Node24 -->
<g id="Node000024" class="node">
<title>Node24</title>
<g id="a_Node000024"><a xlink:title=" ">
<polygon fill="#e0e0e0" stroke="#999999" points="765.5,-74.5 717.25,-74.5 717.25,-55.25 765.5,-55.25 765.5,-74.5"/>
<text xml:space="preserve" text-anchor="middle" x="741.38" y="-61" font-family="Helvetica,sans-Serif" font-size="10.00">cstddef</text>
</a>
</g>
</g>
<!-- Node23&#45;&gt;Node24 -->
<g id="edge37_Node000023_Node000024" class="edge">
<title>Node23&#45;&gt;Node24</title>
<g id="a_edge37_Node000023_Node000024"><a xlink:title=" ">
<path fill="none" stroke="#63b8ff" d="M868.27,-115.68C843.31,-105.88 803.32,-90.19 774.9,-79.04"/>
<polygon fill="#63b8ff" stroke="#63b8ff" points="776.26,-75.81 765.67,-75.41 773.7,-82.32 776.26,-75.81"/>
</a>
</g>
</g>
<!-- Node25 -->
<g id="Node000025" class="node">
<title>Node25</title>
<g id="a_Node000025"><a xlink:title=" ">
<polygon fill="#e0e0e0" stroke="#999999" points="842.75,-74.5 784,-74.5 784,-55.25 842.75,-55.25 842.75,-74.5"/>
<text xml:space="preserve" text-anchor="middle" x="813.38" y="-61" font-family="Helvetica,sans-Serif" font-size="10.00">stdexcept</text>
</a>
</g>
</g>
<!-- Node23&#45;&gt;Node25 -->
<g id="edge41_Node000023_Node000025" class="edge">
<title>Node23&#45;&gt;Node25</title>
<g id="a_edge41_Node000023_Node000025"><a xlink:title=" ">
<path fill="none" stroke="#63b8ff" d="M879.53,-115.81C867.5,-106.73 848.64,-92.49 834.13,-81.54"/>
<polygon fill="#63b8ff" stroke="#63b8ff" points="836.63,-79.04 826.54,-75.81 832.41,-84.63 836.63,-79.04"/>
</a>
</g>
</g>
<!-- Node26 -->
<g id="Node000026" class="node">
<title>Node26</title>
<g id="a_Node000026"><a xlink:title=" ">
<polygon fill="#e0e0e0" stroke="#999999" points="922.25,-74.5 860.5,-74.5 860.5,-55.25 922.25,-55.25 922.25,-74.5"/>
<text xml:space="preserve" text-anchor="middle" x="891.38" y="-61" font-family="Helvetica,sans-Serif" font-size="10.00">type_traits</text>
</a>
</g>
</g>
<!-- Node23&#45;&gt;Node26 -->
<g id="edge43_Node000023_Node000026" class="edge">
<title>Node23&#45;&gt;Node26</title>
<g id="a_edge43_Node000023_Node000026"><a xlink:title=" ">
<path fill="none" stroke="#63b8ff" d="M891.38,-115.81C891.38,-108.03 891.38,-96.45 891.38,-86.41"/>
<polygon fill="#63b8ff" stroke="#63b8ff" points="894.88,-86.41 891.38,-76.41 887.88,-86.41 894.88,-86.41"/>
</a>
</g>
</g>
<!-- Node27 -->
<g id="Node000027" class="node">
<title>Node27</title>
<g id="a_Node000027"><a xlink:title=" ">
<polygon fill="#e0e0e0" stroke="#999999" points="1084.12,-74.5 940.62,-74.5 940.62,-55.25 1084.12,-55.25 1084.12,-74.5"/>
<text xml:space="preserve" text-anchor="middle" x="1012.38" y="-61" font-family="Helvetica,sans-Serif" font-size="10.00">glm/gtc/matrix_transform.hpp</text>
</a>
</g>
</g>
<!-- Node23&#45;&gt;Node27 -->
<g id="edge46_Node000023_Node000027" class="edge">
<title>Node23&#45;&gt;Node27</title>
<g id="a_edge46_Node000023_Node000027"><a xlink:title=" ">
<path fill="none" stroke="#63b8ff" d="M910.02,-115.68C929.7,-106.1 960.99,-90.88 983.79,-79.78"/>
<polygon fill="#63b8ff" stroke="#63b8ff" points="985.09,-83.04 992.55,-75.52 982.03,-76.75 985.09,-83.04"/>
</a>
</g>
</g>
<!-- Node28&#45;&gt;Node6 -->
<g id="edge49_Node000028_Node000006" class="edge">
<title>Node28&#45;&gt;Node6</title>
<g id="a_edge49_Node000028_Node000006"><a xlink:title=" ">
<path fill="none" stroke="#63b8ff" d="M1592.75,-115.82C1604.03,-102.66 1621.78,-77.23 1613.38,-55.25 1609.28,-44.55 1601.3,-34.79 1593.54,-27.15"/>
<polygon fill="#63b8ff" stroke="#63b8ff" points="1596.27,-24.9 1586.52,-20.76 1591.56,-30.08 1596.27,-24.9"/>
</a>
</g>
</g>
<!-- Node28&#45;&gt;Node8 -->
<g id="edge50_Node000028_Node000008" class="edge">
<title>Node28&#45;&gt;Node8</title>
<g id="a_edge50_Node000028_Node000008"><a xlink:title=" ">
<path fill="none" stroke="#63b8ff" d="M1577.61,-115.92C1565.12,-100.37 1536.72,-68.51 1504.38,-55.25 1441.7,-29.55 962.74,-15 831.52,-11.47"/>
<polygon fill="#63b8ff" stroke="#63b8ff" points="831.88,-7.98 821.79,-11.22 831.69,-14.98 831.88,-7.98"/>
</a>
</g>
</g>
<!-- Node28&#45;&gt;Node19 -->
<g id="edge51_Node000028_Node000019" class="edge">
<title>Node28&#45;&gt;Node19</title>
<g id="a_edge51_Node000028_Node000019"><a xlink:title=" ">
<path fill="none" stroke="#63b8ff" d="M1614.26,-115.68C1647.3,-105.65 1700.71,-89.44 1737.58,-78.25"/>
<polygon fill="#63b8ff" stroke="#63b8ff" points="1738.45,-81.65 1747.01,-75.4 1736.42,-74.95 1738.45,-81.65"/>
</a>
</g>
</g>
<!-- Node28&#45;&gt;Node21 -->
<g id="edge52_Node000028_Node000021" class="edge">
<title>Node28&#45;&gt;Node21</title>
<g id="a_edge52_Node000028_Node000021"><a xlink:title=" ">
<path fill="none" stroke="#63b8ff" d="M1600.32,-115.81C1617.05,-106.43 1643.61,-91.54 1663.38,-80.45"/>
<polygon fill="#63b8ff" stroke="#63b8ff" points="1664.95,-83.58 1671.96,-75.64 1661.52,-77.48 1664.95,-83.58"/>
</a>
</g>
</g>
<!-- Node29&#45;&gt;Node19 -->
<g id="edge54_Node000029_Node000019" class="edge">
<title>Node29&#45;&gt;Node19</title>
<g id="a_edge54_Node000029_Node000019"><a xlink:title=" ">
<path fill="none" stroke="#63b8ff" d="M1741.06,-115.81C1747.32,-107.42 1756.88,-94.63 1764.76,-84.09"/>
<polygon fill="#63b8ff" stroke="#63b8ff" points="1767.54,-86.22 1770.72,-76.11 1761.93,-82.03 1767.54,-86.22"/>
</a>
</g>
</g>
<!-- Node29&#45;&gt;Node21 -->
<g id="edge55_Node000029_Node000021" class="edge">
<title>Node29&#45;&gt;Node21</title>
<g id="a_edge55_Node000029_Node000021"><a xlink:title=" ">
<path fill="none" stroke="#63b8ff" d="M1727.54,-115.81C1721.06,-107.34 1711.15,-94.37 1703.05,-83.77"/>
<polygon fill="#63b8ff" stroke="#63b8ff" points="1706.05,-81.92 1697.19,-76.1 1700.48,-86.17 1706.05,-81.92"/>
</a>
</g>
</g>
</g>
</svg>
