<?xml version="1.0" encoding="UTF-8" standalone="no"?>
<!DOCTYPE svg PUBLIC "-//W3C//DTD SVG 1.1//EN"
 "http://www.w3.org/Graphics/SVG/1.1/DTD/svg11.dtd">
<!-- Generated by graphviz version 15.0.0 (20260523.1842)
 -->
<!-- Title: source/src/FirstPersonController.hpp Pages: 1 -->
<svg width="482pt" height="138pt"
 viewBox="0.00 0.00 482.00 138.00" xmlns="http://www.w3.org/2000/svg" xmlns:xlink="http://www.w3.org/1999/xlink">
<g id="graph0" class="graph" transform="scale(1 1) rotate(0) translate(4 133.75)">
<title>source/src/FirstPersonController.hpp</title>
<!-- Node1 -->
<g id="Node000001" class="node">
<title>Node1</title>
<g id="a_Node000001"><a xlink:title="First&#45;person camera controller: mouse&#45;look, WASD movement, jumping and sliding wall collisions.">
<polygon fill="#999999" stroke="#666666" points="175,-129.75 0,-129.75 0,-110.5 175,-110.5 175,-129.75"/>
<text xml:space="preserve" text-anchor="middle" x="87.5" y="-116.25" font-family="Helvetica,sans-Serif" font-size="10.00">source/src/FirstPersonController.hpp</text>
</a>
</g>
</g>
<!-- Node2 -->
<g id="Node000002" class="node">
<title>Node2</title>
<g id="a_Node000002"><a xlink:title=" ">
<polygon fill="#e0e0e0" stroke="#999999" points="59,-74.5 16,-74.5 16,-55.25 59,-55.25 59,-74.5"/>
<text xml:space="preserve" text-anchor="middle" x="37.5" y="-61" font-family="Helvetica,sans-Serif" font-size="10.00">cmath</text>
</a>
</g>
</g>
<!-- Node1&#45;&gt;Node2 -->
<g id="edge1_Node000001_Node000002" class="edge">
<title>Node1&#45;&gt;Node2</title>
<g id="a_edge1_Node000001_Node000002"><a xlink:title=" ">
<path fill="none" stroke="#63b8ff" d="M79.24,-110.33C72.34,-102.98 62.28,-92.26 53.76,-83.19"/>
<polygon fill="#63b8ff" stroke="#63b8ff" points="56.37,-80.86 46.97,-75.96 51.27,-85.65 56.37,-80.86"/>
</a>
</g>
</g>
<!-- Node3 -->
<g id="Node000003" class="node">
<title>Node3</title>
<g id="a_Node000003"><a xlink:title=" ">
<polygon fill="#e0e0e0" stroke="#999999" points="94,-19.25 51,-19.25 51,0 94,0 94,-19.25"/>
<text xml:space="preserve" text-anchor="middle" x="72.5" y="-5.75" font-family="Helvetica,sans-Serif" font-size="10.00">vector</text>
</a>
</g>
</g>
<!-- Node1&#45;&gt;Node3 -->
<g id="edge2_Node000001_Node000003" class="edge">
<title>Node1&#45;&gt;Node3</title>
<g id="a_edge2_Node000001_Node000003"><a xlink:title=" ">
<path fill="none" stroke="#63b8ff" d="M86.27,-110.25C83.89,-93 78.58,-54.58 75.29,-30.81"/>
<polygon fill="#63b8ff" stroke="#63b8ff" points="78.79,-30.55 73.95,-21.13 71.85,-31.51 78.79,-30.55"/>
</a>
</g>
</g>
<!-- Node4 -->
<g id="Node000004" class="node">
<title>Node4</title>
<g id="a_Node000004"><a xlink:href="_scene_types_8hpp.html" target="_top" xlink:title="Core data model shared across the app: light/uniform GPU structs and the per&#45;object SceneObject (rend...">
<polygon fill="white" stroke="#666666" points="231.88,-74.5 143.12,-74.5 143.12,-55.25 231.88,-55.25 231.88,-74.5"/>
<text xml:space="preserve" text-anchor="middle" x="187.5" y="-61" font-family="Helvetica,sans-Serif" font-size="10.00">SceneTypes.hpp</text>
</a>
</g>
</g>
<!-- Node1&#45;&gt;Node4 -->
<g id="edge3_Node000001_Node000004" class="edge">
<title>Node1&#45;&gt;Node4</title>
<g id="a_edge3_Node000001_Node000004"><a xlink:title=" ">
<path fill="none" stroke="#63b8ff" d="M104.46,-110.09C119.76,-101.94 142.53,-89.82 160.36,-80.33"/>
<polygon fill="#63b8ff" stroke="#63b8ff" points="161.94,-83.45 169.12,-75.66 158.65,-77.27 161.94,-83.45"/>
</a>
</g>
</g>
<!-- Node4&#45;&gt;Node3 -->
<g id="edge6_Node000004_Node000003" class="edge">
<title>Node4&#45;&gt;Node3</title>
<g id="a_edge6_Node000004_Node000003"><a xlink:title=" ">
<path fill="none" stroke="#63b8ff" d="M167.99,-54.84C149.98,-46.5 122.98,-34 102.27,-24.41"/>
<polygon fill="#63b8ff" stroke="#63b8ff" points="104.02,-21.36 93.48,-20.34 101.08,-27.72 104.02,-21.36"/>
</a>
</g>
</g>
<!-- Node5 -->
<g id="Node000005" class="node">
<title>Node5</title>
<g id="a_Node000005"><a xlink:title=" ">
<polygon fill="#e0e0e0" stroke="#999999" points="163.12,-19.25 111.88,-19.25 111.88,0 163.12,0 163.12,-19.25"/>
<text xml:space="preserve" text-anchor="middle" x="137.5" y="-5.75" font-family="Helvetica,sans-Serif" font-size="10.00">memory</text>
</a>
</g>
</g>
<!-- Node4&#45;&gt;Node5 -->
<g id="edge4_Node000004_Node000005" class="edge">
<title>Node4&#45;&gt;Node5</title>
<g id="a_edge4_Node000004_Node000005"><a xlink:title=" ">
<path fill="none" stroke="#63b8ff" d="M179.24,-55.08C172.34,-47.73 162.28,-37.01 153.76,-27.94"/>
<polygon fill="#63b8ff" stroke="#63b8ff" points="156.37,-25.61 146.97,-20.71 151.27,-30.4 156.37,-25.61"/>
</a>
</g>
</g>
<!-- Node6 -->
<g id="Node000006" class="node">
<title>Node6</title>
<g id="a_Node000006"><a xlink:title=" ">
<polygon fill="#e0e0e0" stroke="#999999" points="221.5,-19.25 181.5,-19.25 181.5,0 221.5,0 221.5,-19.25"/>
<text xml:space="preserve" text-anchor="middle" x="201.5" y="-5.75" font-family="Helvetica,sans-Serif" font-size="10.00">string</text>
</a>
</g>
</g>
<!-- Node4&#45;&gt;Node6 -->
<g id="edge5_Node000004_Node000006" class="edge">
<title>Node4&#45;&gt;Node6</title>
<g id="a_edge5_Node000004_Node000006"><a xlink:title=" ">
<path fill="none" stroke="#63b8ff" d="M189.81,-55.08C191.56,-48.42 194.04,-38.99 196.27,-30.53"/>
<polygon fill="#63b8ff" stroke="#63b8ff" points="199.6,-31.63 198.75,-21.07 192.83,-29.85 199.6,-31.63"/>
</a>
</g>
</g>
<!-- Node7 -->
<g id="Node000007" class="node">
<title>Node7</title>
<g id="a_Node000007"><a xlink:title=" ">
<polygon fill="#e0e0e0" stroke="#999999" points="343,-19.25 240,-19.25 240,0 343,0 343,-19.25"/>
<text xml:space="preserve" text-anchor="middle" x="291.5" y="-5.75" font-family="Helvetica,sans-Serif" font-size="10.00">modules/Starter.hpp</text>
</a>
</g>
</g>
<!-- Node4&#45;&gt;Node7 -->
<g id="edge7_Node000004_Node000007" class="edge">
<title>Node4&#45;&gt;Node7</title>
<g id="a_edge7_Node000004_Node000007"><a xlink:title=" ">
<path fill="none" stroke="#63b8ff" d="M205.14,-54.84C221.13,-46.66 244.96,-34.46 263.54,-24.94"/>
<polygon fill="#63b8ff" stroke="#63b8ff" points="265.12,-28.07 272.42,-20.39 261.93,-21.83 265.12,-28.07"/>
</a>
</g>
</g>
<!-- Node8 -->
<g id="Node000008" class="node">
<title>Node8</title>
<g id="a_Node000008"><a xlink:title=" ">
<polygon fill="#e0e0e0" stroke="#999999" points="473.88,-19.25 361.12,-19.25 361.12,0 473.88,0 473.88,-19.25"/>
<text xml:space="preserve" text-anchor="middle" x="417.5" y="-5.75" font-family="Helvetica,sans-Serif" font-size="10.00">modules/Colliders.hpp</text>
</a>
</g>
</g>
<!-- Node4&#45;&gt;Node8 -->
<g id="edge8_Node000004_Node000008" class="edge">
<title>Node4&#45;&gt;Node8</title>
<g id="a_edge8_Node000004_Node000008"><a xlink:title=" ">
<path fill="none" stroke="#63b8ff" d="M226.78,-54.78C265.56,-45.8 325.03,-32.03 367.24,-22.26"/>
<polygon fill="#63b8ff" stroke="#63b8ff" points="367.96,-25.69 376.91,-20.02 366.38,-18.87 367.96,-25.69"/>
</a>
</g>
</g>
</g>
</svg>
