<?xml version="1.0" encoding="UTF-8" standalone="no"?>
<!DOCTYPE svg PUBLIC "-//W3C//DTD SVG 1.1//EN"
 "http://www.w3.org/Graphics/SVG/1.1/DTD/svg11.dtd">
<!-- Generated by graphviz version 15.0.0 (20260523.1842)
 -->
<!-- Title: source/src/InputBindings.hpp Pages: 1 -->
<svg width="522pt" height="138pt"
 viewBox="0.00 0.00 522.00 138.00" xmlns="http://www.w3.org/2000/svg" xmlns:xlink="http://www.w3.org/1999/xlink">
<g id="graph0" class="graph" transform="scale(1 1) rotate(0) translate(4 133.75)">
<title>source/src/InputBindings.hpp</title>
<!-- Node1 -->
<g id="Node000001" class="node">
<title>Node1</title>
<g id="a_Node000001"><a xlink:title="Single source of truth for keyboard controls and their HUD labels.">
<polygon fill="#999999" stroke="#666666" points="304.12,-129.75 161.38,-129.75 161.38,-110.5 304.12,-110.5 304.12,-129.75"/>
<text xml:space="preserve" text-anchor="middle" x="232.75" y="-116.25" font-family="Helvetica,sans-Serif" font-size="10.00">source/src/InputBindings.hpp</text>
</a>
</g>
</g>
<!-- Node2 -->
<g id="Node000002" class="node">
<title>Node2</title>
<g id="a_Node000002"><a xlink:href="_dialogue_system_8hpp.html" target="_top" xlink:title="Branching NPC dialogue loaded from assets/dialogue/dialogues.json.">
<polygon fill="white" stroke="#666666" points="155.5,-74.5 0,-74.5 0,-55.25 155.5,-55.25 155.5,-74.5"/>
<text xml:space="preserve" text-anchor="middle" x="77.75" y="-61" font-family="Helvetica,sans-Serif" font-size="10.00">source/src/DialogueSystem.hpp</text>
</a>
</g>
</g>
<!-- Node1&#45;&gt;Node2 -->
<g id="edge1_Node000001_Node000002" class="edge">
<title>Node1&#45;&gt;Node2</title>
<g id="a_edge1_Node000001_Node000002"><a xlink:title=" ">
<path fill="none" stroke="#63b8ff" d="M195.8,-106.43C167.58,-96.74 129.38,-83.61 104.17,-74.95"/>
<polygon fill="#63b8ff" stroke="#63b8ff" points="194.43,-109.66 205.02,-109.6 196.7,-103.04 194.43,-109.66"/>
</a>
</g>
</g>
<!-- Node3 -->
<g id="Node000003" class="node">
<title>Node3</title>
<g id="a_Node000003"><a xlink:href="_dungeon_app_8cpp.html" target="_top" xlink:title="Application entry point and main class: a first&#45;person dungeon tavern with an interactive NPC,...">
<polygon fill="white" stroke="#666666" points="302.62,-19.25 162.88,-19.25 162.88,0 302.62,0 302.62,-19.25"/>
<text xml:space="preserve" text-anchor="middle" x="232.75" y="-5.75" font-family="Helvetica,sans-Serif" font-size="10.00">source/src/DungeonApp.cpp</text>
</a>
</g>
</g>
<!-- Node1&#45;&gt;Node3 -->
<g id="edge3_Node000001_Node000003" class="edge">
<title>Node1&#45;&gt;Node3</title>
<g id="a_edge3_Node000001_Node000003"><a xlink:title=" ">
<path fill="none" stroke="#63b8ff" d="M216.82,-101.84C207.22,-89.28 197.74,-71.69 202.75,-55.25 206.94,-41.5 216.95,-28.14 224.25,-19.68"/>
<polygon fill="#63b8ff" stroke="#63b8ff" points="213.88,-103.77 222.98,-109.19 219.24,-99.28 213.88,-103.77"/>
</a>
</g>
</g>
<!-- Node4 -->
<g id="Node000004" class="node">
<title>Node4</title>
<g id="a_Node000004"><a xlink:href="_shop_system_8hpp.html" target="_top" xlink:title="The merchant&#39;s buy/sell screen and its session&#45;persistent economy.">
<polygon fill="white" stroke="#666666" points="351.62,-74.5 211.88,-74.5 211.88,-55.25 351.62,-55.25 351.62,-74.5"/>
<text xml:space="preserve" text-anchor="middle" x="281.75" y="-61" font-family="Helvetica,sans-Serif" font-size="10.00">source/src/ShopSystem.hpp</text>
</a>
</g>
</g>
<!-- Node1&#45;&gt;Node4 -->
<g id="edge4_Node000001_Node000004" class="edge">
<title>Node1&#45;&gt;Node4</title>
<g id="a_edge4_Node000001_Node000004"><a xlink:title=" ">
<path fill="none" stroke="#63b8ff" d="M248.47,-102.04C256.79,-93 266.66,-82.27 273.48,-74.86"/>
<polygon fill="#63b8ff" stroke="#63b8ff" points="246.06,-99.49 241.87,-109.22 251.21,-104.23 246.06,-99.49"/>
</a>
</g>
</g>
<!-- Node5 -->
<g id="Node000005" class="node">
<title>Node5</title>
<g id="a_Node000005"><a xlink:href="_splash_screen_8hpp.html" target="_top" xlink:title="Start/pause menu (Start, Controls, Quit) drawn over the live scene.">
<polygon fill="white" stroke="#666666" points="513.88,-74.5 369.62,-74.5 369.62,-55.25 513.88,-55.25 513.88,-74.5"/>
<text xml:space="preserve" text-anchor="middle" x="441.75" y="-61" font-family="Helvetica,sans-Serif" font-size="10.00">source/src/SplashScreen.hpp</text>
</a>
</g>
</g>
<!-- Node1&#45;&gt;Node5 -->
<g id="edge6_Node000001_Node000005" class="edge">
<title>Node1&#45;&gt;Node5</title>
<g id="a_edge6_Node000001_Node000005"><a xlink:title=" ">
<path fill="none" stroke="#63b8ff" d="M279.08,-107.32C317.41,-97.55 371.08,-83.88 406.12,-74.95"/>
<polygon fill="#63b8ff" stroke="#63b8ff" points="278.5,-103.86 269.67,-109.72 280.23,-110.64 278.5,-103.86"/>
</a>
</g>
</g>
<!-- Node2&#45;&gt;Node3 -->
<g id="edge2_Node000002_Node000003" class="edge">
<title>Node2&#45;&gt;Node3</title>
<g id="a_edge2_Node000002_Node000003"><a xlink:title=" ">
<path fill="none" stroke="#63b8ff" d="M114.7,-51.18C142.92,-41.49 181.12,-28.36 206.33,-19.7"/>
<polygon fill="#63b8ff" stroke="#63b8ff" points="113.8,-47.79 105.48,-54.35 116.07,-54.41 113.8,-47.79"/>
</a>
</g>
</g>
<!-- Node4&#45;&gt;Node3 -->
<g id="edge5_Node000004_Node000003" class="edge">
<title>Node4&#45;&gt;Node3</title>
<g id="a_edge5_Node000004_Node000003"><a xlink:title=" ">
<path fill="none" stroke="#63b8ff" d="M266.03,-46.79C257.71,-37.75 247.84,-27.02 241.02,-19.61"/>
<polygon fill="#63b8ff" stroke="#63b8ff" points="263.29,-48.98 272.63,-53.97 268.44,-44.24 263.29,-48.98"/>
</a>
</g>
</g>
<!-- Node5&#45;&gt;Node3 -->
<g id="edge7_Node000005_Node000003" class="edge">
<title>Node5&#45;&gt;Node3</title>
<g id="a_edge7_Node000005_Node000003"><a xlink:title=" ">
<path fill="none" stroke="#63b8ff" d="M395.42,-52.07C357.09,-42.3 303.42,-28.63 268.38,-19.7"/>
<polygon fill="#63b8ff" stroke="#63b8ff" points="394.27,-55.39 404.83,-54.47 396,-48.61 394.27,-55.39"/>
</a>
</g>
</g>
</g>
</svg>
