<?xml version="1.0" encoding="UTF-8" standalone="no"?>
<!DOCTYPE svg PUBLIC "-//W3C//DTD SVG 1.1//EN"
 "http://www.w3.org/Graphics/SVG/1.1/DTD/svg11.dtd">
<!-- Generated by graphviz version 15.0.0 (20260523.1842)
 -->
<!-- Title: source/src/SceneTypes.hpp Pages: 1 -->
<svg width="431pt" height="83pt"
 viewBox="0.00 0.00 431.00 83.00" xmlns="http://www.w3.org/2000/svg" xmlns:xlink="http://www.w3.org/1999/xlink">

<svg id="main" version="1.1" xmlns="http://www.w3.org/2000/svg" xmlns:xlink="http://www.w3.org/1999/xlink" xml:space="preserve">

<style type="text/css"><![CDATA[
.node, .edge {opacity: 0.7;}
.node.selected, .edge.selected {opacity: 1;}
.edge:hover path { stroke: red; }
.edge:hover polygon { stroke: red; fill: red; }
]]></style>
<script type="application/ecmascript" xlink:href="svg.min.js"/>
<svg id="graph" class="graph">
<g id="graph0" class="graph" transform="scale(1 1) rotate(0) translate(4 78.5)">
<title>source/src/SceneTypes.hpp</title>
<!-- Node1 -->
<g id="Node000001" class="node">
<title>Node1</title>
<g id="a_Node000001"><a xlink:title="Core data model shared across the app: light/uniform GPU structs and the per&#45;object SceneObject (rend...">
<polygon fill="#999999" stroke="#666666" points="218.38,-74.5 80.88,-74.5 80.88,-55.25 218.38,-55.25 218.38,-74.5"/>
<text xml:space="preserve" text-anchor="middle" x="149.62" y="-61" font-family="Helvetica,sans-Serif" font-size="10.00">source/src/SceneTypes.hpp</text>
</a>
</g>
</g>
<!-- Node2 -->
<g id="Node000002" class="node">
<title>Node2</title>
<g id="a_Node000002"><a xlink:title=" ">
<polygon fill="#e0e0e0" stroke="#999999" points="51.25,-19.25 0,-19.25 0,0 51.25,0 51.25,-19.25"/>
<text xml:space="preserve" text-anchor="middle" x="25.62" y="-5.75" font-family="Helvetica,sans-Serif" font-size="10.00">memory</text>
</a>
</g>
</g>
<!-- Node1&#45;&gt;Node2 -->
<g id="edge1_Node000001_Node000002" class="edge">
<title>Node1&#45;&gt;Node2</title>
<g id="a_edge1_Node000001_Node000002"><a xlink:title=" ">
<path fill="none" stroke="#63b8ff" d="M128.59,-54.84C108.99,-46.43 79.52,-33.77 57.12,-24.15"/>
<polygon fill="#63b8ff" stroke="#63b8ff" points="58.72,-21.03 48.15,-20.3 55.96,-27.46 58.72,-21.03"/>
</a>
</g>
</g>
<!-- Node3 -->
<g id="Node000003" class="node">
<title>Node3</title>
<g id="a_Node000003"><a xlink:title=" ">
<polygon fill="#e0e0e0" stroke="#999999" points="109.62,-19.25 69.62,-19.25 69.62,0 109.62,0 109.62,-19.25"/>
<text xml:space="preserve" text-anchor="middle" x="89.62" y="-5.75" font-family="Helvetica,sans-Serif" font-size="10.00">string</text>
</a>
</g>
</g>
<!-- Node1&#45;&gt;Node3 -->
<g id="edge2_Node000001_Node000003" class="edge">
<title>Node1&#45;&gt;Node3</title>
<g id="a_edge2_Node000001_Node000003"><a xlink:title=" ">
<path fill="none" stroke="#63b8ff" d="M139.45,-54.84C130.86,-47.22 118.36,-36.12 108.02,-26.95"/>
<polygon fill="#63b8ff" stroke="#63b8ff" points="110.59,-24.55 100.78,-20.53 105.94,-29.79 110.59,-24.55"/>
</a>
</g>
</g>
<!-- Node4 -->
<g id="Node000004" class="node">
<title>Node4</title>
<g id="a_Node000004"><a xlink:title=" ">
<polygon fill="#e0e0e0" stroke="#999999" points="171.12,-19.25 128.12,-19.25 128.12,0 171.12,0 171.12,-19.25"/>
<text xml:space="preserve" text-anchor="middle" x="149.62" y="-5.75" font-family="Helvetica,sans-Serif" font-size="10.00">vector</text>
</a>
</g>
</g>
<!-- Node1&#45;&gt;Node4 -->
<g id="edge3_Node000001_Node000004" class="edge">
<title>Node1&#45;&gt;Node4</title>
<g id="a_edge3_Node000001_Node000004"><a xlink:title=" ">
<path fill="none" stroke="#63b8ff" d="M149.62,-55.08C149.62,-48.57 149.62,-39.42 149.62,-31.12"/>
<polygon fill="#63b8ff" stroke="#63b8ff" points="153.13,-31.12 149.63,-21.12 146.13,-31.12 153.13,-31.12"/>
</a>
</g>
</g>
<!-- Node5 -->
<g id="Node000005" class="node">
<title>Node5</title>
<g id="a_Node000005"><a xlink:title=" ">
<polygon fill="#e0e0e0" stroke="#999999" points="292.12,-19.25 189.12,-19.25 189.12,0 292.12,0 292.12,-19.25"/>
<text xml:space="preserve" text-anchor="middle" x="240.62" y="-5.75" font-family="Helvetica,sans-Serif" font-size="10.00">modules/Starter.hpp</text>
</a>
</g>
</g>
<!-- Node1&#45;&gt;Node5 -->
<g id="edge4_Node000001_Node000005" class="edge">
<title>Node1&#45;&gt;Node5</title>
<g id="a_edge4_Node000001_Node000005"><a xlink:title=" ">
<path fill="none" stroke="#63b8ff" d="M165.06,-54.84C178.79,-46.81 199.12,-34.91 215.24,-25.48"/>
<polygon fill="#63b8ff" stroke="#63b8ff" points="216.94,-28.54 223.81,-20.47 213.41,-22.5 216.94,-28.54"/>
</a>
</g>
</g>
<!-- Node6 -->
<g id="Node000006" class="node">
<title>Node6</title>
<g id="a_Node000006"><a xlink:title=" ">
<polygon fill="#e0e0e0" stroke="#999999" points="423,-19.25 310.25,-19.25 310.25,0 423,0 423,-19.25"/>
<text xml:space="preserve" text-anchor="middle" x="366.62" y="-5.75" font-family="Helvetica,sans-Serif" font-size="10.00">modules/Colliders.hpp</text>
</a>
</g>
</g>
<!-- Node1&#45;&gt;Node6 -->
<g id="edge5_Node000001_Node000006" class="edge">
<title>Node1&#45;&gt;Node6</title>
<g id="a_edge5_Node000001_Node000006"><a xlink:title=" ">
<path fill="none" stroke="#63b8ff" d="M186.44,-54.84C222.83,-45.91 278.71,-32.2 318.58,-22.41"/>
<polygon fill="#63b8ff" stroke="#63b8ff" points="319.29,-25.85 328.16,-20.06 317.62,-19.05 319.29,-25.85"/>
</a>
</g>
</g>
</g>
</svg>
</svg>

<style type='text/css'>
<![CDATA[
[data-mouse-over-selected='false'] { opacity: 0.7; }
[data-mouse-over-selected='true']  { opacity: 1.0; }
]]>
</style>
<script type="application/ecmascript"><![CDATA[
document.addEventListener('DOMContentLoaded', (event) => {
  highlightEdges();
  highlightAdjacentNodes();
});
]]></script>
</svg>
