<?xml version="1.0" encoding="UTF-8" standalone="no"?>
<!DOCTYPE svg PUBLIC "-//W3C//DTD SVG 1.1//EN"
 "http://www.w3.org/Graphics/SVG/1.1/DTD/svg11.dtd">
<!-- Generated by graphviz version 15.0.0 (20260523.1842)
 -->
<!-- Title: source/src/SceneLoader.hpp Pages: 1 -->
<svg width="927pt" height="83pt"
 viewBox="0.00 0.00 927.00 83.00" xmlns="http://www.w3.org/2000/svg" xmlns:xlink="http://www.w3.org/1999/xlink">
<g id="graph0" class="graph" transform="scale(1 1) rotate(0) translate(4 78.5)">
<title>source/src/SceneLoader.hpp</title>
<!-- Node1 -->
<g id="Node000001" class="node">
<title>Node1</title>
<g id="a_Node000001"><a xlink:title="Loads scene.json into the app&#39;s SceneObject list (meshes, colliders, flames/lights,...">
<polygon fill="#999999" stroke="#666666" points="475.38,-74.5 335.62,-74.5 335.62,-55.25 475.38,-55.25 475.38,-74.5"/>
<text xml:space="preserve" text-anchor="middle" x="405.5" y="-61" font-family="Helvetica,sans-Serif" font-size="10.00">source/src/SceneLoader.hpp</text>
</a>
</g>
</g>
<!-- Node2 -->
<g id="Node000002" class="node">
<title>Node2</title>
<g id="a_Node000002"><a xlink:title=" ">
<polygon fill="#e0e0e0" stroke="#999999" points="43,-19.25 0,-19.25 0,0 43,0 43,-19.25"/>
<text xml:space="preserve" text-anchor="middle" x="21.5" y="-5.75" font-family="Helvetica,sans-Serif" font-size="10.00">cmath</text>
</a>
</g>
</g>
<!-- Node1&#45;&gt;Node2 -->
<g id="edge1_Node000001_Node000002" class="edge">
<title>Node1&#45;&gt;Node2</title>
<g id="a_edge1_Node000001_Node000002"><a xlink:title=" ">
<path fill="none" stroke="#63b8ff" d="M335.36,-58.04C266.29,-51.62 157.67,-39.68 54.66,-19.4"/>
<polygon fill="#63b8ff" stroke="#63b8ff" points="55.4,-15.98 44.9,-17.45 54.02,-22.84 55.4,-15.98"/>
</a>
</g>
</g>
<!-- Node3 -->
<g id="Node000003" class="node">
<title>Node3</title>
<g id="a_Node000003"><a xlink:title=" ">
<polygon fill="#e0e0e0" stroke="#999999" points="109.62,-19.25 61.38,-19.25 61.38,0 109.62,0 109.62,-19.25"/>
<text xml:space="preserve" text-anchor="middle" x="85.5" y="-5.75" font-family="Helvetica,sans-Serif" font-size="10.00">cstddef</text>
</a>
</g>
</g>
<!-- Node1&#45;&gt;Node3 -->
<g id="edge2_Node000001_Node000003" class="edge">
<title>Node1&#45;&gt;Node3</title>
<g id="a_edge2_Node000001_Node000003"><a xlink:title=" ">
<path fill="none" stroke="#63b8ff" d="M335.26,-54.98C279.55,-47.46 199.52,-35.64 121.01,-19.6"/>
<polygon fill="#63b8ff" stroke="#63b8ff" points="121.93,-16.22 111.43,-17.62 120.51,-23.07 121.93,-16.22"/>
</a>
</g>
</g>
<!-- Node4 -->
<g id="Node000004" class="node">
<title>Node4</title>
<g id="a_Node000004"><a xlink:title=" ">
<polygon fill="#e0e0e0" stroke="#999999" points="189,-19.25 128,-19.25 128,0 189,0 189,-19.25"/>
<text xml:space="preserve" text-anchor="middle" x="158.5" y="-5.75" font-family="Helvetica,sans-Serif" font-size="10.00">filesystem</text>
</a>
</g>
</g>
<!-- Node1&#45;&gt;Node4 -->
<g id="edge3_Node000001_Node000004" class="edge">
<title>Node1&#45;&gt;Node4</title>
<g id="a_edge3_Node000001_Node000004"><a xlink:title=" ">
<path fill="none" stroke="#63b8ff" d="M362.86,-54.81C323.18,-46.36 262.11,-33.3 200.29,-19.85"/>
<polygon fill="#63b8ff" stroke="#63b8ff" points="201.15,-16.45 190.63,-17.75 199.66,-23.29 201.15,-16.45"/>
</a>
</g>
</g>
<!-- Node5 -->
<g id="Node000005" class="node">
<title>Node5</title>
<g id="a_Node000005"><a xlink:title=" ">
<polygon fill="#e0e0e0" stroke="#999999" points="256,-19.25 207,-19.25 207,0 256,0 256,-19.25"/>
<text xml:space="preserve" text-anchor="middle" x="231.5" y="-5.75" font-family="Helvetica,sans-Serif" font-size="10.00">fstream</text>
</a>
</g>
</g>
<!-- Node1&#45;&gt;Node5 -->
<g id="edge4_Node000001_Node000005" class="edge">
<title>Node1&#45;&gt;Node5</title>
<g id="a_edge4_Node000001_Node000005"><a xlink:title=" ">
<path fill="none" stroke="#63b8ff" d="M375.98,-54.84C345.89,-45.63 299.18,-31.34 267.06,-21.51"/>
<polygon fill="#63b8ff" stroke="#63b8ff" points="268.4,-18.26 257.81,-18.68 266.35,-24.95 268.4,-18.26"/>
</a>
</g>
</g>
<!-- Node6 -->
<g id="Node000006" class="node">
<title>Node6</title>
<g id="a_Node000006"><a xlink:title=" ">
<polygon fill="#e0e0e0" stroke="#999999" points="325.12,-19.25 273.88,-19.25 273.88,0 325.12,0 325.12,-19.25"/>
<text xml:space="preserve" text-anchor="middle" x="299.5" y="-5.75" font-family="Helvetica,sans-Serif" font-size="10.00">memory</text>
</a>
</g>
</g>
<!-- Node1&#45;&gt;Node6 -->
<g id="edge5_Node000001_Node000006" class="edge">
<title>Node1&#45;&gt;Node6</title>
<g id="a_edge5_Node000001_Node000006"><a xlink:title=" ">
<path fill="none" stroke="#63b8ff" d="M387.52,-54.84C371.15,-46.62 346.71,-34.34 327.74,-24.81"/>
<polygon fill="#63b8ff" stroke="#63b8ff" points="329.43,-21.74 318.92,-20.38 326.29,-28 329.43,-21.74"/>
</a>
</g>
</g>
<!-- Node7 -->
<g id="Node000007" class="node">
<title>Node7</title>
<g id="a_Node000007"><a xlink:title=" ">
<polygon fill="#e0e0e0" stroke="#999999" points="401.88,-19.25 343.12,-19.25 343.12,0 401.88,0 401.88,-19.25"/>
<text xml:space="preserve" text-anchor="middle" x="372.5" y="-5.75" font-family="Helvetica,sans-Serif" font-size="10.00">stdexcept</text>
</a>
</g>
</g>
<!-- Node1&#45;&gt;Node7 -->
<g id="edge6_Node000001_Node000007" class="edge">
<title>Node1&#45;&gt;Node7</title>
<g id="a_edge6_Node000001_Node000007"><a xlink:title=" ">
<path fill="none" stroke="#63b8ff" d="M400.05,-55.08C395.73,-48.11 389.54,-38.12 384.12,-29.37"/>
<polygon fill="#63b8ff" stroke="#63b8ff" points="387.11,-27.55 378.86,-20.9 381.16,-31.24 387.11,-27.55"/>
</a>
</g>
</g>
<!-- Node8 -->
<g id="Node000008" class="node">
<title>Node8</title>
<g id="a_Node000008"><a xlink:title=" ">
<polygon fill="#e0e0e0" stroke="#999999" points="459.5,-19.25 419.5,-19.25 419.5,0 459.5,0 459.5,-19.25"/>
<text xml:space="preserve" text-anchor="middle" x="439.5" y="-5.75" font-family="Helvetica,sans-Serif" font-size="10.00">string</text>
</a>
</g>
</g>
<!-- Node1&#45;&gt;Node8 -->
<g id="edge7_Node000001_Node000008" class="edge">
<title>Node1&#45;&gt;Node8</title>
<g id="a_edge7_Node000001_Node000008"><a xlink:title=" ">
<path fill="none" stroke="#63b8ff" d="M411.11,-55.08C415.62,-48.03 422.09,-37.9 427.71,-29.08"/>
<polygon fill="#63b8ff" stroke="#63b8ff" points="430.52,-31.2 432.95,-20.88 424.62,-27.43 430.52,-31.2"/>
</a>
</g>
</g>
<!-- Node9 -->
<g id="Node000009" class="node">
<title>Node9</title>
<g id="a_Node000009"><a xlink:title=" ">
<polygon fill="#e0e0e0" stroke="#999999" points="539.38,-19.25 477.62,-19.25 477.62,0 539.38,0 539.38,-19.25"/>
<text xml:space="preserve" text-anchor="middle" x="508.5" y="-5.75" font-family="Helvetica,sans-Serif" font-size="10.00">type_traits</text>
</a>
</g>
</g>
<!-- Node1&#45;&gt;Node9 -->
<g id="edge8_Node000001_Node000009" class="edge">
<title>Node1&#45;&gt;Node9</title>
<g id="a_edge8_Node000001_Node000009"><a xlink:title=" ">
<path fill="none" stroke="#63b8ff" d="M422.97,-54.84C438.81,-46.66 462.41,-34.46 480.81,-24.94"/>
<polygon fill="#63b8ff" stroke="#63b8ff" points="482.32,-28.1 489.6,-20.4 479.11,-21.88 482.32,-28.1"/>
</a>
</g>
</g>
<!-- Node10 -->
<g id="Node000010" class="node">
<title>Node10</title>
<g id="a_Node000010"><a xlink:title=" ">
<polygon fill="#e0e0e0" stroke="#999999" points="600,-19.25 557,-19.25 557,0 600,0 600,-19.25"/>
<text xml:space="preserve" text-anchor="middle" x="578.5" y="-5.75" font-family="Helvetica,sans-Serif" font-size="10.00">vector</text>
</a>
</g>
</g>
<!-- Node1&#45;&gt;Node10 -->
<g id="edge9_Node000001_Node000010" class="edge">
<title>Node1&#45;&gt;Node10</title>
<g id="a_edge9_Node000001_Node000010"><a xlink:title=" ">
<path fill="none" stroke="#63b8ff" d="M434.85,-54.84C465.58,-45.38 513.75,-30.56 545.71,-20.72"/>
<polygon fill="#63b8ff" stroke="#63b8ff" points="546.72,-24.07 555.25,-17.78 544.66,-17.38 546.72,-24.07"/>
</a>
</g>
</g>
<!-- Node11 -->
<g id="Node000011" class="node">
<title>Node11</title>
<g id="a_Node000011"><a xlink:title=" ">
<polygon fill="#e0e0e0" stroke="#999999" points="687.12,-19.25 617.88,-19.25 617.88,0 687.12,0 687.12,-19.25"/>
<text xml:space="preserve" text-anchor="middle" x="652.5" y="-5.75" font-family="Helvetica,sans-Serif" font-size="10.00">glm/glm.hpp</text>
</a>
</g>
</g>
<!-- Node1&#45;&gt;Node11 -->
<g id="edge10_Node000001_Node000011" class="edge">
<title>Node1&#45;&gt;Node11</title>
<g id="a_edge10_Node000001_Node000011"><a xlink:title=" ">
<path fill="none" stroke="#63b8ff" d="M447.68,-54.78C491.88,-45.25 561.11,-30.33 606.64,-20.51"/>
<polygon fill="#63b8ff" stroke="#63b8ff" points="607.16,-23.98 616.2,-18.45 605.69,-17.14 607.16,-23.98"/>
</a>
</g>
</g>
<!-- Node12 -->
<g id="Node000012" class="node">
<title>Node12</title>
<g id="a_Node000012"><a xlink:title=" ">
<polygon fill="#e0e0e0" stroke="#999999" points="848.25,-19.25 704.75,-19.25 704.75,0 848.25,0 848.25,-19.25"/>
<text xml:space="preserve" text-anchor="middle" x="776.5" y="-5.75" font-family="Helvetica,sans-Serif" font-size="10.00">glm/gtc/matrix_transform.hpp</text>
</a>
</g>
</g>
<!-- Node1&#45;&gt;Node12 -->
<g id="edge11_Node000001_Node000012" class="edge">
<title>Node1&#45;&gt;Node12</title>
<g id="a_edge11_Node000001_Node000012"><a xlink:title=" ">
<path fill="none" stroke="#63b8ff" d="M468.86,-54.78C533.45,-45.51 633.62,-31.13 701.99,-21.32"/>
<polygon fill="#63b8ff" stroke="#63b8ff" points="702.2,-24.83 711.6,-19.94 701.2,-17.9 702.2,-24.83"/>
</a>
</g>
</g>
<!-- Node13 -->
<g id="Node000013" class="node">
<title>Node13</title>
<g id="a_Node000013"><a xlink:title=" ">
<polygon fill="#e0e0e0" stroke="#999999" points="918.88,-19.25 866.12,-19.25 866.12,0 918.88,0 918.88,-19.25"/>
<text xml:space="preserve" text-anchor="middle" x="892.5" y="-5.75" font-family="Helvetica,sans-Serif" font-size="10.00">json.hpp</text>
</a>
</g>
</g>
<!-- Node1&#45;&gt;Node13 -->
<g id="edge12_Node000001_Node000013" class="edge">
<title>Node1&#45;&gt;Node13</title>
<g id="a_edge12_Node000001_Node000013"><a xlink:title=" ">
<path fill="none" stroke="#63b8ff" d="M475.61,-60.07C562.47,-54.67 715.12,-42.91 854.53,-19.54"/>
<polygon fill="#63b8ff" stroke="#63b8ff" points="855.07,-23 864.34,-17.87 853.89,-16.1 855.07,-23"/>
</a>
</g>
</g>
</g>
</svg>
