<?xml version="1.0" encoding="UTF-8" standalone="no"?>
<!DOCTYPE svg PUBLIC "-//W3C//DTD SVG 1.1//EN"
 "http://www.w3.org/Graphics/SVG/1.1/DTD/svg11.dtd">
<!-- Generated by graphviz version 15.0.0 (20260523.1842)
 -->
<!-- Title: source/src/ShopSystem.hpp Pages: 1 -->
<svg width="242pt" height="138pt"
 viewBox="0.00 0.00 242.00 138.00" xmlns="http://www.w3.org/2000/svg" xmlns:xlink="http://www.w3.org/1999/xlink">

<svg id="main" version="1.1" xmlns="http://www.w3.org/2000/svg" xmlns:xlink="http://www.w3.org/1999/xlink" xml:space="preserve">

<style type="text/css"><![CDATA[
.node, .edge {opacity: 0.7;}
.node.selected, .edge.selected {opacity: 1;}
.edge:hover path { stroke: red; }
.edge:hover polygon { stroke: red; fill: red; }
]]></style>
<script type="application/ecmascript" xlink:href="svg.min.js"/>
<svg id="graph" class="graph">
<g id="graph0" class="graph" transform="scale(1 1) rotate(0) translate(4 133.75)">
<title>source/src/ShopSystem.hpp</title>
<!-- Node1 -->
<g id="Node000001" class="node">
<title>Node1</title>
<g id="a_Node000001"><a xlink:title="The merchant&#39;s buy/sell screen and its session&#45;persistent economy.">
<polygon fill="#999999" stroke="#666666" points="146.67,-129.75 6.92,-129.75 6.92,-110.5 146.67,-110.5 146.67,-129.75"/>
<text xml:space="preserve" text-anchor="middle" x="76.8" y="-116.25" font-family="Helvetica,sans-Serif" font-size="10.00">source/src/ShopSystem.hpp</text>
</a>
</g>
</g>
<!-- Node2 -->
<g id="Node000002" class="node">
<title>Node2</title>
<g id="a_Node000002"><a xlink:title=" ">
<polygon fill="#e0e0e0" stroke="#999999" points="43.8,-19.25 3.8,-19.25 3.8,0 43.8,0 43.8,-19.25"/>
<text xml:space="preserve" text-anchor="middle" x="23.8" y="-5.75" font-family="Helvetica,sans-Serif" font-size="10.00">string</text>
</a>
</g>
</g>
<!-- Node1&#45;&gt;Node2 -->
<g id="edge1_Node000001_Node000002" class="edge">
<title>Node1&#45;&gt;Node2</title>
<g id="a_edge1_Node000001_Node000002"><a xlink:title=" ">
<path fill="none" stroke="#63b8ff" d="M49.13,-110.05C32.78,-103.1 13.46,-91.73 3.8,-74.5 -4.28,-60.1 2.76,-42.02 10.63,-28.77"/>
<polygon fill="#63b8ff" stroke="#63b8ff" points="13.43,-30.89 16.02,-20.61 7.59,-27.03 13.43,-30.89"/>
</a>
</g>
</g>
<!-- Node3 -->
<g id="Node000003" class="node">
<title>Node3</title>
<g id="a_Node000003"><a xlink:title=" ">
<polygon fill="#e0e0e0" stroke="#999999" points="55.3,-74.5 12.3,-74.5 12.3,-55.25 55.3,-55.25 55.3,-74.5"/>
<text xml:space="preserve" text-anchor="middle" x="33.8" y="-61" font-family="Helvetica,sans-Serif" font-size="10.00">vector</text>
</a>
</g>
</g>
<!-- Node1&#45;&gt;Node3 -->
<g id="edge2_Node000001_Node000003" class="edge">
<title>Node1&#45;&gt;Node3</title>
<g id="a_edge2_Node000001_Node000003"><a xlink:title=" ">
<path fill="none" stroke="#63b8ff" d="M69.7,-110.33C63.88,-103.13 55.46,-92.71 48.24,-83.76"/>
<polygon fill="#63b8ff" stroke="#63b8ff" points="51.01,-81.62 42,-76.04 45.56,-86.02 51.01,-81.62"/>
</a>
</g>
</g>
<!-- Node4 -->
<g id="Node000004" class="node">
<title>Node4</title>
<g id="a_Node000004"><a xlink:href="_input_bindings_8hpp.html" target="_top" xlink:title="Single source of truth for keyboard controls and their HUD labels.">
<polygon fill="white" stroke="#666666" points="167.8,-74.5 73.8,-74.5 73.8,-55.25 167.8,-55.25 167.8,-74.5"/>
<text xml:space="preserve" text-anchor="middle" x="120.8" y="-61" font-family="Helvetica,sans-Serif" font-size="10.00">InputBindings.hpp</text>
</a>
</g>
</g>
<!-- Node1&#45;&gt;Node4 -->
<g id="edge3_Node000001_Node000004" class="edge">
<title>Node1&#45;&gt;Node4</title>
<g id="a_edge3_Node000001_Node000004"><a xlink:title=" ">
<path fill="none" stroke="#63b8ff" d="M84.06,-110.33C90.08,-103.05 98.81,-92.48 106.25,-83.48"/>
<polygon fill="#63b8ff" stroke="#63b8ff" points="108.74,-85.96 112.41,-76.03 103.34,-81.51 108.74,-85.96"/>
</a>
</g>
</g>
<!-- Node7 -->
<g id="Node000007" class="node">
<title>Node7</title>
<g id="a_Node000007"><a xlink:title=" ">
<polygon fill="#e0e0e0" stroke="#999999" points="233.55,-74.5 186.05,-74.5 186.05,-55.25 233.55,-55.25 233.55,-74.5"/>
<text xml:space="preserve" text-anchor="middle" x="209.8" y="-61" font-family="Helvetica,sans-Serif" font-size="10.00">imgui.h</text>
</a>
</g>
</g>
<!-- Node1&#45;&gt;Node7 -->
<g id="edge7_Node000001_Node000007" class="edge">
<title>Node1&#45;&gt;Node7</title>
<g id="a_edge7_Node000001_Node000007"><a xlink:title=" ">
<path fill="none" stroke="#63b8ff" d="M99.36,-110.09C120.57,-101.6 152.57,-88.79 176.67,-79.14"/>
<polygon fill="#63b8ff" stroke="#63b8ff" points="177.74,-82.48 185.72,-75.52 175.13,-75.98 177.74,-82.48"/>
</a>
</g>
</g>
<!-- Node4&#45;&gt;Node2 -->
<g id="edge5_Node000004_Node000002" class="edge">
<title>Node4&#45;&gt;Node2</title>
<g id="a_edge5_Node000004_Node000002"><a xlink:title=" ">
<path fill="none" stroke="#63b8ff" d="M104.34,-54.84C89.57,-46.73 67.62,-34.68 50.36,-25.21"/>
<polygon fill="#63b8ff" stroke="#63b8ff" points="52.11,-22.18 41.66,-20.43 48.74,-28.31 52.11,-22.18"/>
</a>
</g>
</g>
<!-- Node5 -->
<g id="Node000005" class="node">
<title>Node5</title>
<g id="a_Node000005"><a xlink:title=" ">
<polygon fill="#e0e0e0" stroke="#999999" points="101.67,-19.25 63.92,-19.25 63.92,0 101.67,0 101.67,-19.25"/>
<text xml:space="preserve" text-anchor="middle" x="82.8" y="-5.75" font-family="Helvetica,sans-Serif" font-size="10.00">array</text>
</a>
</g>
</g>
<!-- Node4&#45;&gt;Node5 -->
<g id="edge4_Node000004_Node000005" class="edge">
<title>Node4&#45;&gt;Node5</title>
<g id="a_edge4_Node000004_Node000005"><a xlink:title=" ">
<path fill="none" stroke="#63b8ff" d="M114.52,-55.08C109.44,-47.96 102.1,-37.68 95.76,-28.8"/>
<polygon fill="#63b8ff" stroke="#63b8ff" points="98.74,-26.95 90.09,-20.84 93.05,-31.01 98.74,-26.95"/>
</a>
</g>
</g>
<!-- Node6 -->
<g id="Node000006" class="node">
<title>Node6</title>
<g id="a_Node000006"><a xlink:title=" ">
<polygon fill="#e0e0e0" stroke="#999999" points="198.3,-19.25 119.3,-19.25 119.3,0 198.3,0 198.3,-19.25"/>
<text xml:space="preserve" text-anchor="middle" x="158.8" y="-5.75" font-family="Helvetica,sans-Serif" font-size="10.00">GLFW/glfw3.h</text>
</a>
</g>
</g>
<!-- Node4&#45;&gt;Node6 -->
<g id="edge6_Node000004_Node000006" class="edge">
<title>Node4&#45;&gt;Node6</title>
<g id="a_edge6_Node000004_Node000006"><a xlink:title=" ">
<path fill="none" stroke="#63b8ff" d="M127.07,-55.08C132.16,-47.96 139.49,-37.68 145.83,-28.8"/>
<polygon fill="#63b8ff" stroke="#63b8ff" points="148.55,-31.01 151.51,-20.84 142.85,-26.95 148.55,-31.01"/>
</a>
</g>
</g>
</g>
</svg>
</svg>

<style type='text/css'>
<![CDATA[
[data-mouse-over-selected='false'] { opacity: 0.7; }
[data-mouse-over-selected='true']  { opacity: 1.0; }
]]>
</style>
<script type="application/ecmascript"><![CDATA[
document.addEventListener('DOMContentLoaded', (event) => {
  highlightEdges();
  highlightAdjacentNodes();
});
]]></script>
</svg>
