<?xml version="1.0" encoding="UTF-8" standalone="no"?>
<!DOCTYPE svg PUBLIC "-//W3C//DTD SVG 1.1//EN"
 "http://www.w3.org/Graphics/SVG/1.1/DTD/svg11.dtd">
<!-- Generated by graphviz version 15.0.0 (20260523.1842)
 -->
<!-- Title: source/src/SplashScreen.hpp Pages: 1 -->
<svg width="201pt" height="138pt"
 viewBox="0.00 0.00 201.00 138.00" xmlns="http://www.w3.org/2000/svg" xmlns:xlink="http://www.w3.org/1999/xlink">

<svg id="main" version="1.1" xmlns="http://www.w3.org/2000/svg" xmlns:xlink="http://www.w3.org/1999/xlink" xml:space="preserve">

<style type="text/css"><![CDATA[
.node, .edge {opacity: 0.7;}
.node.selected, .edge.selected {opacity: 1;}
.edge:hover path { stroke: red; }
.edge:hover polygon { stroke: red; fill: red; }
]]></style>
<script type="application/ecmascript" xlink:href="svg.min.js"/>
<svg id="graph" class="graph">
<g id="graph0" class="graph" transform="scale(1 1) rotate(0) translate(4 133.75)">
<title>source/src/SplashScreen.hpp</title>
<!-- Node1 -->
<g id="Node000001" class="node">
<title>Node1</title>
<g id="a_Node000001"><a xlink:title="Start/pause menu (Start, Controls, Quit) drawn over the live scene.">
<polygon fill="#999999" stroke="#666666" points="192,-129.75 47.75,-129.75 47.75,-110.5 192,-110.5 192,-129.75"/>
<text xml:space="preserve" text-anchor="middle" x="119.88" y="-116.25" font-family="Helvetica,sans-Serif" font-size="10.00">source/src/SplashScreen.hpp</text>
</a>
</g>
</g>
<!-- Node2 -->
<g id="Node000002" class="node">
<title>Node2</title>
<g id="a_Node000002"><a xlink:href="_input_bindings_8hpp.html" target="_top" xlink:title="Single source of truth for keyboard controls and their HUD labels.">
<polygon fill="white" stroke="#666666" points="122.88,-74.5 28.87,-74.5 28.87,-55.25 122.88,-55.25 122.88,-74.5"/>
<text xml:space="preserve" text-anchor="middle" x="75.88" y="-61" font-family="Helvetica,sans-Serif" font-size="10.00">InputBindings.hpp</text>
</a>
</g>
</g>
<!-- Node1&#45;&gt;Node2 -->
<g id="edge1_Node000001_Node000002" class="edge">
<title>Node1&#45;&gt;Node2</title>
<g id="a_edge1_Node000001_Node000002"><a xlink:title=" ">
<path fill="none" stroke="#63b8ff" d="M112.61,-110.33C106.59,-103.05 97.86,-92.48 90.42,-83.48"/>
<polygon fill="#63b8ff" stroke="#63b8ff" points="93.33,-81.51 84.26,-76.03 87.93,-85.96 93.33,-81.51"/>
</a>
</g>
</g>
<!-- Node6 -->
<g id="Node000006" class="node">
<title>Node6</title>
<g id="a_Node000006"><a xlink:title=" ">
<polygon fill="#e0e0e0" stroke="#999999" points="188.62,-74.5 141.12,-74.5 141.12,-55.25 188.62,-55.25 188.62,-74.5"/>
<text xml:space="preserve" text-anchor="middle" x="164.88" y="-61" font-family="Helvetica,sans-Serif" font-size="10.00">imgui.h</text>
</a>
</g>
</g>
<!-- Node1&#45;&gt;Node6 -->
<g id="edge5_Node000001_Node000006" class="edge">
<title>Node1&#45;&gt;Node6</title>
<g id="a_edge5_Node000001_Node000006"><a xlink:title=" ">
<path fill="none" stroke="#63b8ff" d="M127.31,-110.33C133.46,-103.05 142.39,-92.48 150,-83.48"/>
<polygon fill="#63b8ff" stroke="#63b8ff" points="152.52,-85.91 156.31,-76.02 147.18,-81.39 152.52,-85.91"/>
</a>
</g>
</g>
<!-- Node3 -->
<g id="Node000003" class="node">
<title>Node3</title>
<g id="a_Node000003"><a xlink:title=" ">
<polygon fill="#e0e0e0" stroke="#999999" points="37.75,-19.25 0,-19.25 0,0 37.75,0 37.75,-19.25"/>
<text xml:space="preserve" text-anchor="middle" x="18.88" y="-5.75" font-family="Helvetica,sans-Serif" font-size="10.00">array</text>
</a>
</g>
</g>
<!-- Node2&#45;&gt;Node3 -->
<g id="edge2_Node000002_Node000003" class="edge">
<title>Node2&#45;&gt;Node3</title>
<g id="a_edge2_Node000002_Node000003"><a xlink:title=" ">
<path fill="none" stroke="#63b8ff" d="M66.21,-54.84C58.13,-47.3 46.41,-36.35 36.65,-27.23"/>
<polygon fill="#63b8ff" stroke="#63b8ff" points="39.2,-24.83 29.51,-20.56 34.43,-29.94 39.2,-24.83"/>
</a>
</g>
</g>
<!-- Node4 -->
<g id="Node000004" class="node">
<title>Node4</title>
<g id="a_Node000004"><a xlink:title=" ">
<polygon fill="#e0e0e0" stroke="#999999" points="95.88,-19.25 55.88,-19.25 55.88,0 95.88,0 95.88,-19.25"/>
<text xml:space="preserve" text-anchor="middle" x="75.88" y="-5.75" font-family="Helvetica,sans-Serif" font-size="10.00">string</text>
</a>
</g>
</g>
<!-- Node2&#45;&gt;Node4 -->
<g id="edge3_Node000002_Node000004" class="edge">
<title>Node2&#45;&gt;Node4</title>
<g id="a_edge3_Node000002_Node000004"><a xlink:title=" ">
<path fill="none" stroke="#63b8ff" d="M75.88,-55.08C75.88,-48.57 75.88,-39.42 75.88,-31.12"/>
<polygon fill="#63b8ff" stroke="#63b8ff" points="79.38,-31.12 75.88,-21.12 72.38,-31.12 79.38,-31.12"/>
</a>
</g>
</g>
<!-- Node5 -->
<g id="Node000005" class="node">
<title>Node5</title>
<g id="a_Node000005"><a xlink:title=" ">
<polygon fill="#e0e0e0" stroke="#999999" points="193.38,-19.25 114.38,-19.25 114.38,0 193.38,0 193.38,-19.25"/>
<text xml:space="preserve" text-anchor="middle" x="153.88" y="-5.75" font-family="Helvetica,sans-Serif" font-size="10.00">GLFW/glfw3.h</text>
</a>
</g>
</g>
<!-- Node2&#45;&gt;Node5 -->
<g id="edge4_Node000002_Node000005" class="edge">
<title>Node2&#45;&gt;Node5</title>
<g id="a_edge4_Node000002_Node000005"><a xlink:title=" ">
<path fill="none" stroke="#63b8ff" d="M89.11,-54.84C100.65,-46.96 117.64,-35.36 131.32,-26.02"/>
<polygon fill="#63b8ff" stroke="#63b8ff" points="133.04,-29.08 139.33,-20.56 129.1,-23.3 133.04,-29.08"/>
</a>
</g>
</g>
</g>
</svg>
</svg>

<style type='text/css'>
<![CDATA[
[data-mouse-over-selected='false'] { opacity: 0.7; }
[data-mouse-over-selected='true']  { opacity: 1.0; }
]]>
</style>
<script type="application/ecmascript"><![CDATA[
document.addEventListener('DOMContentLoaded', (event) => {
  highlightEdges();
  highlightAdjacentNodes();
});
]]></script>
</svg>
