<?xml version="1.0" encoding="UTF-8" standalone="no"?>
<!DOCTYPE svg PUBLIC "-//W3C//DTD SVG 1.1//EN"
 "http://www.w3.org/Graphics/SVG/1.1/DTD/svg11.dtd">
<!-- Generated by graphviz version 15.0.0 (20260523.1842)
 -->
<!-- Title: DayNightCycle Pages: 1 -->
<svg width="83pt" height="119pt"
 viewBox="0.00 0.00 83.00 119.00" xmlns="http://www.w3.org/2000/svg" xmlns:xlink="http://www.w3.org/1999/xlink">
<g id="graph0" class="graph" transform="scale(1 1) rotate(0) translate(4 114.75)">
<title>DayNightCycle</title>
<!-- Node1 -->
<g id="Node000001" class="node">
<title>Node1</title>
<g id="a_Node000001"><a xlink:title="Continuous, automatic day/night cycle.">
<polygon fill="#999999" stroke="none" points="75,-110.75 0,-110.75 0,0 75,0 75,-110.75"/>
<text xml:space="preserve" text-anchor="start" x="4.12" y="-98.5" font-family="Helvetica,sans-Serif" font-size="10.00">DayNightCycle</text>
<text xml:space="preserve" text-anchor="start" x="5.5" y="-83.25" font-family="Helvetica,sans-Serif" font-size="10.00">&#45;</text>
<text xml:space="preserve" text-anchor="start" x="14" y="-83.25" font-family="Helvetica,sans-Serif" font-size="10.00">timeOfDay</text>
<text xml:space="preserve" text-anchor="start" x="5.5" y="-68" font-family="Helvetica,sans-Serif" font-size="10.00">&#45;</text>
<text xml:space="preserve" text-anchor="start" x="14" y="-68" font-family="Helvetica,sans-Serif" font-size="10.00">SPEED</text>
<text xml:space="preserve" text-anchor="start" x="4" y="-52.75" font-family="Helvetica,sans-Serif" font-size="10.00">+</text>
<text xml:space="preserve" text-anchor="start" x="14" y="-52.75" font-family="Helvetica,sans-Serif" font-size="10.00">update()</text>
<text xml:space="preserve" text-anchor="start" x="4" y="-37.5" font-family="Helvetica,sans-Serif" font-size="10.00">+</text>
<text xml:space="preserve" text-anchor="start" x="14" y="-37.5" font-family="Helvetica,sans-Serif" font-size="10.00">clock()</text>
<text xml:space="preserve" text-anchor="start" x="5.5" y="-22.25" font-family="Helvetica,sans-Serif" font-size="10.00">&#45;</text>
<text xml:space="preserve" text-anchor="start" x="14" y="-22.25" font-family="Helvetica,sans-Serif" font-size="10.00">sample()</text>
<text xml:space="preserve" text-anchor="start" x="5.5" y="-7" font-family="Helvetica,sans-Serif" font-size="10.00">&#45;</text>
<text xml:space="preserve" text-anchor="start" x="14" y="-7" font-family="Helvetica,sans-Serif" font-size="10.00">smoothstep()</text>
<polygon fill="#666666" stroke="#666666" points="0,-93.5 0,-93.5 75,-93.5 75,-93.5 0,-93.5"/>
<polygon fill="#666666" stroke="#666666" points="0,-63 0,-63 12,-63 12,-63 0,-63"/>
<polygon fill="#666666" stroke="#666666" points="12,-63 12,-63 75,-63 75,-63 12,-63"/>
<polygon fill="none" stroke="#666666" points="0,0 0,-110.75 75,-110.75 75,0 0,0"/>
</a>
</g>
</g>
</g>
</svg>
