<?xml version="1.0" encoding="UTF-8" standalone="no"?>
<!DOCTYPE svg PUBLIC "-//W3C//DTD SVG 1.1//EN"
 "http://www.w3.org/Graphics/SVG/1.1/DTD/svg11.dtd">
<!-- Generated by graphviz version 15.0.0 (20260523.1842)
 -->
<!-- Title: ShopSystem Pages: 1 -->
<!--zoomable 674 -->

<svg id="main" version="1.1" xmlns="http://www.w3.org/2000/svg" xmlns:xlink="http://www.w3.org/1999/xlink" xml:space="preserve" onload="init(evt)">

<style type="text/css"><![CDATA[
.node, .edge {opacity: 0.7;}
.node.selected, .edge.selected {opacity: 1;}
.edge:hover path { stroke: red; }
.edge:hover polygon { stroke: red; fill: red; }
]]></style>

<defs>
  <circle id="rim" cx="0" cy="0" r="7"/>
  <circle id="rim2" cx="0" cy="0" r="3.5"/>
  <g id="zoomPlus">
    <use xlink:href="#rim" fill="#404040"><set attributeName="fill" to="#808080" begin="zoomplus.mouseover" end="zoomplus.mouseout"/></use>
    <path d="M-4,0h8M0,-4v8" fill="none" stroke="white" stroke-width="1.5" pointer-events="none"/>
  </g>
  <g id="zoomMin">
    <use xlink:href="#rim" fill="#404040"><set attributeName="fill" to="#808080" begin="zoomminus.mouseover" end="zoomminus.mouseout"/></use>
    <path d="M-4,0h8" fill="none" stroke="white" stroke-width="1.5" pointer-events="none"/>
  </g>
  <g id="arrowUp" transform="translate(30 24)">
    <use xlink:href="#rim"/>
    <path pointer-events="none" fill="none" stroke="white" stroke-width="1.5" d="M0,-3.0v7 M-2.5,-0.5L0,-3.0L2.5,-0.5"/>
  </g>
  <g id="arrowRight" transform="rotate(90) translate(36 -43)">
    <use xlink:href="#rim"/>
    <path pointer-events="none" fill="none" stroke="white" stroke-width="1.5" d="M0,-3.0v7 M-2.5,-0.5L0,-3.0L2.5,-0.5"/>
  </g>
  <g id="arrowDown" transform="rotate(180) translate(-30 -48)">
    <use xlink:href="#rim"/>
    <path pointer-events="none" fill="none" stroke="white" stroke-width="1.5" d="M0,-3.0v7 M-2.5,-0.5L0,-3.0L2.5,-0.5"/>
  </g>
  <g id="arrowLeft" transform="rotate(270) translate(-36 17)">
    <use xlink:href="#rim"/>
    <path pointer-events="none" fill="none" stroke="white" stroke-width="1.5" d="M0,-3.0v7 M-2.5,-0.5L0,-3.0L2.5,-0.5"/>
  </g>
  <g id="resetDef">
    <use xlink:href="#rim2" fill="#404040"><set attributeName="fill" to="#808080" begin="reset.mouseover" end="reset.mouseout"/></use>
  </g>
</defs>
<script type="application/ecmascript">
var viewWidth = 134;
var viewHeight = 674;
var sectionId = 'dynsection-0';
</script>
<script type="application/ecmascript" xlink:href="svg.min.js"/>
<svg id="graph" class="graph">
<g id="viewport">
<title>ShopSystem</title>
<!-- Node1 -->
<g id="Node000001" class="node">
<title>Node1</title>
<g id="a_Node000001"><a xlink:title="The merchant&#39;s buy/sell screen.">
<polygon fill="#999999" stroke="none" points="126,-187 0,-187 0,0 126,0 126,-187"/>
<text xml:space="preserve" text-anchor="start" x="34.88" y="-174.75" font-family="Helvetica,sans-Serif" font-size="10.00">ShopSystem</text>
<text xml:space="preserve" text-anchor="start" x="5.5" y="-159.5" font-family="Helvetica,sans-Serif" font-size="10.00">&#45;</text>
<text xml:space="preserve" text-anchor="start" x="14" y="-159.5" font-family="Helvetica,sans-Serif" font-size="10.00">open</text>
<text xml:space="preserve" text-anchor="start" x="5.5" y="-144.25" font-family="Helvetica,sans-Serif" font-size="10.00">&#45;</text>
<text xml:space="preserve" text-anchor="start" x="14" y="-144.25" font-family="Helvetica,sans-Serif" font-size="10.00">closeRequest</text>
<text xml:space="preserve" text-anchor="start" x="5.5" y="-129" font-family="Helvetica,sans-Serif" font-size="10.00">&#45;</text>
<text xml:space="preserve" text-anchor="start" x="14" y="-129" font-family="Helvetica,sans-Serif" font-size="10.00">gold</text>
<text xml:space="preserve" text-anchor="start" x="5.5" y="-113.75" font-family="Helvetica,sans-Serif" font-size="10.00">&#45;</text>
<text xml:space="preserve" text-anchor="start" x="14" y="-113.75" font-family="Helvetica,sans-Serif" font-size="10.00">ICON_SIZE</text>
<text xml:space="preserve" text-anchor="start" x="4" y="-98.5" font-family="Helvetica,sans-Serif" font-size="10.00">+</text>
<text xml:space="preserve" text-anchor="start" x="14" y="-98.5" font-family="Helvetica,sans-Serif" font-size="10.00">setOpen()</text>
<text xml:space="preserve" text-anchor="start" x="4" y="-83.25" font-family="Helvetica,sans-Serif" font-size="10.00">+</text>
<text xml:space="preserve" text-anchor="start" x="14" y="-83.25" font-family="Helvetica,sans-Serif" font-size="10.00">isOpen()</text>
<text xml:space="preserve" text-anchor="start" x="4" y="-68" font-family="Helvetica,sans-Serif" font-size="10.00">+</text>
<text xml:space="preserve" text-anchor="start" x="14" y="-68" font-family="Helvetica,sans-Serif" font-size="10.00">itemCount()</text>
<text xml:space="preserve" text-anchor="start" x="4" y="-52.75" font-family="Helvetica,sans-Serif" font-size="10.00">+</text>
<text xml:space="preserve" text-anchor="start" x="14" y="-52.75" font-family="Helvetica,sans-Serif" font-size="10.00">iconFile()</text>
<text xml:space="preserve" text-anchor="start" x="4" y="-37.5" font-family="Helvetica,sans-Serif" font-size="10.00">+</text>
<text xml:space="preserve" text-anchor="start" x="14" y="-37.5" font-family="Helvetica,sans-Serif" font-size="10.00">setIcon()</text>
<text xml:space="preserve" text-anchor="start" x="4" y="-22.25" font-family="Helvetica,sans-Serif" font-size="10.00">+</text>
<text xml:space="preserve" text-anchor="start" x="14" y="-22.25" font-family="Helvetica,sans-Serif" font-size="10.00">consumeCloseRequest()</text>
<text xml:space="preserve" text-anchor="start" x="4" y="-7" font-family="Helvetica,sans-Serif" font-size="10.00">+</text>
<text xml:space="preserve" text-anchor="start" x="14" y="-7" font-family="Helvetica,sans-Serif" font-size="10.00">draw()</text>
<polygon fill="#666666" stroke="#666666" points="0,-169.75 0,-169.75 126,-169.75 126,-169.75 0,-169.75"/>
<polygon fill="#666666" stroke="#666666" points="0,-108.75 0,-108.75 12,-108.75 12,-108.75 0,-108.75"/>
<polygon fill="#666666" stroke="#666666" points="12,-108.75 12,-108.75 126,-108.75 126,-108.75 12,-108.75"/>
<polygon fill="none" stroke="#666666" points="0,0 0,-187 126,-187 126,0 0,0"/>
</a>
</g>
</g>
<!-- Node2 -->
<g id="Node000002" class="node">
<title>Node2</title>
<g id="a_Node000002"><a xlink:title=" ">
<polygon fill="white" stroke="none" points="122.88,-301.25 3.12,-301.25 3.12,-240.25 122.88,-240.25 122.88,-301.25"/>
<text xml:space="preserve" text-anchor="start" x="7.12" y="-289" font-family="Helvetica,sans-Serif" font-size="10.00">std::vector&lt; ShopSystem</text>
<text xml:space="preserve" text-anchor="start" x="45.75" y="-277.75" font-family="Helvetica,sans-Serif" font-size="10.00">::Item &gt;</text>
<text xml:space="preserve" text-anchor="start" x="61.5" y="-262.5" font-family="Helvetica,sans-Serif" font-size="10.00"> </text>
<text xml:space="preserve" text-anchor="start" x="61.5" y="-247.25" font-family="Helvetica,sans-Serif" font-size="10.00"> </text>
<polygon fill="#666666" stroke="#666666" points="3.12,-272.75 3.12,-272.75 122.88,-272.75 122.88,-272.75 3.12,-272.75"/>
<polygon fill="#666666" stroke="#666666" points="3.12,-257.5 3.12,-257.5 122.88,-257.5 122.88,-257.5 3.12,-257.5"/>
<polygon fill="none" stroke="#666666" points="3.12,-240.25 3.12,-301.25 122.88,-301.25 122.88,-240.25 3.12,-240.25"/>
</a>
</g>
</g>
<!-- Node2&#45;&gt;Node1 -->
<g id="edge1_Node000001_Node000002" class="edge">
<title>Node2&#45;&gt;Node1</title>
<g id="a_edge1_Node000001_Node000002"><a xlink:title=" ">
<path fill="none" stroke="#63b8ff" d="M63,-240.42C63,-228.69 63,-214.42 63,-199.45"/>
<polygon fill="none" stroke="#63b8ff" points="63,-199.65 59,-193.65 63,-187.65 67,-193.65 63,-199.65"/>
</a>
</g>
<text xml:space="preserve" text-anchor="start" x="66" y="-211" font-family="Helvetica,sans-Serif" font-size="10.00" fill="grey">&#45;items</text>
</g>
<!-- Node3 -->
<g id="Node000003" class="node">
<title>Node3</title>
<g id="a_Node000003"><a xlink:href="struct_shop_system_1_1_item.html" target="_top" xlink:title="One row of the wares table: a buyable/sellable good.">
<polygon fill="white" stroke="none" points="107.88,-450 18.12,-450 18.12,-354.5 107.88,-354.5 107.88,-450"/>
<text xml:space="preserve" text-anchor="start" x="22.12" y="-437.75" font-family="Helvetica,sans-Serif" font-size="10.00">ShopSystem::Item</text>
<text xml:space="preserve" text-anchor="start" x="32.94" y="-422.5" font-family="Helvetica,sans-Serif" font-size="10.00">+</text>
<text xml:space="preserve" text-anchor="start" x="53.75" y="-422.5" font-family="Helvetica,sans-Serif" font-size="10.00">price</text>
<text xml:space="preserve" text-anchor="start" x="32.94" y="-407.25" font-family="Helvetica,sans-Serif" font-size="10.00">+</text>
<text xml:space="preserve" text-anchor="start" x="53.75" y="-407.25" font-family="Helvetica,sans-Serif" font-size="10.00">stock</text>
<text xml:space="preserve" text-anchor="start" x="32.94" y="-392" font-family="Helvetica,sans-Serif" font-size="10.00">+</text>
<text xml:space="preserve" text-anchor="start" x="53.75" y="-392" font-family="Helvetica,sans-Serif" font-size="10.00">owned</text>
<text xml:space="preserve" text-anchor="start" x="32.94" y="-376.75" font-family="Helvetica,sans-Serif" font-size="10.00">+</text>
<text xml:space="preserve" text-anchor="start" x="53.75" y="-376.75" font-family="Helvetica,sans-Serif" font-size="10.00">icon</text>
<text xml:space="preserve" text-anchor="start" x="61.5" y="-361.5" font-family="Helvetica,sans-Serif" font-size="10.00"> </text>
<polygon fill="#666666" stroke="#666666" points="18.12,-432.75 18.12,-432.75 107.88,-432.75 107.88,-432.75 18.12,-432.75"/>
<polygon fill="#666666" stroke="#666666" points="18.12,-371.75 18.12,-371.75 51.75,-371.75 51.75,-371.75 18.12,-371.75"/>
<polygon fill="#666666" stroke="#666666" points="51.75,-371.75 51.75,-371.75 107.88,-371.75 107.88,-371.75 51.75,-371.75"/>
<polygon fill="none" stroke="#666666" points="18.12,-354.5 18.12,-450 107.88,-450 107.88,-354.5 18.12,-354.5"/>
</a>
</g>
</g>
<!-- Node3&#45;&gt;Node2 -->
<g id="edge2_Node000002_Node000003" class="edge">
<title>Node3&#45;&gt;Node2</title>
<g id="a_edge2_Node000002_Node000003"><a xlink:title=" ">
<path fill="none" stroke="#63b8ff" d="M63,-354.86C63,-341.5 63,-327.01 63,-313.92"/>
<polygon fill="none" stroke="#63b8ff" points="63,-313.8 59,-307.8 63,-301.8 67,-307.8 63,-313.8"/>
</a>
</g>
<text xml:space="preserve" text-anchor="start" x="66" y="-325.25" font-family="Helvetica,sans-Serif" font-size="10.00" fill="grey">+elements</text>
</g>
<!-- Node4 -->
<g id="Node000004" class="node">
<title>Node4</title>
<g id="a_Node000004"><a xlink:title=" ">
<polygon fill="white" stroke="none" points="88.75,-568.25 37.25,-568.25 37.25,-518.5 88.75,-518.5 88.75,-568.25"/>
<text xml:space="preserve" text-anchor="start" x="41.25" y="-556" font-family="Helvetica,sans-Serif" font-size="10.00">std::string</text>
<text xml:space="preserve" text-anchor="start" x="61.5" y="-540.75" font-family="Helvetica,sans-Serif" font-size="10.00"> </text>
<text xml:space="preserve" text-anchor="start" x="61.5" y="-525.5" font-family="Helvetica,sans-Serif" font-size="10.00"> </text>
<polygon fill="#666666" stroke="#666666" points="37.25,-551 37.25,-551 88.75,-551 88.75,-551 37.25,-551"/>
<polygon fill="#666666" stroke="#666666" points="37.25,-535.75 37.25,-535.75 88.75,-535.75 88.75,-535.75 37.25,-535.75"/>
<polygon fill="none" stroke="#666666" points="37.25,-518.5 37.25,-568.25 88.75,-568.25 88.75,-518.5 37.25,-518.5"/>
</a>
</g>
</g>
<!-- Node4&#45;&gt;Node3 -->
<g id="edge3_Node000003_Node000004" class="edge">
<title>Node4&#45;&gt;Node3</title>
<g id="a_edge3_Node000003_Node000004"><a xlink:title=" ">
<path fill="none" stroke="#63b8ff" d="M63,-518.77C63,-503.32 63,-482.39 63,-462.59"/>
<polygon fill="none" stroke="#63b8ff" points="63,-462.71 59,-456.71 63,-450.71 67,-456.71 63,-462.71"/>
</a>
</g>
<text xml:space="preserve" text-anchor="start" x="66" y="-489.25" font-family="Helvetica,sans-Serif" font-size="10.00" fill="grey">+iconFile</text>
<text xml:space="preserve" text-anchor="start" x="66" y="-474" font-family="Helvetica,sans-Serif" font-size="10.00" fill="grey">+name</text>
</g>
<!-- Node5 -->
<g id="Node000005" class="node">
<title>Node5</title>
<g id="a_Node000005"><a xlink:title=" ">
<polygon fill="white" stroke="none" points="106,-666.25 20,-666.25 20,-605.25 106,-605.25 106,-666.25"/>
<text xml:space="preserve" text-anchor="start" x="24" y="-654" font-family="Helvetica,sans-Serif" font-size="10.00">std::basic_string&lt;</text>
<text xml:space="preserve" text-anchor="start" x="46.5" y="-642.75" font-family="Helvetica,sans-Serif" font-size="10.00"> Char &gt;</text>
<text xml:space="preserve" text-anchor="start" x="61.5" y="-627.5" font-family="Helvetica,sans-Serif" font-size="10.00"> </text>
<text xml:space="preserve" text-anchor="start" x="61.5" y="-612.25" font-family="Helvetica,sans-Serif" font-size="10.00"> </text>
<polygon fill="#666666" stroke="#666666" points="20,-637.75 20,-637.75 106,-637.75 106,-637.75 20,-637.75"/>
<polygon fill="#666666" stroke="#666666" points="20,-622.5 20,-622.5 106,-622.5 106,-622.5 20,-622.5"/>
<polygon fill="none" stroke="#666666" points="20,-605.25 20,-666.25 106,-666.25 106,-605.25 20,-605.25"/>
</a>
</g>
</g>
<!-- Node5&#45;&gt;Node4 -->
<g id="edge4_Node000004_Node000005" class="edge">
<title>Node5&#45;&gt;Node4</title>
<g id="a_edge4_Node000004_Node000005"><a xlink:title=" ">
<path fill="none" stroke="#63b8ff" d="M63,-594.15C63,-585.19 63,-576 63,-567.98"/>
<polygon fill="none" stroke="#63b8ff" points="59.5,-594.14 63,-604.14 66.5,-594.14 59.5,-594.14"/>
</a>
</g>
</g>
</g>
</svg>

<g id="navigator" transform="translate(0 0)" fill="#404254">
  <rect fill="#f2f5e9" fill-opacity="0.5" stroke="#606060" stroke-width=".5" x="0" y="0" width="60" height="60"/>
  <use id="zoomplus" xlink:href="#zoomPlus" x="17" y="9" onmousedown="handleZoom(evt,'in')"/>
  <use id="zoomminus" xlink:href="#zoomMin" x="42" y="9" onmousedown="handleZoom(evt,'out')"/>
  <use id="reset" xlink:href="#resetDef" x="30" y="36" onmousedown="handleReset()"/>
   <use id="arrowup" xlink:href="#arrowUp" x="0" y="0" onmousedown="handlePan(0,-1)"/>
  <use id="arrowright" xlink:href="#arrowRight" x="0" y="0" onmousedown="handlePan(1,0)"/>
  <use id="arrowdown" xlink:href="#arrowDown" x="0" y="0" onmousedown="handlePan(0,1)"/>
  <use id="arrowleft" xlink:href="#arrowLeft" x="0" y="0" onmousedown="handlePan(-1,0)"/>
</g>
<svg viewBox="0 0 15 15" width="100%" height="30px" preserveAspectRatio="xMaxYMin meet">
 <g id="arrow_out" transform="scale(0.3 0.3)">
  <a xlink:href="class_shop_system__coll__graph_org.svg" target="_base">
   <rect id="button" ry="5" rx="5" y="6" x="6" height="38" width="38"
        fill="#f2f5e9" fill-opacity="0.5" stroke="#606060" stroke-width="1.0"/>
   <path id="arrow"
     d="M 11.500037,31.436501 C 11.940474,20.09759 22.043105,11.32322 32.158766,21.979434 L 37.068811,17.246167 C 37.068811,17.246167 37.088388,32 37.088388,32 L 22.160133,31.978069 C 22.160133,31.978069 26.997745,27.140456 26.997745,27.140456 C 18.528582,18.264221 13.291696,25.230495 11.500037,31.436501 z"
     style="fill:#404040;"/>
  </a>
 </g>
</svg>

<style type='text/css'>
<![CDATA[
[data-mouse-over-selected='false'] { opacity: 0.7; }
[data-mouse-over-selected='true']  { opacity: 1.0; }
]]>
</style>
<script type="application/ecmascript"><![CDATA[
document.addEventListener('DOMContentLoaded', (event) => {
  highlightEdges();
  highlightAdjacentNodes();
});
]]></script>
</svg>
