<?xml version="1.0" encoding="UTF-8" standalone="no"?>
<!DOCTYPE svg PUBLIC "-//W3C//DTD SVG 1.1//EN"
 "http://www.w3.org/Graphics/SVG/1.1/DTD/svg11.dtd">
<!-- Generated by graphviz version 15.0.0 (20260523.1842)
 -->
<!-- Title: DialogueSystem Pages: 1 -->
<svg width="458pt" height="1147pt"
 viewBox="0.00 0.00 458.00 1147.00" xmlns="http://www.w3.org/2000/svg" xmlns:xlink="http://www.w3.org/1999/xlink">
<g id="graph0" class="graph" transform="scale(1 1) rotate(0) translate(4 1142.5)">
<title>DialogueSystem</title>
<!-- Node1 -->
<g id="Node000001" class="node">
<title>Node1</title>
<g id="a_Node000001"><a xlink:title="Branching NPC dialogue driven by assets/dialogue/dialogues.json.">
<polygon fill="#999999" stroke="none" points="123,-202.25 0,-202.25 0,0 123,0 123,-202.25"/>
<text xml:space="preserve" text-anchor="start" x="25.5" y="-190" font-family="Helvetica,sans-Serif" font-size="10.00">DialogueSystem</text>
<text xml:space="preserve" text-anchor="start" x="5.5" y="-174.75" font-family="Helvetica,sans-Serif" font-size="10.00">&#45;</text>
<text xml:space="preserve" text-anchor="start" x="14" y="-174.75" font-family="Helvetica,sans-Serif" font-size="10.00">open</text>
<text xml:space="preserve" text-anchor="start" x="5.5" y="-159.5" font-family="Helvetica,sans-Serif" font-size="10.00">&#45;</text>
<text xml:space="preserve" text-anchor="start" x="14" y="-159.5" font-family="Helvetica,sans-Serif" font-size="10.00">shopRequest</text>
<text xml:space="preserve" text-anchor="start" x="4" y="-144.25" font-family="Helvetica,sans-Serif" font-size="10.00">+</text>
<text xml:space="preserve" text-anchor="start" x="14" y="-144.25" font-family="Helvetica,sans-Serif" font-size="10.00">load()</text>
<text xml:space="preserve" text-anchor="start" x="4" y="-129" font-family="Helvetica,sans-Serif" font-size="10.00">+</text>
<text xml:space="preserve" text-anchor="start" x="14" y="-129" font-family="Helvetica,sans-Serif" font-size="10.00">update()</text>
<text xml:space="preserve" text-anchor="start" x="4" y="-113.75" font-family="Helvetica,sans-Serif" font-size="10.00">+</text>
<text xml:space="preserve" text-anchor="start" x="14" y="-113.75" font-family="Helvetica,sans-Serif" font-size="10.00">promptFor()</text>
<text xml:space="preserve" text-anchor="start" x="4" y="-98.5" font-family="Helvetica,sans-Serif" font-size="10.00">+</text>
<text xml:space="preserve" text-anchor="start" x="14" y="-98.5" font-family="Helvetica,sans-Serif" font-size="10.00">isOpen()</text>
<text xml:space="preserve" text-anchor="start" x="4" y="-83.25" font-family="Helvetica,sans-Serif" font-size="10.00">+</text>
<text xml:space="preserve" text-anchor="start" x="14" y="-83.25" font-family="Helvetica,sans-Serif" font-size="10.00">leave()</text>
<text xml:space="preserve" text-anchor="start" x="4" y="-68" font-family="Helvetica,sans-Serif" font-size="10.00">+</text>
<text xml:space="preserve" text-anchor="start" x="14" y="-68" font-family="Helvetica,sans-Serif" font-size="10.00">activeNpcId()</text>
<text xml:space="preserve" text-anchor="start" x="4" y="-52.75" font-family="Helvetica,sans-Serif" font-size="10.00">+</text>
<text xml:space="preserve" text-anchor="start" x="14" y="-52.75" font-family="Helvetica,sans-Serif" font-size="10.00">consumeShopRequest()</text>
<text xml:space="preserve" text-anchor="start" x="4" y="-37.5" font-family="Helvetica,sans-Serif" font-size="10.00">+</text>
<text xml:space="preserve" text-anchor="start" x="14" y="-37.5" font-family="Helvetica,sans-Serif" font-size="10.00">draw()</text>
<text xml:space="preserve" text-anchor="start" x="5.5" y="-22.25" font-family="Helvetica,sans-Serif" font-size="10.00">&#45;</text>
<text xml:space="preserve" text-anchor="start" x="14" y="-22.25" font-family="Helvetica,sans-Serif" font-size="10.00">currentNode()</text>
<text xml:space="preserve" text-anchor="start" x="5.5" y="-7" font-family="Helvetica,sans-Serif" font-size="10.00">&#45;</text>
<text xml:space="preserve" text-anchor="start" x="14" y="-7" font-family="Helvetica,sans-Serif" font-size="10.00">close()</text>
<polygon fill="#666666" stroke="#666666" points="0,-185 0,-185 123,-185 123,-185 0,-185"/>
<polygon fill="#666666" stroke="#666666" points="0,-154.5 0,-154.5 12,-154.5 12,-154.5 0,-154.5"/>
<polygon fill="#666666" stroke="#666666" points="12,-154.5 12,-154.5 123,-154.5 123,-154.5 12,-154.5"/>
<polygon fill="none" stroke="#666666" points="0,0 0,-202.25 123,-202.25 123,0 0,0"/>
</a>
</g>
</g>
<!-- Node2 -->
<g id="Node000002" class="node">
<title>Node2</title>
<g id="a_Node000002"><a xlink:title=" ">
<polygon fill="white" stroke="none" points="211.75,-327.75 73.25,-327.75 73.25,-255.5 211.75,-255.5 211.75,-327.75"/>
<text xml:space="preserve" text-anchor="start" x="77.25" y="-315.5" font-family="Helvetica,sans-Serif" font-size="10.00">std::unordered_map</text>
<text xml:space="preserve" text-anchor="start" x="77.25" y="-304.25" font-family="Helvetica,sans-Serif" font-size="10.00">&lt; std::string, DialogueSystem</text>
<text xml:space="preserve" text-anchor="start" x="125.25" y="-293" font-family="Helvetica,sans-Serif" font-size="10.00">::Tree &gt;</text>
<text xml:space="preserve" text-anchor="start" x="141" y="-277.75" font-family="Helvetica,sans-Serif" font-size="10.00"> </text>
<text xml:space="preserve" text-anchor="start" x="141" y="-262.5" font-family="Helvetica,sans-Serif" font-size="10.00"> </text>
<polygon fill="#666666" stroke="#666666" points="73.25,-288 73.25,-288 211.75,-288 211.75,-288 73.25,-288"/>
<polygon fill="#666666" stroke="#666666" points="73.25,-272.75 73.25,-272.75 211.75,-272.75 211.75,-272.75 73.25,-272.75"/>
<polygon fill="none" stroke="#666666" points="73.25,-255.5 73.25,-327.75 211.75,-327.75 211.75,-255.5 73.25,-255.5"/>
</a>
</g>
</g>
<!-- Node2&#45;&gt;Node1 -->
<g id="edge1_Node000001_Node000002" class="edge">
<title>Node2&#45;&gt;Node1</title>
<g id="a_edge1_Node000001_Node000002"><a xlink:title=" ">
<path fill="none" stroke="#63b8ff" d="M127.45,-255.61C122.17,-243.31 115.91,-228.74 109.38,-213.56"/>
<polygon fill="none" stroke="#63b8ff" points="109.45,-213.71 103.41,-209.78 104.71,-202.69 110.76,-206.62 109.45,-213.71"/>
</a>
</g>
<text xml:space="preserve" text-anchor="start" x="121.57" y="-226.25" font-family="Helvetica,sans-Serif" font-size="10.00" fill="grey">&#45;trees</text>
</g>
<!-- Node3 -->
<g id="Node000003" class="node">
<title>Node3</title>
<g id="a_Node000003"><a xlink:title=" ">
<polygon fill="white" stroke="none" points="225.25,-1040.5 173.75,-1040.5 173.75,-990.75 225.25,-990.75 225.25,-1040.5"/>
<text xml:space="preserve" text-anchor="start" x="177.75" y="-1028.25" font-family="Helvetica,sans-Serif" font-size="10.00">std::string</text>
<text xml:space="preserve" text-anchor="start" x="198" y="-1013" font-family="Helvetica,sans-Serif" font-size="10.00"> </text>
<text xml:space="preserve" text-anchor="start" x="198" y="-997.75" font-family="Helvetica,sans-Serif" font-size="10.00"> </text>
<polygon fill="#666666" stroke="#666666" points="173.75,-1023.25 173.75,-1023.25 225.25,-1023.25 225.25,-1023.25 173.75,-1023.25"/>
<polygon fill="#666666" stroke="#666666" points="173.75,-1008 173.75,-1008 225.25,-1008 225.25,-1008 173.75,-1008"/>
<polygon fill="none" stroke="#666666" points="173.75,-990.75 173.75,-1040.5 225.25,-1040.5 225.25,-990.75 173.75,-990.75"/>
</a>
</g>
</g>
<!-- Node3&#45;&gt;Node1 -->
<g id="edge13_Node000001_Node000003" class="edge">
<title>Node3&#45;&gt;Node1</title>
<g id="a_edge13_Node000001_Node000003"><a xlink:title=" ">
<path fill="none" stroke="#63b8ff" d="M174.07,-1006.23C130.33,-990 45.5,-949.92 45.5,-883.12 45.5,-883.12 45.5,-883.12 45.5,-290.62 45.5,-266.01 46.87,-239.66 48.81,-214.69"/>
<polygon fill="none" stroke="#63b8ff" points="48.81,-214.63 45.32,-208.33 49.8,-202.67 53.29,-208.98 48.81,-214.63"/>
</a>
</g>
<text xml:space="preserve" text-anchor="start" x="48.5" y="-595.5" font-family="Helvetica,sans-Serif" font-size="10.00" fill="grey">&#45;activeNpc</text>
<text xml:space="preserve" text-anchor="start" x="48.5" y="-580.25" font-family="Helvetica,sans-Serif" font-size="10.00" fill="grey">&#45;nodeId</text>
</g>
<!-- Node3&#45;&gt;Node2 -->
<g id="edge2_Node000002_Node000003" class="edge">
<title>Node3&#45;&gt;Node2</title>
<g id="a_edge2_Node000002_Node000003"><a xlink:title=" ">
<path fill="none" stroke="#63b8ff" d="M174.16,-993.22C148.79,-969.25 113.5,-927.86 113.5,-883.12 113.5,-883.12 113.5,-883.12 113.5,-404.88 113.5,-383.16 118.65,-359.82 124.61,-340.07"/>
<polygon fill="none" stroke="#63b8ff" points="124.65,-339.95 122.67,-333.01 128.32,-328.53 130.29,-335.46 124.65,-339.95"/>
</a>
</g>
<text xml:space="preserve" text-anchor="start" x="116.5" y="-647" font-family="Helvetica,sans-Serif" font-size="10.00" fill="grey">+keys</text>
</g>
<!-- Node5 -->
<g id="Node000005" class="node">
<title>Node5</title>
<g id="a_Node000005"><a xlink:href="struct_dialogue_system_1_1_tree.html" target="_top" xlink:title="One NPC&#39;s whole conversation graph.">
<polygon fill="white" stroke="none" points="247.25,-430.75 141.75,-430.75 141.75,-381 247.25,-381 247.25,-430.75"/>
<text xml:space="preserve" text-anchor="start" x="145.75" y="-418.5" font-family="Helvetica,sans-Serif" font-size="10.00">DialogueSystem::Tree</text>
<text xml:space="preserve" text-anchor="start" x="193" y="-403.25" font-family="Helvetica,sans-Serif" font-size="10.00"> </text>
<text xml:space="preserve" text-anchor="start" x="193" y="-388" font-family="Helvetica,sans-Serif" font-size="10.00"> </text>
<polygon fill="#666666" stroke="#666666" points="141.75,-413.5 141.75,-413.5 247.25,-413.5 247.25,-413.5 141.75,-413.5"/>
<polygon fill="#666666" stroke="#666666" points="141.75,-398.25 141.75,-398.25 247.25,-398.25 247.25,-398.25 141.75,-398.25"/>
<polygon fill="none" stroke="#666666" points="141.75,-381 141.75,-430.75 247.25,-430.75 247.25,-381 141.75,-381"/>
</a>
</g>
</g>
<!-- Node3&#45;&gt;Node5 -->
<g id="edge5_Node000005_Node000003" class="edge">
<title>Node3&#45;&gt;Node5</title>
<g id="a_edge5_Node000005_Node000003"><a xlink:title=" ">
<path fill="none" stroke="#63b8ff" d="M192.27,-991.12C184.89,-965.01 174.5,-921.47 174.5,-883.12 174.5,-883.12 174.5,-883.12 174.5,-519.12 174.5,-493.55 179.59,-465.2 184.64,-443.39"/>
<polygon fill="none" stroke="#63b8ff" points="184.67,-443.28 182.21,-436.5 187.52,-431.62 189.98,-438.4 184.67,-443.28"/>
</a>
</g>
<text xml:space="preserve" text-anchor="start" x="177.5" y="-713.75" font-family="Helvetica,sans-Serif" font-size="10.00" fill="grey">+name</text>
<text xml:space="preserve" text-anchor="start" x="177.5" y="-698.5" font-family="Helvetica,sans-Serif" font-size="10.00" fill="grey">+start</text>
</g>
<!-- Node6 -->
<g id="Node000006" class="node">
<title>Node6</title>
<g id="a_Node000006"><a xlink:title=" ">
<polygon fill="white" stroke="none" points="340.75,-556.25 202.25,-556.25 202.25,-484 340.75,-484 340.75,-556.25"/>
<text xml:space="preserve" text-anchor="start" x="206.25" y="-544" font-family="Helvetica,sans-Serif" font-size="10.00">std::unordered_map</text>
<text xml:space="preserve" text-anchor="start" x="206.25" y="-532.75" font-family="Helvetica,sans-Serif" font-size="10.00">&lt; std::string, DialogueSystem</text>
<text xml:space="preserve" text-anchor="start" x="252.38" y="-521.5" font-family="Helvetica,sans-Serif" font-size="10.00">::Node &gt;</text>
<text xml:space="preserve" text-anchor="start" x="270" y="-506.25" font-family="Helvetica,sans-Serif" font-size="10.00"> </text>
<text xml:space="preserve" text-anchor="start" x="270" y="-491" font-family="Helvetica,sans-Serif" font-size="10.00"> </text>
<polygon fill="#666666" stroke="#666666" points="202.25,-516.5 202.25,-516.5 340.75,-516.5 340.75,-516.5 202.25,-516.5"/>
<polygon fill="#666666" stroke="#666666" points="202.25,-501.25 202.25,-501.25 340.75,-501.25 340.75,-501.25 202.25,-501.25"/>
<polygon fill="none" stroke="#666666" points="202.25,-484 202.25,-556.25 340.75,-556.25 340.75,-484 202.25,-484"/>
</a>
</g>
</g>
<!-- Node3&#45;&gt;Node6 -->
<g id="edge7_Node000006_Node000003" class="edge">
<title>Node3&#45;&gt;Node6</title>
<g id="a_edge7_Node000006_Node000003"><a xlink:title=" ">
<path fill="none" stroke="#63b8ff" d="M207.02,-991.15C214.7,-965.05 225.5,-921.52 225.5,-883.12 225.5,-883.12 225.5,-883.12 225.5,-648.62 225.5,-620.77 235.33,-591.42 245.91,-567.9"/>
<polygon fill="none" stroke="#63b8ff" points="245.94,-567.84 244.89,-560.71 251.07,-557 252.12,-564.13 245.94,-567.84"/>
</a>
</g>
<text xml:space="preserve" text-anchor="start" x="228.5" y="-770.88" font-family="Helvetica,sans-Serif" font-size="10.00" fill="grey">+keys</text>
</g>
<!-- Node7 -->
<g id="Node000007" class="node">
<title>Node7</title>
<g id="a_Node000007"><a xlink:href="struct_dialogue_system_1_1_node.html" target="_top" xlink:title="A single line the NPC says plus the choices offered after it.">
<polygon fill="white" stroke="none" points="363.12,-674.5 253.88,-674.5 253.88,-624.75 363.12,-624.75 363.12,-674.5"/>
<text xml:space="preserve" text-anchor="start" x="257.88" y="-662.25" font-family="Helvetica,sans-Serif" font-size="10.00">DialogueSystem::Node</text>
<text xml:space="preserve" text-anchor="start" x="307" y="-647" font-family="Helvetica,sans-Serif" font-size="10.00"> </text>
<text xml:space="preserve" text-anchor="start" x="307" y="-631.75" font-family="Helvetica,sans-Serif" font-size="10.00"> </text>
<polygon fill="#666666" stroke="#666666" points="253.88,-657.25 253.88,-657.25 363.12,-657.25 363.12,-657.25 253.88,-657.25"/>
<polygon fill="#666666" stroke="#666666" points="253.88,-642 253.88,-642 363.12,-642 363.12,-642 253.88,-642"/>
<polygon fill="none" stroke="#666666" points="253.88,-624.75 253.88,-674.5 363.12,-674.5 363.12,-624.75 253.88,-624.75"/>
</a>
</g>
</g>
<!-- Node3&#45;&gt;Node7 -->
<g id="edge9_Node000007_Node000003" class="edge">
<title>Node3&#45;&gt;Node7</title>
<g id="a_edge9_Node000007_Node000003"><a xlink:title=" ">
<path fill="none" stroke="#63b8ff" d="M224.89,-992.54C230.42,-986.61 235.74,-979.86 239.5,-972.75 289.62,-878.05 303.33,-749.46 307.09,-687.28"/>
<polygon fill="none" stroke="#63b8ff" points="307.09,-687.24 303.42,-681.04 307.73,-675.26 311.4,-681.46 307.09,-687.24"/>
</a>
</g>
<text xml:space="preserve" text-anchor="start" x="292.66" y="-828" font-family="Helvetica,sans-Serif" font-size="10.00" fill="grey">+text</text>
</g>
<!-- Node9 -->
<g id="Node000009" class="node">
<title>Node9</title>
<g id="a_Node000009"><a xlink:href="struct_dialogue_system_1_1_choice.html" target="_top" xlink:title="One selectable option within a node.">
<polygon fill="white" stroke="none" points="435.88,-907 319.12,-907 319.12,-857.25 435.88,-857.25 435.88,-907"/>
<text xml:space="preserve" text-anchor="start" x="323.12" y="-894.75" font-family="Helvetica,sans-Serif" font-size="10.00">DialogueSystem::Choice</text>
<text xml:space="preserve" text-anchor="start" x="376" y="-879.5" font-family="Helvetica,sans-Serif" font-size="10.00"> </text>
<text xml:space="preserve" text-anchor="start" x="376" y="-864.25" font-family="Helvetica,sans-Serif" font-size="10.00"> </text>
<polygon fill="#666666" stroke="#666666" points="319.12,-889.75 319.12,-889.75 435.88,-889.75 435.88,-889.75 319.12,-889.75"/>
<polygon fill="#666666" stroke="#666666" points="319.12,-874.5 319.12,-874.5 435.88,-874.5 435.88,-874.5 319.12,-874.5"/>
<polygon fill="none" stroke="#666666" points="319.12,-857.25 319.12,-907 435.88,-907 435.88,-857.25 319.12,-857.25"/>
</a>
</g>
</g>
<!-- Node3&#45;&gt;Node9 -->
<g id="edge12_Node000009_Node000003" class="edge">
<title>Node3&#45;&gt;Node9</title>
<g id="a_edge12_Node000009_Node000003"><a xlink:title=" ">
<path fill="none" stroke="#63b8ff" d="M225.25,-1007.63C246.73,-1000.96 277.44,-989.46 300.5,-972.75 321.47,-957.56 340.48,-935.56 354.36,-917.16"/>
<polygon fill="none" stroke="#63b8ff" points="354.31,-917.23 354.62,-910.03 361.39,-907.54 361.08,-914.75 354.31,-917.23"/>
</a>
</g>
<text xml:space="preserve" text-anchor="start" x="350.86" y="-961.5" font-family="Helvetica,sans-Serif" font-size="10.00" fill="grey">+action</text>
<text xml:space="preserve" text-anchor="start" x="350.86" y="-946.25" font-family="Helvetica,sans-Serif" font-size="10.00" fill="grey">+label</text>
<text xml:space="preserve" text-anchor="start" x="350.86" y="-931" font-family="Helvetica,sans-Serif" font-size="10.00" fill="grey">+next</text>
</g>
<!-- Node4 -->
<g id="Node000004" class="node">
<title>Node4</title>
<g id="a_Node000004"><a xlink:title=" ">
<polygon fill="white" stroke="none" points="242.5,-1138.5 156.5,-1138.5 156.5,-1077.5 242.5,-1077.5 242.5,-1138.5"/>
<text xml:space="preserve" text-anchor="start" x="160.5" y="-1126.25" font-family="Helvetica,sans-Serif" font-size="10.00">std::basic_string&lt;</text>
<text xml:space="preserve" text-anchor="start" x="183" y="-1115" font-family="Helvetica,sans-Serif" font-size="10.00"> Char &gt;</text>
<text xml:space="preserve" text-anchor="start" x="198" y="-1099.75" font-family="Helvetica,sans-Serif" font-size="10.00"> </text>
<text xml:space="preserve" text-anchor="start" x="198" y="-1084.5" font-family="Helvetica,sans-Serif" font-size="10.00"> </text>
<polygon fill="#666666" stroke="#666666" points="156.5,-1110 156.5,-1110 242.5,-1110 242.5,-1110 156.5,-1110"/>
<polygon fill="#666666" stroke="#666666" points="156.5,-1094.75 156.5,-1094.75 242.5,-1094.75 242.5,-1094.75 156.5,-1094.75"/>
<polygon fill="none" stroke="#666666" points="156.5,-1077.5 156.5,-1138.5 242.5,-1138.5 242.5,-1077.5 156.5,-1077.5"/>
</a>
</g>
</g>
<!-- Node4&#45;&gt;Node3 -->
<g id="edge3_Node000003_Node000004" class="edge">
<title>Node4&#45;&gt;Node3</title>
<g id="a_edge3_Node000003_Node000004"><a xlink:title=" ">
<path fill="none" stroke="#63b8ff" d="M199.5,-1066.4C199.5,-1057.44 199.5,-1048.25 199.5,-1040.23"/>
<polygon fill="none" stroke="#63b8ff" points="196,-1066.39 199.5,-1076.39 203,-1066.39 196,-1066.39"/>
</a>
</g>
</g>
<!-- Node5&#45;&gt;Node2 -->
<g id="edge4_Node000002_Node000005" class="edge">
<title>Node5&#45;&gt;Node2</title>
<g id="a_edge4_Node000002_Node000005"><a xlink:title=" ">
<path fill="none" stroke="#63b8ff" d="M183.47,-381.07C177.84,-368.9 170.78,-353.66 164.11,-339.28"/>
<polygon fill="none" stroke="#63b8ff" points="164.07,-339.18 157.92,-335.42 159.02,-328.3 165.18,-332.06 164.07,-339.18"/>
</a>
</g>
<text xml:space="preserve" text-anchor="start" x="177.69" y="-351.75" font-family="Helvetica,sans-Serif" font-size="10.00" fill="grey">+elements</text>
</g>
<!-- Node6&#45;&gt;Node5 -->
<g id="edge6_Node000005_Node000006" class="edge">
<title>Node6&#45;&gt;Node5</title>
<g id="a_edge6_Node000005_Node000006"><a xlink:title=" ">
<path fill="none" stroke="#63b8ff" d="M247.56,-484.22C238.15,-470.51 227.39,-454.82 218.02,-441.17"/>
<polygon fill="none" stroke="#63b8ff" points="218.16,-441.37 211.47,-438.69 211.38,-431.48 218.07,-434.16 218.16,-441.37"/>
</a>
</g>
<text xml:space="preserve" text-anchor="start" x="236" y="-454.75" font-family="Helvetica,sans-Serif" font-size="10.00" fill="grey">+nodes</text>
</g>
<!-- Node7&#45;&gt;Node6 -->
<g id="edge8_Node000006_Node000007" class="edge">
<title>Node7&#45;&gt;Node6</title>
<g id="a_edge8_Node000006_Node000007"><a xlink:title=" ">
<path fill="none" stroke="#63b8ff" d="M301.63,-624.94C297.05,-609.19 290.89,-587.94 285.33,-568.77"/>
<polygon fill="none" stroke="#63b8ff" points="285.28,-568.63 279.77,-563.98 281.94,-557.1 287.45,-561.75 285.28,-568.63"/>
</a>
</g>
<text xml:space="preserve" text-anchor="start" x="298.48" y="-587.88" font-family="Helvetica,sans-Serif" font-size="10.00" fill="grey">+elements</text>
</g>
<!-- Node8 -->
<g id="Node000008" class="node">
<title>Node8</title>
<g id="a_Node000008"><a xlink:title=" ">
<polygon fill="white" stroke="none" points="450.25,-804 314.75,-804 314.75,-743 450.25,-743 450.25,-804"/>
<text xml:space="preserve" text-anchor="start" x="318.75" y="-791.75" font-family="Helvetica,sans-Serif" font-size="10.00">std::vector&lt; DialogueSystem</text>
<text xml:space="preserve" text-anchor="start" x="359.62" y="-780.5" font-family="Helvetica,sans-Serif" font-size="10.00">::Choice &gt;</text>
<text xml:space="preserve" text-anchor="start" x="381" y="-765.25" font-family="Helvetica,sans-Serif" font-size="10.00"> </text>
<text xml:space="preserve" text-anchor="start" x="381" y="-750" font-family="Helvetica,sans-Serif" font-size="10.00"> </text>
<polygon fill="#666666" stroke="#666666" points="314.75,-775.5 314.75,-775.5 450.25,-775.5 450.25,-775.5 314.75,-775.5"/>
<polygon fill="#666666" stroke="#666666" points="314.75,-760.25 314.75,-760.25 450.25,-760.25 450.25,-760.25 314.75,-760.25"/>
<polygon fill="none" stroke="#666666" points="314.75,-743 314.75,-804 450.25,-804 450.25,-743 314.75,-743"/>
</a>
</g>
</g>
<!-- Node8&#45;&gt;Node7 -->
<g id="edge10_Node000007_Node000008" class="edge">
<title>Node8&#45;&gt;Node7</title>
<g id="a_edge10_Node000007_Node000008"><a xlink:title=" ">
<path fill="none" stroke="#63b8ff" d="M364.78,-743.31C354.2,-725.9 340.72,-703.68 329.6,-685.37"/>
<polygon fill="none" stroke="#63b8ff" points="329.55,-685.3 323.02,-682.25 323.32,-675.04 329.86,-678.09 329.55,-685.3"/>
</a>
</g>
<text xml:space="preserve" text-anchor="start" x="355.13" y="-706.12" font-family="Helvetica,sans-Serif" font-size="10.00" fill="grey">+choices</text>
</g>
<!-- Node9&#45;&gt;Node8 -->
<g id="edge11_Node000008_Node000009" class="edge">
<title>Node9&#45;&gt;Node8</title>
<g id="a_edge11_Node000008_Node000009"><a xlink:title=" ">
<path fill="none" stroke="#63b8ff" d="M378.61,-857.46C379.17,-845.47 379.87,-830.53 380.52,-816.66"/>
<polygon fill="none" stroke="#63b8ff" points="380.52,-816.69 376.81,-810.51 381.08,-804.71 384.8,-810.89 380.52,-816.69"/>
</a>
</g>
<text xml:space="preserve" text-anchor="start" x="383.15" y="-828" font-family="Helvetica,sans-Serif" font-size="10.00" fill="grey">+elements</text>
</g>
</g>
</svg>
