<?xml version="1.0" encoding="UTF-8" standalone="no"?>
<!DOCTYPE svg PUBLIC "-//W3C//DTD SVG 1.1//EN"
 "http://www.w3.org/Graphics/SVG/1.1/DTD/svg11.dtd">
<!-- Generated by graphviz version 15.0.0 (20260523.1842)
 -->
<!-- Title: ShopSystem Pages: 1 -->
<svg width="134pt" height="674pt"
 viewBox="0.00 0.00 134.00 674.00" xmlns="http://www.w3.org/2000/svg" xmlns:xlink="http://www.w3.org/1999/xlink">
<g id="graph0" class="graph" transform="scale(1 1) rotate(0) translate(4 670.25)">
<title>ShopSystem</title>
<!-- Node1 -->
<g id="Node000001" class="node">
<title>Node1</title>
<g id="a_Node000001"><a xlink:title="The merchant&#39;s buy/sell screen.">
<polygon fill="#999999" stroke="none" points="126,-187 0,-187 0,0 126,0 126,-187"/>
<text xml:space="preserve" text-anchor="start" x="34.88" y="-174.75" font-family="Helvetica,sans-Serif" font-size="10.00">ShopSystem</text>
<text xml:space="preserve" text-anchor="start" x="5.5" y="-159.5" font-family="Helvetica,sans-Serif" font-size="10.00">&#45;</text>
<text xml:space="preserve" text-anchor="start" x="14" y="-159.5" font-family="Helvetica,sans-Serif" font-size="10.00">open</text>
<text xml:space="preserve" text-anchor="start" x="5.5" y="-144.25" font-family="Helvetica,sans-Serif" font-size="10.00">&#45;</text>
<text xml:space="preserve" text-anchor="start" x="14" y="-144.25" font-family="Helvetica,sans-Serif" font-size="10.00">closeRequest</text>
<text xml:space="preserve" text-anchor="start" x="5.5" y="-129" font-family="Helvetica,sans-Serif" font-size="10.00">&#45;</text>
<text xml:space="preserve" text-anchor="start" x="14" y="-129" font-family="Helvetica,sans-Serif" font-size="10.00">gold</text>
<text xml:space="preserve" text-anchor="start" x="5.5" y="-113.75" font-family="Helvetica,sans-Serif" font-size="10.00">&#45;</text>
<text xml:space="preserve" text-anchor="start" x="14" y="-113.75" font-family="Helvetica,sans-Serif" font-size="10.00">ICON_SIZE</text>
<text xml:space="preserve" text-anchor="start" x="4" y="-98.5" font-family="Helvetica,sans-Serif" font-size="10.00">+</text>
<text xml:space="preserve" text-anchor="start" x="14" y="-98.5" font-family="Helvetica,sans-Serif" font-size="10.00">setOpen()</text>
<text xml:space="preserve" text-anchor="start" x="4" y="-83.25" font-family="Helvetica,sans-Serif" font-size="10.00">+</text>
<text xml:space="preserve" text-anchor="start" x="14" y="-83.25" font-family="Helvetica,sans-Serif" font-size="10.00">isOpen()</text>
<text xml:space="preserve" text-anchor="start" x="4" y="-68" font-family="Helvetica,sans-Serif" font-size="10.00">+</text>
<text xml:space="preserve" text-anchor="start" x="14" y="-68" font-family="Helvetica,sans-Serif" font-size="10.00">itemCount()</text>
<text xml:space="preserve" text-anchor="start" x="4" y="-52.75" font-family="Helvetica,sans-Serif" font-size="10.00">+</text>
<text xml:space="preserve" text-anchor="start" x="14" y="-52.75" font-family="Helvetica,sans-Serif" font-size="10.00">iconFile()</text>
<text xml:space="preserve" text-anchor="start" x="4" y="-37.5" font-family="Helvetica,sans-Serif" font-size="10.00">+</text>
<text xml:space="preserve" text-anchor="start" x="14" y="-37.5" font-family="Helvetica,sans-Serif" font-size="10.00">setIcon()</text>
<text xml:space="preserve" text-anchor="start" x="4" y="-22.25" font-family="Helvetica,sans-Serif" font-size="10.00">+</text>
<text xml:space="preserve" text-anchor="start" x="14" y="-22.25" font-family="Helvetica,sans-Serif" font-size="10.00">consumeCloseRequest()</text>
<text xml:space="preserve" text-anchor="start" x="4" y="-7" font-family="Helvetica,sans-Serif" font-size="10.00">+</text>
<text xml:space="preserve" text-anchor="start" x="14" y="-7" font-family="Helvetica,sans-Serif" font-size="10.00">draw()</text>
<polygon fill="#666666" stroke="#666666" points="0,-169.75 0,-169.75 126,-169.75 126,-169.75 0,-169.75"/>
<polygon fill="#666666" stroke="#666666" points="0,-108.75 0,-108.75 12,-108.75 12,-108.75 0,-108.75"/>
<polygon fill="#666666" stroke="#666666" points="12,-108.75 12,-108.75 126,-108.75 126,-108.75 12,-108.75"/>
<polygon fill="none" stroke="#666666" points="0,0 0,-187 126,-187 126,0 0,0"/>
</a>
</g>
</g>
<!-- Node2 -->
<g id="Node000002" class="node">
<title>Node2</title>
<g id="a_Node000002"><a xlink:title=" ">
<polygon fill="white" stroke="none" points="122.88,-301.25 3.12,-301.25 3.12,-240.25 122.88,-240.25 122.88,-301.25"/>
<text xml:space="preserve" text-anchor="start" x="7.12" y="-289" font-family="Helvetica,sans-Serif" font-size="10.00">std::vector&lt; ShopSystem</text>
<text xml:space="preserve" text-anchor="start" x="45.75" y="-277.75" font-family="Helvetica,sans-Serif" font-size="10.00">::Item &gt;</text>
<text xml:space="preserve" text-anchor="start" x="61.5" y="-262.5" font-family="Helvetica,sans-Serif" font-size="10.00"> </text>
<text xml:space="preserve" text-anchor="start" x="61.5" y="-247.25" font-family="Helvetica,sans-Serif" font-size="10.00"> </text>
<polygon fill="#666666" stroke="#666666" points="3.12,-272.75 3.12,-272.75 122.88,-272.75 122.88,-272.75 3.12,-272.75"/>
<polygon fill="#666666" stroke="#666666" points="3.12,-257.5 3.12,-257.5 122.88,-257.5 122.88,-257.5 3.12,-257.5"/>
<polygon fill="none" stroke="#666666" points="3.12,-240.25 3.12,-301.25 122.88,-301.25 122.88,-240.25 3.12,-240.25"/>
</a>
</g>
</g>
<!-- Node2&#45;&gt;Node1 -->
<g id="edge1_Node000001_Node000002" class="edge">
<title>Node2&#45;&gt;Node1</title>
<g id="a_edge1_Node000001_Node000002"><a xlink:title=" ">
<path fill="none" stroke="#63b8ff" d="M63,-240.42C63,-228.69 63,-214.42 63,-199.45"/>
<polygon fill="none" stroke="#63b8ff" points="63,-199.65 59,-193.65 63,-187.65 67,-193.65 63,-199.65"/>
</a>
</g>
<text xml:space="preserve" text-anchor="start" x="66" y="-211" font-family="Helvetica,sans-Serif" font-size="10.00" fill="grey">&#45;items</text>
</g>
<!-- Node3 -->
<g id="Node000003" class="node">
<title>Node3</title>
<g id="a_Node000003"><a xlink:href="struct_shop_system_1_1_item.html" target="_top" xlink:title="One row of the wares table: a buyable/sellable good.">
<polygon fill="white" stroke="none" points="107.88,-450 18.12,-450 18.12,-354.5 107.88,-354.5 107.88,-450"/>
<text xml:space="preserve" text-anchor="start" x="22.12" y="-437.75" font-family="Helvetica,sans-Serif" font-size="10.00">ShopSystem::Item</text>
<text xml:space="preserve" text-anchor="start" x="32.94" y="-422.5" font-family="Helvetica,sans-Serif" font-size="10.00">+</text>
<text xml:space="preserve" text-anchor="start" x="53.75" y="-422.5" font-family="Helvetica,sans-Serif" font-size="10.00">price</text>
<text xml:space="preserve" text-anchor="start" x="32.94" y="-407.25" font-family="Helvetica,sans-Serif" font-size="10.00">+</text>
<text xml:space="preserve" text-anchor="start" x="53.75" y="-407.25" font-family="Helvetica,sans-Serif" font-size="10.00">stock</text>
<text xml:space="preserve" text-anchor="start" x="32.94" y="-392" font-family="Helvetica,sans-Serif" font-size="10.00">+</text>
<text xml:space="preserve" text-anchor="start" x="53.75" y="-392" font-family="Helvetica,sans-Serif" font-size="10.00">owned</text>
<text xml:space="preserve" text-anchor="start" x="32.94" y="-376.75" font-family="Helvetica,sans-Serif" font-size="10.00">+</text>
<text xml:space="preserve" text-anchor="start" x="53.75" y="-376.75" font-family="Helvetica,sans-Serif" font-size="10.00">icon</text>
<text xml:space="preserve" text-anchor="start" x="61.5" y="-361.5" font-family="Helvetica,sans-Serif" font-size="10.00"> </text>
<polygon fill="#666666" stroke="#666666" points="18.12,-432.75 18.12,-432.75 107.88,-432.75 107.88,-432.75 18.12,-432.75"/>
<polygon fill="#666666" stroke="#666666" points="18.12,-371.75 18.12,-371.75 51.75,-371.75 51.75,-371.75 18.12,-371.75"/>
<polygon fill="#666666" stroke="#666666" points="51.75,-371.75 51.75,-371.75 107.88,-371.75 107.88,-371.75 51.75,-371.75"/>
<polygon fill="none" stroke="#666666" points="18.12,-354.5 18.12,-450 107.88,-450 107.88,-354.5 18.12,-354.5"/>
</a>
</g>
</g>
<!-- Node3&#45;&gt;Node2 -->
<g id="edge2_Node000002_Node000003" class="edge">
<title>Node3&#45;&gt;Node2</title>
<g id="a_edge2_Node000002_Node000003"><a xlink:title=" ">
<path fill="none" stroke="#63b8ff" d="M63,-354.86C63,-341.5 63,-327.01 63,-313.92"/>
<polygon fill="none" stroke="#63b8ff" points="63,-313.8 59,-307.8 63,-301.8 67,-307.8 63,-313.8"/>
</a>
</g>
<text xml:space="preserve" text-anchor="start" x="66" y="-325.25" font-family="Helvetica,sans-Serif" font-size="10.00" fill="grey">+elements</text>
</g>
<!-- Node4 -->
<g id="Node000004" class="node">
<title>Node4</title>
<g id="a_Node000004"><a xlink:title=" ">
<polygon fill="white" stroke="none" points="88.75,-568.25 37.25,-568.25 37.25,-518.5 88.75,-518.5 88.75,-568.25"/>
<text xml:space="preserve" text-anchor="start" x="41.25" y="-556" font-family="Helvetica,sans-Serif" font-size="10.00">std::string</text>
<text xml:space="preserve" text-anchor="start" x="61.5" y="-540.75" font-family="Helvetica,sans-Serif" font-size="10.00"> </text>
<text xml:space="preserve" text-anchor="start" x="61.5" y="-525.5" font-family="Helvetica,sans-Serif" font-size="10.00"> </text>
<polygon fill="#666666" stroke="#666666" points="37.25,-551 37.25,-551 88.75,-551 88.75,-551 37.25,-551"/>
<polygon fill="#666666" stroke="#666666" points="37.25,-535.75 37.25,-535.75 88.75,-535.75 88.75,-535.75 37.25,-535.75"/>
<polygon fill="none" stroke="#666666" points="37.25,-518.5 37.25,-568.25 88.75,-568.25 88.75,-518.5 37.25,-518.5"/>
</a>
</g>
</g>
<!-- Node4&#45;&gt;Node3 -->
<g id="edge3_Node000003_Node000004" class="edge">
<title>Node4&#45;&gt;Node3</title>
<g id="a_edge3_Node000003_Node000004"><a xlink:title=" ">
<path fill="none" stroke="#63b8ff" d="M63,-518.77C63,-503.32 63,-482.39 63,-462.59"/>
<polygon fill="none" stroke="#63b8ff" points="63,-462.71 59,-456.71 63,-450.71 67,-456.71 63,-462.71"/>
</a>
</g>
<text xml:space="preserve" text-anchor="start" x="66" y="-489.25" font-family="Helvetica,sans-Serif" font-size="10.00" fill="grey">+iconFile</text>
<text xml:space="preserve" text-anchor="start" x="66" y="-474" font-family="Helvetica,sans-Serif" font-size="10.00" fill="grey">+name</text>
</g>
<!-- Node5 -->
<g id="Node000005" class="node">
<title>Node5</title>
<g id="a_Node000005"><a xlink:title=" ">
<polygon fill="white" stroke="none" points="106,-666.25 20,-666.25 20,-605.25 106,-605.25 106,-666.25"/>
<text xml:space="preserve" text-anchor="start" x="24" y="-654" font-family="Helvetica,sans-Serif" font-size="10.00">std::basic_string&lt;</text>
<text xml:space="preserve" text-anchor="start" x="46.5" y="-642.75" font-family="Helvetica,sans-Serif" font-size="10.00"> Char &gt;</text>
<text xml:space="preserve" text-anchor="start" x="61.5" y="-627.5" font-family="Helvetica,sans-Serif" font-size="10.00"> </text>
<text xml:space="preserve" text-anchor="start" x="61.5" y="-612.25" font-family="Helvetica,sans-Serif" font-size="10.00"> </text>
<polygon fill="#666666" stroke="#666666" points="20,-637.75 20,-637.75 106,-637.75 106,-637.75 20,-637.75"/>
<polygon fill="#666666" stroke="#666666" points="20,-622.5 20,-622.5 106,-622.5 106,-622.5 20,-622.5"/>
<polygon fill="none" stroke="#666666" points="20,-605.25 20,-666.25 106,-666.25 106,-605.25 20,-605.25"/>
</a>
</g>
</g>
<!-- Node5&#45;&gt;Node4 -->
<g id="edge4_Node000004_Node000005" class="edge">
<title>Node5&#45;&gt;Node4</title>
<g id="a_edge4_Node000004_Node000005"><a xlink:title=" ">
<path fill="none" stroke="#63b8ff" d="M63,-594.15C63,-585.19 63,-576 63,-567.98"/>
<polygon fill="none" stroke="#63b8ff" points="59.5,-594.14 63,-604.14 66.5,-594.14 59.5,-594.14"/>
</a>
</g>
</g>
</g>
</svg>
