<?xml version="1.0" encoding="UTF-8" standalone="no"?>
<!DOCTYPE svg PUBLIC "-//W3C//DTD SVG 1.1//EN"
 "http://www.w3.org/Graphics/SVG/1.1/DTD/svg11.dtd">
<!-- Generated by graphviz version 15.0.0 (20260523.1842)
 -->
<!-- Title: VertexSimple Pages: 1 -->
<svg width="75pt" height="88pt"
 viewBox="0.00 0.00 75.00 88.00" xmlns="http://www.w3.org/2000/svg" xmlns:xlink="http://www.w3.org/1999/xlink">
<g id="graph0" class="graph" transform="scale(1 1) rotate(0) translate(4 84.25)">
<title>VertexSimple</title>
<!-- Node1 -->
<g id="Node000001" class="node">
<title>Node1</title>
<g id="a_Node000001"><a xlink:title="Vertex layout for the textured mesh pipeline.">
<polygon fill="#999999" stroke="none" points="66.5,-80.25 0,-80.25 0,0 66.5,0 66.5,-80.25"/>
<text xml:space="preserve" text-anchor="start" x="4" y="-68" font-family="Helvetica,sans-Serif" font-size="10.00">VertexSimple</text>
<text xml:space="preserve" text-anchor="start" x="10.69" y="-52.75" font-family="Helvetica,sans-Serif" font-size="10.00">+</text>
<text xml:space="preserve" text-anchor="start" x="27.38" y="-52.75" font-family="Helvetica,sans-Serif" font-size="10.00">pos</text>
<text xml:space="preserve" text-anchor="start" x="10.69" y="-37.5" font-family="Helvetica,sans-Serif" font-size="10.00">+</text>
<text xml:space="preserve" text-anchor="start" x="27.38" y="-37.5" font-family="Helvetica,sans-Serif" font-size="10.00">norm</text>
<text xml:space="preserve" text-anchor="start" x="10.69" y="-22.25" font-family="Helvetica,sans-Serif" font-size="10.00">+</text>
<text xml:space="preserve" text-anchor="start" x="27.38" y="-22.25" font-family="Helvetica,sans-Serif" font-size="10.00">UV</text>
<text xml:space="preserve" text-anchor="start" x="31.75" y="-7" font-family="Helvetica,sans-Serif" font-size="10.00"> </text>
<polygon fill="#666666" stroke="#666666" points="0,-63 0,-63 66.5,-63 66.5,-63 0,-63"/>
<polygon fill="#666666" stroke="#666666" points="0,-17.25 0,-17.25 25.38,-17.25 25.38,-17.25 0,-17.25"/>
<polygon fill="#666666" stroke="#666666" points="25.38,-17.25 25.38,-17.25 66.5,-17.25 66.5,-17.25 25.38,-17.25"/>
<polygon fill="none" stroke="#666666" points="0,0 0,-80.25 66.5,-80.25 66.5,0 0,0"/>
</a>
</g>
</g>
</g>
</svg>
