<?xml version="1.0" encoding="UTF-8" standalone="no"?>
<!DOCTYPE svg PUBLIC "-//W3C//DTD SVG 1.1//EN"
 "http://www.w3.org/Graphics/SVG/1.1/DTD/svg11.dtd">
<!-- Generated by graphviz version 15.0.0 (20260523.1842)
 -->
<!-- Title: DialogueSystem::Tree Pages: 1 -->
<!--zoomable 750 -->

<svg id="main" version="1.1" xmlns="http://www.w3.org/2000/svg" xmlns:xlink="http://www.w3.org/1999/xlink" xml:space="preserve" onload="init(evt)">

<style type="text/css"><![CDATA[
.node, .edge {opacity: 0.7;}
.node.selected, .edge.selected {opacity: 1;}
.edge:hover path { stroke: red; }
.edge:hover polygon { stroke: red; fill: red; }
]]></style>

<defs>
  <circle id="rim" cx="0" cy="0" r="7"/>
  <circle id="rim2" cx="0" cy="0" r="3.5"/>
  <g id="zoomPlus">
    <use xlink:href="#rim" fill="#404040"><set attributeName="fill" to="#808080" begin="zoomplus.mouseover" end="zoomplus.mouseout"/></use>
    <path d="M-4,0h8M0,-4v8" fill="none" stroke="white" stroke-width="1.5" pointer-events="none"/>
  </g>
  <g id="zoomMin">
    <use xlink:href="#rim" fill="#404040"><set attributeName="fill" to="#808080" begin="zoomminus.mouseover" end="zoomminus.mouseout"/></use>
    <path d="M-4,0h8" fill="none" stroke="white" stroke-width="1.5" pointer-events="none"/>
  </g>
  <g id="arrowUp" transform="translate(30 24)">
    <use xlink:href="#rim"/>
    <path pointer-events="none" fill="none" stroke="white" stroke-width="1.5" d="M0,-3.0v7 M-2.5,-0.5L0,-3.0L2.5,-0.5"/>
  </g>
  <g id="arrowRight" transform="rotate(90) translate(36 -43)">
    <use xlink:href="#rim"/>
    <path pointer-events="none" fill="none" stroke="white" stroke-width="1.5" d="M0,-3.0v7 M-2.5,-0.5L0,-3.0L2.5,-0.5"/>
  </g>
  <g id="arrowDown" transform="rotate(180) translate(-30 -48)">
    <use xlink:href="#rim"/>
    <path pointer-events="none" fill="none" stroke="white" stroke-width="1.5" d="M0,-3.0v7 M-2.5,-0.5L0,-3.0L2.5,-0.5"/>
  </g>
  <g id="arrowLeft" transform="rotate(270) translate(-36 17)">
    <use xlink:href="#rim"/>
    <path pointer-events="none" fill="none" stroke="white" stroke-width="1.5" d="M0,-3.0v7 M-2.5,-0.5L0,-3.0L2.5,-0.5"/>
  </g>
  <g id="resetDef">
    <use xlink:href="#rim2" fill="#404040"><set attributeName="fill" to="#808080" begin="reset.mouseover" end="reset.mouseout"/></use>
  </g>
</defs>
<script type="application/ecmascript">
var viewWidth = 321;
var viewHeight = 750;
var sectionId = 'dynsection-0';
</script>
<script type="application/ecmascript" xlink:href="svg.min.js"/>
<svg id="graph" class="graph">
<g id="viewport">
<title>DialogueSystem::Tree</title>
<!-- Node1 -->
<g id="Node000001" class="node">
<title>Node1</title>
<g id="a_Node000001"><a xlink:title="One NPC&#39;s whole conversation graph.">
<polygon fill="#999999" stroke="none" points="105.5,-49.75 0,-49.75 0,0 105.5,0 105.5,-49.75"/>
<text xml:space="preserve" text-anchor="start" x="4" y="-37.5" font-family="Helvetica,sans-Serif" font-size="10.00">DialogueSystem::Tree</text>
<text xml:space="preserve" text-anchor="start" x="51.25" y="-22.25" font-family="Helvetica,sans-Serif" font-size="10.00"> </text>
<text xml:space="preserve" text-anchor="start" x="51.25" y="-7" font-family="Helvetica,sans-Serif" font-size="10.00"> </text>
<polygon fill="#666666" stroke="#666666" points="0,-32.5 0,-32.5 105.5,-32.5 105.5,-32.5 0,-32.5"/>
<polygon fill="#666666" stroke="#666666" points="0,-17.25 0,-17.25 105.5,-17.25 105.5,-17.25 0,-17.25"/>
<polygon fill="none" stroke="#666666" points="0,0 0,-49.75 105.5,-49.75 105.5,0 0,0"/>
</a>
</g>
</g>
<!-- Node2 -->
<g id="Node000002" class="node">
<title>Node2</title>
<g id="a_Node000002"><a xlink:title=" ">
<polygon fill="white" stroke="none" points="143.5,-644.25 92,-644.25 92,-594.5 143.5,-594.5 143.5,-644.25"/>
<text xml:space="preserve" text-anchor="start" x="96" y="-632" font-family="Helvetica,sans-Serif" font-size="10.00">std::string</text>
<text xml:space="preserve" text-anchor="start" x="116.25" y="-616.75" font-family="Helvetica,sans-Serif" font-size="10.00"> </text>
<text xml:space="preserve" text-anchor="start" x="116.25" y="-601.5" font-family="Helvetica,sans-Serif" font-size="10.00"> </text>
<polygon fill="#666666" stroke="#666666" points="92,-627 92,-627 143.5,-627 143.5,-627 92,-627"/>
<polygon fill="#666666" stroke="#666666" points="92,-611.75 92,-611.75 143.5,-611.75 143.5,-611.75 92,-611.75"/>
<polygon fill="none" stroke="#666666" points="92,-594.5 92,-644.25 143.5,-644.25 143.5,-594.5 92,-594.5"/>
</a>
</g>
</g>
<!-- Node2&#45;&gt;Node1 -->
<g id="edge1_Node000001_Node000002" class="edge">
<title>Node2&#45;&gt;Node1</title>
<g id="a_edge1_Node000001_Node000002"><a xlink:title=" ">
<path fill="none" stroke="#63b8ff" d="M92.12,-594.87C68.39,-570.42 36.75,-529.78 36.75,-486.88 36.75,-486.88 36.75,-486.88 36.75,-138.12 36.75,-112.53 40.88,-83.98 44.94,-62.08"/>
<polygon fill="none" stroke="#63b8ff" points="44.94,-62.05 42.17,-55.39 47.25,-50.27 50.02,-56.93 44.94,-62.05"/>
</a>
</g>
<text xml:space="preserve" text-anchor="start" x="39.75" y="-317.5" font-family="Helvetica,sans-Serif" font-size="10.00" fill="grey">+name</text>
<text xml:space="preserve" text-anchor="start" x="39.75" y="-302.25" font-family="Helvetica,sans-Serif" font-size="10.00" fill="grey">+start</text>
</g>
<!-- Node4 -->
<g id="Node000004" class="node">
<title>Node4</title>
<g id="a_Node000004"><a xlink:title=" ">
<polygon fill="white" stroke="none" points="203,-175.25 64.5,-175.25 64.5,-103 203,-103 203,-175.25"/>
<text xml:space="preserve" text-anchor="start" x="68.5" y="-163" font-family="Helvetica,sans-Serif" font-size="10.00">std::unordered_map</text>
<text xml:space="preserve" text-anchor="start" x="68.5" y="-151.75" font-family="Helvetica,sans-Serif" font-size="10.00">&lt; std::string, DialogueSystem</text>
<text xml:space="preserve" text-anchor="start" x="114.62" y="-140.5" font-family="Helvetica,sans-Serif" font-size="10.00">::Node &gt;</text>
<text xml:space="preserve" text-anchor="start" x="132.25" y="-125.25" font-family="Helvetica,sans-Serif" font-size="10.00"> </text>
<text xml:space="preserve" text-anchor="start" x="132.25" y="-110" font-family="Helvetica,sans-Serif" font-size="10.00"> </text>
<polygon fill="#666666" stroke="#666666" points="64.5,-135.5 64.5,-135.5 203,-135.5 203,-135.5 64.5,-135.5"/>
<polygon fill="#666666" stroke="#666666" points="64.5,-120.25 64.5,-120.25 203,-120.25 203,-120.25 64.5,-120.25"/>
<polygon fill="none" stroke="#666666" points="64.5,-103 64.5,-175.25 203,-175.25 203,-103 64.5,-103"/>
</a>
</g>
</g>
<!-- Node2&#45;&gt;Node4 -->
<g id="edge4_Node000004_Node000002" class="edge">
<title>Node2&#45;&gt;Node4</title>
<g id="a_edge4_Node000004_Node000002"><a xlink:title=" ">
<path fill="none" stroke="#63b8ff" d="M108.91,-594.51C100.06,-568.44 87.75,-525.28 87.75,-486.88 87.75,-486.88 87.75,-486.88 87.75,-252.38 87.75,-229.59 95.96,-206.03 105.45,-186.4"/>
<polygon fill="none" stroke="#63b8ff" points="105.39,-186.51 104.58,-179.35 110.88,-175.84 111.69,-183 105.39,-186.51"/>
</a>
</g>
<text xml:space="preserve" text-anchor="start" x="90.75" y="-374.62" font-family="Helvetica,sans-Serif" font-size="10.00" fill="grey">+keys</text>
</g>
<!-- Node5 -->
<g id="Node000005" class="node">
<title>Node5</title>
<g id="a_Node000005"><a xlink:href="struct_dialogue_system_1_1_node.html" target="_top" xlink:title="A single line the NPC says plus the choices offered after it.">
<polygon fill="white" stroke="none" points="225.38,-278.25 116.12,-278.25 116.12,-228.5 225.38,-228.5 225.38,-278.25"/>
<text xml:space="preserve" text-anchor="start" x="120.12" y="-266" font-family="Helvetica,sans-Serif" font-size="10.00">DialogueSystem::Node</text>
<text xml:space="preserve" text-anchor="start" x="169.25" y="-250.75" font-family="Helvetica,sans-Serif" font-size="10.00"> </text>
<text xml:space="preserve" text-anchor="start" x="169.25" y="-235.5" font-family="Helvetica,sans-Serif" font-size="10.00"> </text>
<polygon fill="#666666" stroke="#666666" points="116.12,-261 116.12,-261 225.38,-261 225.38,-261 116.12,-261"/>
<polygon fill="#666666" stroke="#666666" points="116.12,-245.75 116.12,-245.75 225.38,-245.75 225.38,-245.75 116.12,-245.75"/>
<polygon fill="none" stroke="#666666" points="116.12,-228.5 116.12,-278.25 225.38,-278.25 225.38,-228.5 116.12,-228.5"/>
</a>
</g>
</g>
<!-- Node2&#45;&gt;Node5 -->
<g id="edge6_Node000005_Node000002" class="edge">
<title>Node2&#45;&gt;Node5</title>
<g id="a_edge6_Node000005_Node000002"><a xlink:title=" ">
<path fill="none" stroke="#63b8ff" d="M121.19,-594.77C130.21,-532.78 154.64,-365.01 165.47,-290.67"/>
<polygon fill="none" stroke="#63b8ff" points="165.46,-290.69 162.37,-284.18 167.19,-278.82 170.28,-285.33 165.46,-290.69"/>
</a>
</g>
<text xml:space="preserve" text-anchor="start" x="148.47" y="-431.75" font-family="Helvetica,sans-Serif" font-size="10.00" fill="grey">+text</text>
</g>
<!-- Node7 -->
<g id="Node000007" class="node">
<title>Node7</title>
<g id="a_Node000007"><a xlink:href="struct_dialogue_system_1_1_choice.html" target="_top" xlink:title="One selectable option within a node.">
<polygon fill="white" stroke="none" points="298.12,-510.75 181.38,-510.75 181.38,-461 298.12,-461 298.12,-510.75"/>
<text xml:space="preserve" text-anchor="start" x="185.38" y="-498.5" font-family="Helvetica,sans-Serif" font-size="10.00">DialogueSystem::Choice</text>
<text xml:space="preserve" text-anchor="start" x="238.25" y="-483.25" font-family="Helvetica,sans-Serif" font-size="10.00"> </text>
<text xml:space="preserve" text-anchor="start" x="238.25" y="-468" font-family="Helvetica,sans-Serif" font-size="10.00"> </text>
<polygon fill="#666666" stroke="#666666" points="181.38,-493.5 181.38,-493.5 298.12,-493.5 298.12,-493.5 181.38,-493.5"/>
<polygon fill="#666666" stroke="#666666" points="181.38,-478.25 181.38,-478.25 298.12,-478.25 298.12,-478.25 181.38,-478.25"/>
<polygon fill="none" stroke="#666666" points="181.38,-461 181.38,-510.75 298.12,-510.75 298.12,-461 181.38,-461"/>
</a>
</g>
</g>
<!-- Node2&#45;&gt;Node7 -->
<g id="edge9_Node000007_Node000002" class="edge">
<title>Node2&#45;&gt;Node7</title>
<g id="a_edge9_Node000007_Node000002"><a xlink:title=" ">
<path fill="none" stroke="#63b8ff" d="M143.45,-595.38C149.89,-589.37 156.69,-582.81 162.75,-576.5 179.98,-558.57 198.16,-537.53 212.52,-520.34"/>
<polygon fill="none" stroke="#63b8ff" points="212.26,-520.65 213.02,-513.48 219.92,-511.41 219.17,-518.58 212.26,-520.65"/>
</a>
</g>
<text xml:space="preserve" text-anchor="start" x="206.6" y="-565.25" font-family="Helvetica,sans-Serif" font-size="10.00" fill="grey">+action</text>
<text xml:space="preserve" text-anchor="start" x="206.6" y="-550" font-family="Helvetica,sans-Serif" font-size="10.00" fill="grey">+label</text>
<text xml:space="preserve" text-anchor="start" x="206.6" y="-534.75" font-family="Helvetica,sans-Serif" font-size="10.00" fill="grey">+next</text>
</g>
<!-- Node3 -->
<g id="Node000003" class="node">
<title>Node3</title>
<g id="a_Node000003"><a xlink:title=" ">
<polygon fill="white" stroke="none" points="160.75,-742.25 74.75,-742.25 74.75,-681.25 160.75,-681.25 160.75,-742.25"/>
<text xml:space="preserve" text-anchor="start" x="78.75" y="-730" font-family="Helvetica,sans-Serif" font-size="10.00">std::basic_string&lt;</text>
<text xml:space="preserve" text-anchor="start" x="101.25" y="-718.75" font-family="Helvetica,sans-Serif" font-size="10.00"> Char &gt;</text>
<text xml:space="preserve" text-anchor="start" x="116.25" y="-703.5" font-family="Helvetica,sans-Serif" font-size="10.00"> </text>
<text xml:space="preserve" text-anchor="start" x="116.25" y="-688.25" font-family="Helvetica,sans-Serif" font-size="10.00"> </text>
<polygon fill="#666666" stroke="#666666" points="74.75,-713.75 74.75,-713.75 160.75,-713.75 160.75,-713.75 74.75,-713.75"/>
<polygon fill="#666666" stroke="#666666" points="74.75,-698.5 74.75,-698.5 160.75,-698.5 160.75,-698.5 74.75,-698.5"/>
<polygon fill="none" stroke="#666666" points="74.75,-681.25 74.75,-742.25 160.75,-742.25 160.75,-681.25 74.75,-681.25"/>
</a>
</g>
</g>
<!-- Node3&#45;&gt;Node2 -->
<g id="edge2_Node000002_Node000003" class="edge">
<title>Node3&#45;&gt;Node2</title>
<g id="a_edge2_Node000002_Node000003"><a xlink:title=" ">
<path fill="none" stroke="#63b8ff" d="M117.75,-670.15C117.75,-661.19 117.75,-652 117.75,-643.98"/>
<polygon fill="none" stroke="#63b8ff" points="114.25,-670.14 117.75,-680.14 121.25,-670.14 114.25,-670.14"/>
</a>
</g>
</g>
<!-- Node4&#45;&gt;Node1 -->
<g id="edge3_Node000001_Node000004" class="edge">
<title>Node4&#45;&gt;Node1</title>
<g id="a_edge3_Node000001_Node000004"><a xlink:title=" ">
<path fill="none" stroke="#63b8ff" d="M108.57,-103.22C98.67,-89.51 87.35,-73.82 77.5,-60.17"/>
<polygon fill="none" stroke="#63b8ff" points="77.52,-60.2 70.76,-57.67 70.49,-50.46 77.25,-52.99 77.52,-60.2"/>
</a>
</g>
<text xml:space="preserve" text-anchor="start" x="96.25" y="-73.75" font-family="Helvetica,sans-Serif" font-size="10.00" fill="grey">+nodes</text>
</g>
<!-- Node5&#45;&gt;Node4 -->
<g id="edge5_Node000004_Node000005" class="edge">
<title>Node5&#45;&gt;Node4</title>
<g id="a_edge5_Node000004_Node000005"><a xlink:title=" ">
<path fill="none" stroke="#63b8ff" d="M162.9,-228.57C158.93,-216.52 153.97,-201.47 149.27,-187.21"/>
<polygon fill="none" stroke="#63b8ff" points="149.28,-187.23 143.6,-182.79 145.52,-175.83 151.2,-180.28 149.28,-187.23"/>
</a>
</g>
<text xml:space="preserve" text-anchor="start" x="159.65" y="-199.25" font-family="Helvetica,sans-Serif" font-size="10.00" fill="grey">+elements</text>
</g>
<!-- Node6 -->
<g id="Node000006" class="node">
<title>Node6</title>
<g id="a_Node000006"><a xlink:title=" ">
<polygon fill="white" stroke="none" points="312.5,-407.75 177,-407.75 177,-346.75 312.5,-346.75 312.5,-407.75"/>
<text xml:space="preserve" text-anchor="start" x="181" y="-395.5" font-family="Helvetica,sans-Serif" font-size="10.00">std::vector&lt; DialogueSystem</text>
<text xml:space="preserve" text-anchor="start" x="221.88" y="-384.25" font-family="Helvetica,sans-Serif" font-size="10.00">::Choice &gt;</text>
<text xml:space="preserve" text-anchor="start" x="243.25" y="-369" font-family="Helvetica,sans-Serif" font-size="10.00"> </text>
<text xml:space="preserve" text-anchor="start" x="243.25" y="-353.75" font-family="Helvetica,sans-Serif" font-size="10.00"> </text>
<polygon fill="#666666" stroke="#666666" points="177,-379.25 177,-379.25 312.5,-379.25 312.5,-379.25 177,-379.25"/>
<polygon fill="#666666" stroke="#666666" points="177,-364 177,-364 312.5,-364 312.5,-364 177,-364"/>
<polygon fill="none" stroke="#666666" points="177,-346.75 177,-407.75 312.5,-407.75 312.5,-346.75 177,-346.75"/>
</a>
</g>
</g>
<!-- Node6&#45;&gt;Node5 -->
<g id="edge7_Node000005_Node000006" class="edge">
<title>Node6&#45;&gt;Node5</title>
<g id="a_edge7_Node000005_Node000006"><a xlink:title=" ">
<path fill="none" stroke="#63b8ff" d="M227.03,-347.06C216.45,-329.65 202.97,-307.43 191.85,-289.12"/>
<polygon fill="none" stroke="#63b8ff" points="191.8,-289.05 185.27,-286 185.57,-278.79 192.11,-281.84 191.8,-289.05"/>
</a>
</g>
<text xml:space="preserve" text-anchor="start" x="217.38" y="-309.88" font-family="Helvetica,sans-Serif" font-size="10.00" fill="grey">+choices</text>
</g>
<!-- Node7&#45;&gt;Node6 -->
<g id="edge8_Node000006_Node000007" class="edge">
<title>Node7&#45;&gt;Node6</title>
<g id="a_edge8_Node000006_Node000007"><a xlink:title=" ">
<path fill="none" stroke="#63b8ff" d="M240.86,-461.21C241.42,-449.22 242.12,-434.28 242.77,-420.41"/>
<polygon fill="none" stroke="#63b8ff" points="242.77,-420.44 239.06,-414.26 243.33,-408.46 247.05,-414.64 242.77,-420.44"/>
</a>
</g>
<text xml:space="preserve" text-anchor="start" x="245.4" y="-431.75" font-family="Helvetica,sans-Serif" font-size="10.00" fill="grey">+elements</text>
</g>
</g>
</svg>

<g id="navigator" transform="translate(0 0)" fill="#404254">
  <rect fill="#f2f5e9" fill-opacity="0.5" stroke="#606060" stroke-width=".5" x="0" y="0" width="60" height="60"/>
  <use id="zoomplus" xlink:href="#zoomPlus" x="17" y="9" onmousedown="handleZoom(evt,'in')"/>
  <use id="zoomminus" xlink:href="#zoomMin" x="42" y="9" onmousedown="handleZoom(evt,'out')"/>
  <use id="reset" xlink:href="#resetDef" x="30" y="36" onmousedown="handleReset()"/>
   <use id="arrowup" xlink:href="#arrowUp" x="0" y="0" onmousedown="handlePan(0,-1)"/>
  <use id="arrowright" xlink:href="#arrowRight" x="0" y="0" onmousedown="handlePan(1,0)"/>
  <use id="arrowdown" xlink:href="#arrowDown" x="0" y="0" onmousedown="handlePan(0,1)"/>
  <use id="arrowleft" xlink:href="#arrowLeft" x="0" y="0" onmousedown="handlePan(-1,0)"/>
</g>
<svg viewBox="0 0 15 15" width="100%" height="30px" preserveAspectRatio="xMaxYMin meet">
 <g id="arrow_out" transform="scale(0.3 0.3)">
  <a xlink:href="struct_dialogue_system_1_1_tree__coll__graph_org.svg" target="_base">
   <rect id="button" ry="5" rx="5" y="6" x="6" height="38" width="38"
        fill="#f2f5e9" fill-opacity="0.5" stroke="#606060" stroke-width="1.0"/>
   <path id="arrow"
     d="M 11.500037,31.436501 C 11.940474,20.09759 22.043105,11.32322 32.158766,21.979434 L 37.068811,17.246167 C 37.068811,17.246167 37.088388,32 37.088388,32 L 22.160133,31.978069 C 22.160133,31.978069 26.997745,27.140456 26.997745,27.140456 C 18.528582,18.264221 13.291696,25.230495 11.500037,31.436501 z"
     style="fill:#404040;"/>
  </a>
 </g>
</svg>

<style type='text/css'>
<![CDATA[
[data-mouse-over-selected='false'] { opacity: 0.7; }
[data-mouse-over-selected='true']  { opacity: 1.0; }
]]>
</style>
<script type="application/ecmascript"><![CDATA[
document.addEventListener('DOMContentLoaded', (event) => {
  highlightEdges();
  highlightAdjacentNodes();
});
]]></script>
</svg>
