<?xml version="1.0" encoding="UTF-8" standalone="no"?>
<!DOCTYPE svg PUBLIC "-//W3C//DTD SVG 1.1//EN"
 "http://www.w3.org/Graphics/SVG/1.1/DTD/svg11.dtd">
<!-- Generated by graphviz version 15.0.0 (20260523.1842)
 -->
<!-- Title: GlobalUniformBufferObject Pages: 1 -->
<svg width="133pt" height="237pt"
 viewBox="0.00 0.00 133.00 237.00" xmlns="http://www.w3.org/2000/svg" xmlns:xlink="http://www.w3.org/1999/xlink">

<svg id="main" version="1.1" xmlns="http://www.w3.org/2000/svg" xmlns:xlink="http://www.w3.org/1999/xlink" xml:space="preserve">

<style type="text/css"><![CDATA[
.node, .edge {opacity: 0.7;}
.node.selected, .edge.selected {opacity: 1;}
.edge:hover path { stroke: red; }
.edge:hover polygon { stroke: red; fill: red; }
]]></style>
<script type="application/ecmascript" xlink:href="svg.min.js"/>
<svg id="graph" class="graph">
<g id="graph0" class="graph" transform="scale(1 1) rotate(0) translate(4 233)">
<title>GlobalUniformBufferObject</title>
<!-- Node1 -->
<g id="Node000001" class="node">
<title>Node1</title>
<g id="a_Node000001"><a xlink:title="Per&#45;frame global uniforms shared by every object (set 0).">
<polygon fill="#999999" stroke="none" points="125,-80.25 0,-80.25 0,0 125,0 125,-80.25"/>
<text xml:space="preserve" text-anchor="start" x="4" y="-68" font-family="Helvetica,sans-Serif" font-size="10.00">GlobalUniformBufferObject</text>
<text xml:space="preserve" text-anchor="start" x="17.44" y="-52.75" font-family="Helvetica,sans-Serif" font-size="10.00">+</text>
<text xml:space="preserve" text-anchor="start" x="40.88" y="-52.75" font-family="Helvetica,sans-Serif" font-size="10.00">eyePos</text>
<text xml:space="preserve" text-anchor="start" x="17.44" y="-37.5" font-family="Helvetica,sans-Serif" font-size="10.00">+</text>
<text xml:space="preserve" text-anchor="start" x="40.88" y="-37.5" font-family="Helvetica,sans-Serif" font-size="10.00">sunLightVP</text>
<text xml:space="preserve" text-anchor="start" x="17.44" y="-22.25" font-family="Helvetica,sans-Serif" font-size="10.00">+</text>
<text xml:space="preserve" text-anchor="start" x="40.88" y="-22.25" font-family="Helvetica,sans-Serif" font-size="10.00">spotLightVP</text>
<text xml:space="preserve" text-anchor="start" x="61" y="-7" font-family="Helvetica,sans-Serif" font-size="10.00"> </text>
<polygon fill="#666666" stroke="#666666" points="0,-63 0,-63 125,-63 125,-63 0,-63"/>
<polygon fill="#666666" stroke="#666666" points="0,-17.25 0,-17.25 38.88,-17.25 38.88,-17.25 0,-17.25"/>
<polygon fill="#666666" stroke="#666666" points="38.88,-17.25 38.88,-17.25 125,-17.25 125,-17.25 38.88,-17.25"/>
<polygon fill="none" stroke="#666666" points="0,0 0,-80.25 125,-80.25 125,0 0,0"/>
</a>
</g>
</g>
<!-- Node2 -->
<g id="Node000002" class="node">
<title>Node2</title>
<g id="a_Node000002"><a xlink:href="struct_light.html" target="_top" xlink:title="One light as uploaded to the GPU (std140&#45;aligned).">
<polygon fill="white" stroke="none" points="84.62,-229 40.38,-229 40.38,-133.5 84.62,-133.5 84.62,-229"/>
<text xml:space="preserve" text-anchor="start" x="52" y="-216.75" font-family="Helvetica,sans-Serif" font-size="10.00">Light</text>
<text xml:space="preserve" text-anchor="start" x="44.38" y="-201.5" font-family="Helvetica,sans-Serif" font-size="10.00">+</text>
<text xml:space="preserve" text-anchor="start" x="54.38" y="-201.5" font-family="Helvetica,sans-Serif" font-size="10.00">pos</text>
<text xml:space="preserve" text-anchor="start" x="44.38" y="-186.25" font-family="Helvetica,sans-Serif" font-size="10.00">+</text>
<text xml:space="preserve" text-anchor="start" x="54.38" y="-186.25" font-family="Helvetica,sans-Serif" font-size="10.00">dir</text>
<text xml:space="preserve" text-anchor="start" x="44.38" y="-171" font-family="Helvetica,sans-Serif" font-size="10.00">+</text>
<text xml:space="preserve" text-anchor="start" x="54.38" y="-171" font-family="Helvetica,sans-Serif" font-size="10.00">color</text>
<text xml:space="preserve" text-anchor="start" x="44.38" y="-155.75" font-family="Helvetica,sans-Serif" font-size="10.00">+</text>
<text xml:space="preserve" text-anchor="start" x="54.38" y="-155.75" font-family="Helvetica,sans-Serif" font-size="10.00">cones</text>
<text xml:space="preserve" text-anchor="start" x="61" y="-140.5" font-family="Helvetica,sans-Serif" font-size="10.00"> </text>
<polygon fill="#666666" stroke="#666666" points="40.38,-211.75 40.38,-211.75 84.62,-211.75 84.62,-211.75 40.38,-211.75"/>
<polygon fill="#666666" stroke="#666666" points="40.38,-150.75 40.38,-150.75 52.38,-150.75 52.38,-150.75 40.38,-150.75"/>
<polygon fill="#666666" stroke="#666666" points="52.38,-150.75 52.38,-150.75 84.62,-150.75 84.62,-150.75 52.38,-150.75"/>
<polygon fill="none" stroke="#666666" points="40.38,-133.5 40.38,-229 84.62,-229 84.62,-133.5 40.38,-133.5"/>
</a>
</g>
</g>
<!-- Node2&#45;&gt;Node1 -->
<g id="edge1_Node000001_Node000002" class="edge">
<title>Node2&#45;&gt;Node1</title>
<g id="a_edge1_Node000001_Node000002"><a xlink:title=" ">
<path fill="none" stroke="#63b8ff" d="M62.5,-133.54C62.5,-120.51 62.5,-106.28 62.5,-92.98"/>
<polygon fill="none" stroke="#63b8ff" points="62.5,-92.97 58.5,-86.97 62.5,-80.97 66.5,-86.97 62.5,-92.97"/>
</a>
</g>
<text xml:space="preserve" text-anchor="start" x="65.5" y="-104.25" font-family="Helvetica,sans-Serif" font-size="10.00" fill="grey">+lights</text>
</g>
</g>
</svg>
</svg>

<style type='text/css'>
<![CDATA[
[data-mouse-over-selected='false'] { opacity: 0.7; }
[data-mouse-over-selected='true']  { opacity: 1.0; }
]]>
</style>
<script type="application/ecmascript"><![CDATA[
document.addEventListener('DOMContentLoaded', (event) => {
  highlightEdges();
  highlightAdjacentNodes();
});
]]></script>
</svg>
