<?xml version="1.0" encoding="UTF-8" standalone="no"?>
<!DOCTYPE svg PUBLIC "-//W3C//DTD SVG 1.1//EN"
 "http://www.w3.org/Graphics/SVG/1.1/DTD/svg11.dtd">
<!-- Generated by graphviz version 15.0.0 (20260523.1842)
 -->
<!-- Title: DialogueSystem::Node Pages: 1 -->
<svg width="210pt" height="507pt"
 viewBox="0.00 0.00 210.00 507.00" xmlns="http://www.w3.org/2000/svg" xmlns:xlink="http://www.w3.org/1999/xlink">
<g id="graph0" class="graph" transform="scale(1 1) rotate(0) translate(4 502.5)">
<title>DialogueSystem::Node</title>
<!-- Node1 -->
<g id="Node000001" class="node">
<title>Node1</title>
<g id="a_Node000001"><a xlink:title="A single line the NPC says plus the choices offered after it.">
<polygon fill="#999999" stroke="none" points="109.25,-49.75 0,-49.75 0,0 109.25,0 109.25,-49.75"/>
<text xml:space="preserve" text-anchor="start" x="4" y="-37.5" font-family="Helvetica,sans-Serif" font-size="10.00">DialogueSystem::Node</text>
<text xml:space="preserve" text-anchor="start" x="53.12" y="-22.25" font-family="Helvetica,sans-Serif" font-size="10.00"> </text>
<text xml:space="preserve" text-anchor="start" x="53.12" y="-7" font-family="Helvetica,sans-Serif" font-size="10.00"> </text>
<polygon fill="#666666" stroke="#666666" points="0,-32.5 0,-32.5 109.25,-32.5 109.25,-32.5 0,-32.5"/>
<polygon fill="#666666" stroke="#666666" points="0,-17.25 0,-17.25 109.25,-17.25 109.25,-17.25 0,-17.25"/>
<polygon fill="none" stroke="#666666" points="0,0 0,-49.75 109.25,-49.75 109.25,0 0,0"/>
</a>
</g>
</g>
<!-- Node2 -->
<g id="Node000002" class="node">
<title>Node2</title>
<g id="a_Node000002"><a xlink:title=" ">
<polygon fill="white" stroke="none" points="80.38,-400.5 28.88,-400.5 28.88,-350.75 80.38,-350.75 80.38,-400.5"/>
<text xml:space="preserve" text-anchor="start" x="32.88" y="-388.25" font-family="Helvetica,sans-Serif" font-size="10.00">std::string</text>
<text xml:space="preserve" text-anchor="start" x="53.12" y="-373" font-family="Helvetica,sans-Serif" font-size="10.00"> </text>
<text xml:space="preserve" text-anchor="start" x="53.12" y="-357.75" font-family="Helvetica,sans-Serif" font-size="10.00"> </text>
<polygon fill="#666666" stroke="#666666" points="28.88,-383.25 28.88,-383.25 80.38,-383.25 80.38,-383.25 28.88,-383.25"/>
<polygon fill="#666666" stroke="#666666" points="28.88,-368 28.88,-368 80.38,-368 80.38,-368 28.88,-368"/>
<polygon fill="none" stroke="#666666" points="28.88,-350.75 28.88,-400.5 80.38,-400.5 80.38,-350.75 28.88,-350.75"/>
</a>
</g>
</g>
<!-- Node2&#45;&gt;Node1 -->
<g id="edge1_Node000001_Node000002" class="edge">
<title>Node2&#45;&gt;Node1</title>
<g id="a_edge1_Node000001_Node000002"><a xlink:title=" ">
<path fill="none" stroke="#63b8ff" d="M54.62,-350.93C54.62,-291.16 54.62,-133.94 54.62,-62.33"/>
<polygon fill="none" stroke="#63b8ff" points="54.63,-62.51 50.63,-56.51 54.63,-50.51 58.63,-56.51 54.63,-62.51"/>
</a>
</g>
<text xml:space="preserve" text-anchor="start" x="57.62" y="-188" font-family="Helvetica,sans-Serif" font-size="10.00" fill="grey">+text</text>
</g>
<!-- Node5 -->
<g id="Node000005" class="node">
<title>Node5</title>
<g id="a_Node000005"><a xlink:href="struct_dialogue_system_1_1_choice.html" target="_top" xlink:title="One selectable option within a node.">
<polygon fill="white" stroke="none" points="188,-267 71.25,-267 71.25,-217.25 188,-217.25 188,-267"/>
<text xml:space="preserve" text-anchor="start" x="75.25" y="-254.75" font-family="Helvetica,sans-Serif" font-size="10.00">DialogueSystem::Choice</text>
<text xml:space="preserve" text-anchor="start" x="128.12" y="-239.5" font-family="Helvetica,sans-Serif" font-size="10.00"> </text>
<text xml:space="preserve" text-anchor="start" x="128.12" y="-224.25" font-family="Helvetica,sans-Serif" font-size="10.00"> </text>
<polygon fill="#666666" stroke="#666666" points="71.25,-249.75 71.25,-249.75 188,-249.75 188,-249.75 71.25,-249.75"/>
<polygon fill="#666666" stroke="#666666" points="71.25,-234.5 71.25,-234.5 188,-234.5 188,-234.5 71.25,-234.5"/>
<polygon fill="none" stroke="#666666" points="71.25,-217.25 71.25,-267 188,-267 188,-217.25 71.25,-217.25"/>
</a>
</g>
</g>
<!-- Node2&#45;&gt;Node5 -->
<g id="edge5_Node000005_Node000002" class="edge">
<title>Node2&#45;&gt;Node5</title>
<g id="a_edge5_Node000005_Node000002"><a xlink:title=" ">
<path fill="none" stroke="#63b8ff" d="M68.21,-350.81C79.83,-330.42 96.73,-300.8 109.86,-277.79"/>
<polygon fill="none" stroke="#63b8ff" points="109.75,-277.97 109.25,-270.77 115.7,-267.54 116.2,-274.74 109.75,-277.97"/>
</a>
</g>
<text xml:space="preserve" text-anchor="start" x="108.37" y="-321.5" font-family="Helvetica,sans-Serif" font-size="10.00" fill="grey">+action</text>
<text xml:space="preserve" text-anchor="start" x="108.37" y="-306.25" font-family="Helvetica,sans-Serif" font-size="10.00" fill="grey">+label</text>
<text xml:space="preserve" text-anchor="start" x="108.37" y="-291" font-family="Helvetica,sans-Serif" font-size="10.00" fill="grey">+next</text>
</g>
<!-- Node3 -->
<g id="Node000003" class="node">
<title>Node3</title>
<g id="a_Node000003"><a xlink:title=" ">
<polygon fill="white" stroke="none" points="97.62,-498.5 11.62,-498.5 11.62,-437.5 97.62,-437.5 97.62,-498.5"/>
<text xml:space="preserve" text-anchor="start" x="15.62" y="-486.25" font-family="Helvetica,sans-Serif" font-size="10.00">std::basic_string&lt;</text>
<text xml:space="preserve" text-anchor="start" x="38.12" y="-475" font-family="Helvetica,sans-Serif" font-size="10.00"> Char &gt;</text>
<text xml:space="preserve" text-anchor="start" x="53.12" y="-459.75" font-family="Helvetica,sans-Serif" font-size="10.00"> </text>
<text xml:space="preserve" text-anchor="start" x="53.12" y="-444.5" font-family="Helvetica,sans-Serif" font-size="10.00"> </text>
<polygon fill="#666666" stroke="#666666" points="11.62,-470 11.62,-470 97.62,-470 97.62,-470 11.62,-470"/>
<polygon fill="#666666" stroke="#666666" points="11.62,-454.75 11.62,-454.75 97.62,-454.75 97.62,-454.75 11.62,-454.75"/>
<polygon fill="none" stroke="#666666" points="11.62,-437.5 11.62,-498.5 97.62,-498.5 97.62,-437.5 11.62,-437.5"/>
</a>
</g>
</g>
<!-- Node3&#45;&gt;Node2 -->
<g id="edge2_Node000002_Node000003" class="edge">
<title>Node3&#45;&gt;Node2</title>
<g id="a_edge2_Node000002_Node000003"><a xlink:title=" ">
<path fill="none" stroke="#63b8ff" d="M54.62,-426.4C54.62,-417.44 54.62,-408.25 54.62,-400.23"/>
<polygon fill="none" stroke="#63b8ff" points="51.13,-426.39 54.63,-436.39 58.13,-426.39 51.13,-426.39"/>
</a>
</g>
</g>
<!-- Node4 -->
<g id="Node000004" class="node">
<title>Node4</title>
<g id="a_Node000004"><a xlink:title=" ">
<polygon fill="white" stroke="none" points="202.38,-164 66.88,-164 66.88,-103 202.38,-103 202.38,-164"/>
<text xml:space="preserve" text-anchor="start" x="70.88" y="-151.75" font-family="Helvetica,sans-Serif" font-size="10.00">std::vector&lt; DialogueSystem</text>
<text xml:space="preserve" text-anchor="start" x="111.75" y="-140.5" font-family="Helvetica,sans-Serif" font-size="10.00">::Choice &gt;</text>
<text xml:space="preserve" text-anchor="start" x="133.12" y="-125.25" font-family="Helvetica,sans-Serif" font-size="10.00"> </text>
<text xml:space="preserve" text-anchor="start" x="133.12" y="-110" font-family="Helvetica,sans-Serif" font-size="10.00"> </text>
<polygon fill="#666666" stroke="#666666" points="66.88,-135.5 66.88,-135.5 202.38,-135.5 202.38,-135.5 66.88,-135.5"/>
<polygon fill="#666666" stroke="#666666" points="66.88,-120.25 66.88,-120.25 202.38,-120.25 202.38,-120.25 66.88,-120.25"/>
<polygon fill="none" stroke="#666666" points="66.88,-103 66.88,-164 202.38,-164 202.38,-103 66.88,-103"/>
</a>
</g>
</g>
<!-- Node4&#45;&gt;Node1 -->
<g id="edge3_Node000001_Node000004" class="edge">
<title>Node4&#45;&gt;Node1</title>
<g id="a_edge3_Node000001_Node000004"><a xlink:title=" ">
<path fill="none" stroke="#63b8ff" d="M112.55,-103.08C102.45,-89.62 90.43,-73.6 79.97,-59.65"/>
<polygon fill="none" stroke="#63b8ff" points="80.07,-59.78 73.27,-57.39 72.87,-50.19 79.67,-52.58 80.07,-59.78"/>
</a>
</g>
<text xml:space="preserve" text-anchor="start" x="100.02" y="-73.75" font-family="Helvetica,sans-Serif" font-size="10.00" fill="grey">+choices</text>
</g>
<!-- Node5&#45;&gt;Node4 -->
<g id="edge4_Node000004_Node000005" class="edge">
<title>Node5&#45;&gt;Node4</title>
<g id="a_edge4_Node000004_Node000005"><a xlink:title=" ">
<path fill="none" stroke="#63b8ff" d="M130.73,-217.46C131.3,-205.47 132,-190.53 132.65,-176.66"/>
<polygon fill="none" stroke="#63b8ff" points="132.65,-176.69 128.93,-170.51 133.21,-164.71 136.92,-170.89 132.65,-176.69"/>
</a>
</g>
<text xml:space="preserve" text-anchor="start" x="135.27" y="-188" font-family="Helvetica,sans-Serif" font-size="10.00" fill="grey">+elements</text>
</g>
</g>
</svg>
