<?xml version="1.0" encoding="UTF-8" standalone="no"?>
<!DOCTYPE svg PUBLIC "-//W3C//DTD SVG 1.1//EN"
 "http://www.w3.org/Graphics/SVG/1.1/DTD/svg11.dtd">
<!-- Generated by graphviz version 15.0.0 (20260523.1842)
 -->
<!-- Title: DungeonTavernNPC::SpotShadow Pages: 1 -->
<svg width="168pt" height="73pt"
 viewBox="0.00 0.00 168.00 73.00" xmlns="http://www.w3.org/2000/svg" xmlns:xlink="http://www.w3.org/1999/xlink">
<g id="graph0" class="graph" transform="scale(1 1) rotate(0) translate(4 69)">
<title>DungeonTavernNPC::SpotShadow</title>
<!-- Node1 -->
<g id="Node000001" class="node">
<title>Node1</title>
<g id="a_Node000001"><a xlink:title="One spotlight shadow slot.">
<polygon fill="#999999" stroke="none" points="159.5,-65 0,-65 0,0 159.5,0 159.5,-65"/>
<text xml:space="preserve" text-anchor="start" x="4" y="-52.75" font-family="Helvetica,sans-Serif" font-size="10.00">DungeonTavernNPC::SpotShadow</text>
<text xml:space="preserve" text-anchor="start" x="25.88" y="-37.5" font-family="Helvetica,sans-Serif" font-size="10.00">+</text>
<text xml:space="preserve" text-anchor="start" x="57.75" y="-37.5" font-family="Helvetica,sans-Serif" font-size="10.00">lightVP</text>
<text xml:space="preserve" text-anchor="start" x="25.88" y="-22.25" font-family="Helvetica,sans-Serif" font-size="10.00">+</text>
<text xml:space="preserve" text-anchor="start" x="57.75" y="-22.25" font-family="Helvetica,sans-Serif" font-size="10.00">emitterIndex</text>
<text xml:space="preserve" text-anchor="start" x="78.25" y="-7" font-family="Helvetica,sans-Serif" font-size="10.00"> </text>
<polygon fill="#666666" stroke="#666666" points="0,-47.75 0,-47.75 159.5,-47.75 159.5,-47.75 0,-47.75"/>
<polygon fill="#666666" stroke="#666666" points="0,-17.25 0,-17.25 55.75,-17.25 55.75,-17.25 0,-17.25"/>
<polygon fill="#666666" stroke="#666666" points="55.75,-17.25 55.75,-17.25 159.5,-17.25 159.5,-17.25 55.75,-17.25"/>
<polygon fill="none" stroke="#666666" points="0,0 0,-65 159.5,-65 159.5,0 0,0"/>
</a>
</g>
</g>
</g>
</svg>
