<?xml version="1.0" encoding="UTF-8" standalone="no"?>
<!DOCTYPE svg PUBLIC "-//W3C//DTD SVG 1.1//EN"
 "http://www.w3.org/Graphics/SVG/1.1/DTD/svg11.dtd">
<!-- Generated by graphviz version 15.0.0 (20260523.1842)
 -->
<!-- Title: DialogueSystem::Choice Pages: 1 -->
<svg width="125pt" height="289pt"
 viewBox="0.00 0.00 125.00 289.00" xmlns="http://www.w3.org/2000/svg" xmlns:xlink="http://www.w3.org/1999/xlink">

<svg id="main" version="1.1" xmlns="http://www.w3.org/2000/svg" xmlns:xlink="http://www.w3.org/1999/xlink" xml:space="preserve">

<style type="text/css"><![CDATA[
.node, .edge {opacity: 0.7;}
.node.selected, .edge.selected {opacity: 1;}
.edge:hover path { stroke: red; }
.edge:hover polygon { stroke: red; fill: red; }
]]></style>
<script type="application/ecmascript" xlink:href="svg.min.js"/>
<svg id="graph" class="graph">
<g id="graph0" class="graph" transform="scale(1 1) rotate(0) translate(4 285.25)">
<title>DialogueSystem::Choice</title>
<!-- Node1 -->
<g id="Node000001" class="node">
<title>Node1</title>
<g id="a_Node000001"><a xlink:title="One selectable option within a node.">
<polygon fill="#999999" stroke="none" points="116.75,-49.75 0,-49.75 0,0 116.75,0 116.75,-49.75"/>
<text xml:space="preserve" text-anchor="start" x="4" y="-37.5" font-family="Helvetica,sans-Serif" font-size="10.00">DialogueSystem::Choice</text>
<text xml:space="preserve" text-anchor="start" x="56.88" y="-22.25" font-family="Helvetica,sans-Serif" font-size="10.00"> </text>
<text xml:space="preserve" text-anchor="start" x="56.88" y="-7" font-family="Helvetica,sans-Serif" font-size="10.00"> </text>
<polygon fill="#666666" stroke="#666666" points="0,-32.5 0,-32.5 116.75,-32.5 116.75,-32.5 0,-32.5"/>
<polygon fill="#666666" stroke="#666666" points="0,-17.25 0,-17.25 116.75,-17.25 116.75,-17.25 0,-17.25"/>
<polygon fill="none" stroke="#666666" points="0,0 0,-49.75 116.75,-49.75 116.75,0 0,0"/>
</a>
</g>
</g>
<!-- Node2 -->
<g id="Node000002" class="node">
<title>Node2</title>
<g id="a_Node000002"><a xlink:title=" ">
<polygon fill="white" stroke="none" points="84.12,-183.25 32.62,-183.25 32.62,-133.5 84.12,-133.5 84.12,-183.25"/>
<text xml:space="preserve" text-anchor="start" x="36.62" y="-171" font-family="Helvetica,sans-Serif" font-size="10.00">std::string</text>
<text xml:space="preserve" text-anchor="start" x="56.88" y="-155.75" font-family="Helvetica,sans-Serif" font-size="10.00"> </text>
<text xml:space="preserve" text-anchor="start" x="56.88" y="-140.5" font-family="Helvetica,sans-Serif" font-size="10.00"> </text>
<polygon fill="#666666" stroke="#666666" points="32.62,-166 32.62,-166 84.12,-166 84.12,-166 32.62,-166"/>
<polygon fill="#666666" stroke="#666666" points="32.62,-150.75 32.62,-150.75 84.12,-150.75 84.12,-150.75 32.62,-150.75"/>
<polygon fill="none" stroke="#666666" points="32.62,-133.5 32.62,-183.25 84.12,-183.25 84.12,-133.5 32.62,-133.5"/>
</a>
</g>
</g>
<!-- Node2&#45;&gt;Node1 -->
<g id="edge1_Node000001_Node000002" class="edge">
<title>Node2&#45;&gt;Node1</title>
<g id="a_edge1_Node000001_Node000002"><a xlink:title=" ">
<path fill="none" stroke="#63b8ff" d="M58.38,-133.56C58.38,-113.73 58.38,-85.17 58.38,-62.44"/>
<polygon fill="none" stroke="#63b8ff" points="58.38,-62.41 54.38,-56.41 58.38,-50.41 62.38,-56.41 58.38,-62.41"/>
</a>
</g>
<text xml:space="preserve" text-anchor="start" x="61.38" y="-104.25" font-family="Helvetica,sans-Serif" font-size="10.00" fill="grey">+action</text>
<text xml:space="preserve" text-anchor="start" x="61.38" y="-89" font-family="Helvetica,sans-Serif" font-size="10.00" fill="grey">+label</text>
<text xml:space="preserve" text-anchor="start" x="61.38" y="-73.75" font-family="Helvetica,sans-Serif" font-size="10.00" fill="grey">+next</text>
</g>
<!-- Node3 -->
<g id="Node000003" class="node">
<title>Node3</title>
<g id="a_Node000003"><a xlink:title=" ">
<polygon fill="white" stroke="none" points="101.38,-281.25 15.38,-281.25 15.38,-220.25 101.38,-220.25 101.38,-281.25"/>
<text xml:space="preserve" text-anchor="start" x="19.38" y="-269" font-family="Helvetica,sans-Serif" font-size="10.00">std::basic_string&lt;</text>
<text xml:space="preserve" text-anchor="start" x="41.88" y="-257.75" font-family="Helvetica,sans-Serif" font-size="10.00"> Char &gt;</text>
<text xml:space="preserve" text-anchor="start" x="56.88" y="-242.5" font-family="Helvetica,sans-Serif" font-size="10.00"> </text>
<text xml:space="preserve" text-anchor="start" x="56.88" y="-227.25" font-family="Helvetica,sans-Serif" font-size="10.00"> </text>
<polygon fill="#666666" stroke="#666666" points="15.38,-252.75 15.38,-252.75 101.38,-252.75 101.38,-252.75 15.38,-252.75"/>
<polygon fill="#666666" stroke="#666666" points="15.38,-237.5 15.38,-237.5 101.38,-237.5 101.38,-237.5 15.38,-237.5"/>
<polygon fill="none" stroke="#666666" points="15.38,-220.25 15.38,-281.25 101.38,-281.25 101.38,-220.25 15.38,-220.25"/>
</a>
</g>
</g>
<!-- Node3&#45;&gt;Node2 -->
<g id="edge2_Node000002_Node000003" class="edge">
<title>Node3&#45;&gt;Node2</title>
<g id="a_edge2_Node000002_Node000003"><a xlink:title=" ">
<path fill="none" stroke="#63b8ff" d="M58.38,-209.15C58.38,-200.19 58.38,-191 58.38,-182.98"/>
<polygon fill="none" stroke="#63b8ff" points="54.88,-209.14 58.38,-219.14 61.88,-209.14 54.88,-209.14"/>
</a>
</g>
</g>
</g>
</svg>
</svg>

<style type='text/css'>
<![CDATA[
[data-mouse-over-selected='false'] { opacity: 0.7; }
[data-mouse-over-selected='true']  { opacity: 1.0; }
]]>
</style>
<script type="application/ecmascript"><![CDATA[
document.addEventListener('DOMContentLoaded', (event) => {
  highlightEdges();
  highlightAdjacentNodes();
});
]]></script>
</svg>
