<?xml version="1.0" encoding="UTF-8" standalone="no"?>
<!DOCTYPE svg PUBLIC "-//W3C//DTD SVG 1.1//EN"
 "http://www.w3.org/Graphics/SVG/1.1/DTD/svg11.dtd">
<!-- Generated by graphviz version 15.0.0 (20260523.1842)
 -->
<!-- Title: SceneObject Pages: 1 -->
<!--zoomable 489 -->

<svg id="main" version="1.1" xmlns="http://www.w3.org/2000/svg" xmlns:xlink="http://www.w3.org/1999/xlink" xml:space="preserve" onload="init(evt)">

<style type="text/css"><![CDATA[
.node, .edge {opacity: 0.7;}
.node.selected, .edge.selected {opacity: 1;}
.edge:hover path { stroke: red; }
.edge:hover polygon { stroke: red; fill: red; }
]]></style>

<defs>
  <circle id="rim" cx="0" cy="0" r="7"/>
  <circle id="rim2" cx="0" cy="0" r="3.5"/>
  <g id="zoomPlus">
    <use xlink:href="#rim" fill="#404040"><set attributeName="fill" to="#808080" begin="zoomplus.mouseover" end="zoomplus.mouseout"/></use>
    <path d="M-4,0h8M0,-4v8" fill="none" stroke="white" stroke-width="1.5" pointer-events="none"/>
  </g>
  <g id="zoomMin">
    <use xlink:href="#rim" fill="#404040"><set attributeName="fill" to="#808080" begin="zoomminus.mouseover" end="zoomminus.mouseout"/></use>
    <path d="M-4,0h8" fill="none" stroke="white" stroke-width="1.5" pointer-events="none"/>
  </g>
  <g id="arrowUp" transform="translate(30 24)">
    <use xlink:href="#rim"/>
    <path pointer-events="none" fill="none" stroke="white" stroke-width="1.5" d="M0,-3.0v7 M-2.5,-0.5L0,-3.0L2.5,-0.5"/>
  </g>
  <g id="arrowRight" transform="rotate(90) translate(36 -43)">
    <use xlink:href="#rim"/>
    <path pointer-events="none" fill="none" stroke="white" stroke-width="1.5" d="M0,-3.0v7 M-2.5,-0.5L0,-3.0L2.5,-0.5"/>
  </g>
  <g id="arrowDown" transform="rotate(180) translate(-30 -48)">
    <use xlink:href="#rim"/>
    <path pointer-events="none" fill="none" stroke="white" stroke-width="1.5" d="M0,-3.0v7 M-2.5,-0.5L0,-3.0L2.5,-0.5"/>
  </g>
  <g id="arrowLeft" transform="rotate(270) translate(-36 17)">
    <use xlink:href="#rim"/>
    <path pointer-events="none" fill="none" stroke="white" stroke-width="1.5" d="M0,-3.0v7 M-2.5,-0.5L0,-3.0L2.5,-0.5"/>
  </g>
  <g id="resetDef">
    <use xlink:href="#rim2" fill="#404040"><set attributeName="fill" to="#808080" begin="reset.mouseover" end="reset.mouseout"/></use>
  </g>
</defs>
<script type="application/ecmascript">
var viewWidth = 420;
var viewHeight = 489;
var sectionId = 'dynsection-0';
</script>
<script type="application/ecmascript" xlink:href="svg.min.js"/>
<svg id="graph" class="graph">
<g id="viewport">
<title>SceneObject</title>
<!-- Node1 -->
<g id="Node000001" class="node">
<title>Node1</title>
<g id="a_Node000001"><a xlink:title="One placed thing in the world: its mesh, transform, collider, and any flame/NPC/door state.">
<polygon fill="#999999" stroke="none" points="251.5,-202.25 170.5,-202.25 170.5,0 251.5,0 251.5,-202.25"/>
<text xml:space="preserve" text-anchor="start" x="182.88" y="-190" font-family="Helvetica,sans-Serif" font-size="10.00">SceneObject</text>
<text xml:space="preserve" text-anchor="start" x="174.5" y="-174.75" font-family="Helvetica,sans-Serif" font-size="10.00">+</text>
<text xml:space="preserve" text-anchor="start" x="184.5" y="-174.75" font-family="Helvetica,sans-Serif" font-size="10.00">DS</text>
<text xml:space="preserve" text-anchor="start" x="174.5" y="-159.5" font-family="Helvetica,sans-Serif" font-size="10.00">+</text>
<text xml:space="preserve" text-anchor="start" x="184.5" y="-159.5" font-family="Helvetica,sans-Serif" font-size="10.00">model</text>
<text xml:space="preserve" text-anchor="start" x="174.5" y="-144.25" font-family="Helvetica,sans-Serif" font-size="10.00">+</text>
<text xml:space="preserve" text-anchor="start" x="184.5" y="-144.25" font-family="Helvetica,sans-Serif" font-size="10.00">texture</text>
<text xml:space="preserve" text-anchor="start" x="174.5" y="-129" font-family="Helvetica,sans-Serif" font-size="10.00">+</text>
<text xml:space="preserve" text-anchor="start" x="184.5" y="-129" font-family="Helvetica,sans-Serif" font-size="10.00">pos</text>
<text xml:space="preserve" text-anchor="start" x="174.5" y="-113.75" font-family="Helvetica,sans-Serif" font-size="10.00">+</text>
<text xml:space="preserve" text-anchor="start" x="184.5" y="-113.75" font-family="Helvetica,sans-Serif" font-size="10.00">yaw</text>
<text xml:space="preserve" text-anchor="start" x="174.5" y="-98.5" font-family="Helvetica,sans-Serif" font-size="10.00">+</text>
<text xml:space="preserve" text-anchor="start" x="184.5" y="-98.5" font-family="Helvetica,sans-Serif" font-size="10.00">scale</text>
<text xml:space="preserve" text-anchor="start" x="174.5" y="-83.25" font-family="Helvetica,sans-Serif" font-size="10.00">+</text>
<text xml:space="preserve" text-anchor="start" x="184.5" y="-83.25" font-family="Helvetica,sans-Serif" font-size="10.00">collider</text>
<text xml:space="preserve" text-anchor="start" x="174.5" y="-68" font-family="Helvetica,sans-Serif" font-size="10.00">+</text>
<text xml:space="preserve" text-anchor="start" x="184.5" y="-68" font-family="Helvetica,sans-Serif" font-size="10.00">collidable</text>
<text xml:space="preserve" text-anchor="start" x="174.5" y="-52.75" font-family="Helvetica,sans-Serif" font-size="10.00">+</text>
<text xml:space="preserve" text-anchor="start" x="184.5" y="-52.75" font-family="Helvetica,sans-Serif" font-size="10.00">boundsCenter</text>
<text xml:space="preserve" text-anchor="start" x="174.5" y="-37.5" font-family="Helvetica,sans-Serif" font-size="10.00">+</text>
<text xml:space="preserve" text-anchor="start" x="184.5" y="-37.5" font-family="Helvetica,sans-Serif" font-size="10.00">boundsRadius</text>
<text xml:space="preserve" text-anchor="start" x="184.5" y="-22.25" font-family="Helvetica,sans-Serif" font-size="10.00">and 19 more...</text>
<text xml:space="preserve" text-anchor="start" x="209.5" y="-7" font-family="Helvetica,sans-Serif" font-size="10.00"> </text>
<polygon fill="#666666" stroke="#666666" points="170.5,-185 170.5,-185 251.5,-185 251.5,-185 170.5,-185"/>
<polygon fill="#666666" stroke="#666666" points="170.5,-17.25 170.5,-17.25 182.5,-17.25 182.5,-17.25 170.5,-17.25"/>
<polygon fill="#666666" stroke="#666666" points="182.5,-17.25 182.5,-17.25 251.5,-17.25 251.5,-17.25 182.5,-17.25"/>
<polygon fill="none" stroke="#666666" points="170.5,0 170.5,-202.25 251.5,-202.25 251.5,0 170.5,0"/>
</a>
</g>
</g>
<!-- Node2 -->
<g id="Node000002" class="node">
<title>Node2</title>
<g id="a_Node000002"><a xlink:title=" ">
<polygon fill="white" stroke="none" points="74.75,-343.38 23.25,-343.38 23.25,-293.62 74.75,-293.62 74.75,-343.38"/>
<text xml:space="preserve" text-anchor="start" x="27.25" y="-331.12" font-family="Helvetica,sans-Serif" font-size="10.00">std::string</text>
<text xml:space="preserve" text-anchor="start" x="47.5" y="-315.88" font-family="Helvetica,sans-Serif" font-size="10.00"> </text>
<text xml:space="preserve" text-anchor="start" x="47.5" y="-300.62" font-family="Helvetica,sans-Serif" font-size="10.00"> </text>
<polygon fill="#666666" stroke="#666666" points="23.25,-326.12 23.25,-326.12 74.75,-326.12 74.75,-326.12 23.25,-326.12"/>
<polygon fill="#666666" stroke="#666666" points="23.25,-310.88 23.25,-310.88 74.75,-310.88 74.75,-310.88 23.25,-310.88"/>
<polygon fill="none" stroke="#666666" points="23.25,-293.62 23.25,-343.38 74.75,-343.38 74.75,-293.62 23.25,-293.62"/>
</a>
</g>
</g>
<!-- Node2&#45;&gt;Node1 -->
<g id="edge1_Node000001_Node000002" class="edge">
<title>Node2&#45;&gt;Node1</title>
<g id="a_edge1_Node000001_Node000002"><a xlink:title=" ">
<path fill="none" stroke="#63b8ff" d="M66.37,-293.85C80.9,-274.12 102.2,-245.28 121,-220.25 134.46,-202.33 149.16,-182.96 162.7,-165.18"/>
<polygon fill="none" stroke="#63b8ff" points="162.7,-165.19 163.16,-157.99 169.98,-155.65 169.52,-162.84 162.7,-165.19"/>
</a>
</g>
<text xml:space="preserve" text-anchor="start" x="124" y="-241.5" font-family="Helvetica,sans-Serif" font-size="10.00" fill="grey">+npcId</text>
<text xml:space="preserve" text-anchor="start" x="124" y="-226.25" font-family="Helvetica,sans-Serif" font-size="10.00" fill="grey">+tag</text>
</g>
<!-- Node3 -->
<g id="Node000003" class="node">
<title>Node3</title>
<g id="a_Node000003"><a xlink:title=" ">
<polygon fill="white" stroke="none" points="86,-480.5 0,-480.5 0,-419.5 86,-419.5 86,-480.5"/>
<text xml:space="preserve" text-anchor="start" x="4" y="-468.25" font-family="Helvetica,sans-Serif" font-size="10.00">std::basic_string&lt;</text>
<text xml:space="preserve" text-anchor="start" x="26.5" y="-457" font-family="Helvetica,sans-Serif" font-size="10.00"> Char &gt;</text>
<text xml:space="preserve" text-anchor="start" x="41.5" y="-441.75" font-family="Helvetica,sans-Serif" font-size="10.00"> </text>
<text xml:space="preserve" text-anchor="start" x="41.5" y="-426.5" font-family="Helvetica,sans-Serif" font-size="10.00"> </text>
<polygon fill="#666666" stroke="#666666" points="0,-452 0,-452 86,-452 86,-452 0,-452"/>
<polygon fill="#666666" stroke="#666666" points="0,-436.75 0,-436.75 86,-436.75 86,-436.75 0,-436.75"/>
<polygon fill="none" stroke="#666666" points="0,-419.5 0,-480.5 86,-480.5 86,-419.5 0,-419.5"/>
</a>
</g>
</g>
<!-- Node3&#45;&gt;Node2 -->
<g id="edge2_Node000002_Node000003" class="edge">
<title>Node3&#45;&gt;Node2</title>
<g id="a_edge2_Node000002_Node000003"><a xlink:title=" ">
<path fill="none" stroke="#63b8ff" d="M44.89,-408.21C45.88,-386.79 47.06,-361.3 47.9,-343.15"/>
<polygon fill="none" stroke="#63b8ff" points="41.4,-407.95 44.43,-418.1 48.39,-408.28 41.4,-407.95"/>
</a>
</g>
</g>
<!-- Node4 -->
<g id="Node000004" class="node">
<title>Node4</title>
<g id="a_Node000004"><a xlink:title=" ">
<polygon fill="white" stroke="none" points="215.75,-349 104.25,-349 104.25,-288 215.75,-288 215.75,-349"/>
<text xml:space="preserve" text-anchor="start" x="108.25" y="-336.75" font-family="Helvetica,sans-Serif" font-size="10.00">std::vector&lt; std::unique</text>
<text xml:space="preserve" text-anchor="start" x="121.75" y="-325.5" font-family="Helvetica,sans-Serif" font-size="10.00">_ptr&lt; Collider &gt; &gt;</text>
<text xml:space="preserve" text-anchor="start" x="158.5" y="-310.25" font-family="Helvetica,sans-Serif" font-size="10.00"> </text>
<text xml:space="preserve" text-anchor="start" x="158.5" y="-295" font-family="Helvetica,sans-Serif" font-size="10.00"> </text>
<polygon fill="#666666" stroke="#666666" points="104.25,-320.5 104.25,-320.5 215.75,-320.5 215.75,-320.5 104.25,-320.5"/>
<polygon fill="#666666" stroke="#666666" points="104.25,-305.25 104.25,-305.25 215.75,-305.25 215.75,-305.25 104.25,-305.25"/>
<polygon fill="none" stroke="#666666" points="104.25,-288 104.25,-349 215.75,-349 215.75,-288 104.25,-288"/>
</a>
</g>
</g>
<!-- Node4&#45;&gt;Node1 -->
<g id="edge3_Node000001_Node000004" class="edge">
<title>Node4&#45;&gt;Node1</title>
<g id="a_edge3_Node000001_Node000004"><a xlink:title=" ">
<path fill="none" stroke="#63b8ff" d="M159.52,-288.25C159.75,-268.78 161.14,-242.74 166,-220.25 166.41,-218.37 166.84,-216.49 167.29,-214.59"/>
<polygon fill="none" stroke="#63b8ff" points="167.31,-214.51 164.97,-207.69 170.36,-202.9 172.7,-209.72 167.31,-214.51"/>
</a>
</g>
<text xml:space="preserve" text-anchor="start" x="169" y="-233.88" font-family="Helvetica,sans-Serif" font-size="10.00" fill="grey">+colliderParts</text>
</g>
<!-- Node5 -->
<g id="Node000005" class="node">
<title>Node5</title>
<g id="a_Node000005"><a xlink:title=" ">
<polygon fill="white" stroke="none" points="227.75,-474.88 104.25,-474.88 104.25,-425.12 227.75,-425.12 227.75,-474.88"/>
<text xml:space="preserve" text-anchor="start" x="108.25" y="-462.62" font-family="Helvetica,sans-Serif" font-size="10.00">std::unique_ptr&lt; Collider &gt;</text>
<text xml:space="preserve" text-anchor="start" x="122.06" y="-447.38" font-family="Helvetica,sans-Serif" font-size="10.00">+</text>
<text xml:space="preserve" text-anchor="start" x="145.88" y="-447.38" font-family="Helvetica,sans-Serif" font-size="10.00">ptr</text>
<text xml:space="preserve" text-anchor="start" x="122.06" y="-432.12" font-family="Helvetica,sans-Serif" font-size="10.00">+</text>
<text xml:space="preserve" text-anchor="start" x="145.88" y="-432.12" font-family="Helvetica,sans-Serif" font-size="10.00">operator&#45;&gt;()</text>
<polygon fill="#666666" stroke="#666666" points="104.25,-457.62 104.25,-457.62 227.75,-457.62 227.75,-457.62 104.25,-457.62"/>
<polygon fill="#666666" stroke="#666666" points="104.25,-442.38 104.25,-442.38 143.88,-442.38 143.88,-442.38 104.25,-442.38"/>
<polygon fill="#666666" stroke="#666666" points="143.88,-442.38 143.88,-442.38 227.75,-442.38 227.75,-442.38 143.88,-442.38"/>
<polygon fill="none" stroke="#666666" points="104.25,-425.12 104.25,-474.88 227.75,-474.88 227.75,-425.12 104.25,-425.12"/>
</a>
</g>
</g>
<!-- Node5&#45;&gt;Node4 -->
<g id="edge4_Node000004_Node000005" class="edge">
<title>Node5&#45;&gt;Node4</title>
<g id="a_edge4_Node000004_Node000005"><a xlink:title=" ">
<path fill="none" stroke="#63b8ff" d="M164.9,-425.25C164.07,-407.43 162.92,-382.59 161.94,-361.45"/>
<polygon fill="none" stroke="#63b8ff" points="161.94,-361.43 157.67,-355.62 161.39,-349.44 165.66,-355.25 161.94,-361.43"/>
</a>
</g>
<text xml:space="preserve" text-anchor="start" x="166.71" y="-390.25" font-family="Helvetica,sans-Serif" font-size="10.00" fill="grey">+elements</text>
</g>
<!-- Node6 -->
<g id="Node000006" class="node">
<title>Node6</title>
<g id="a_Node000006"><a xlink:href="struct_light.html" target="_top" xlink:title="One light as uploaded to the GPU (std140&#45;aligned).">
<polygon fill="white" stroke="none" points="278.12,-366.25 233.88,-366.25 233.88,-270.75 278.12,-270.75 278.12,-366.25"/>
<text xml:space="preserve" text-anchor="start" x="245.5" y="-354" font-family="Helvetica,sans-Serif" font-size="10.00">Light</text>
<text xml:space="preserve" text-anchor="start" x="237.88" y="-338.75" font-family="Helvetica,sans-Serif" font-size="10.00">+</text>
<text xml:space="preserve" text-anchor="start" x="247.88" y="-338.75" font-family="Helvetica,sans-Serif" font-size="10.00">pos</text>
<text xml:space="preserve" text-anchor="start" x="237.88" y="-323.5" font-family="Helvetica,sans-Serif" font-size="10.00">+</text>
<text xml:space="preserve" text-anchor="start" x="247.88" y="-323.5" font-family="Helvetica,sans-Serif" font-size="10.00">dir</text>
<text xml:space="preserve" text-anchor="start" x="237.88" y="-308.25" font-family="Helvetica,sans-Serif" font-size="10.00">+</text>
<text xml:space="preserve" text-anchor="start" x="247.88" y="-308.25" font-family="Helvetica,sans-Serif" font-size="10.00">color</text>
<text xml:space="preserve" text-anchor="start" x="237.88" y="-293" font-family="Helvetica,sans-Serif" font-size="10.00">+</text>
<text xml:space="preserve" text-anchor="start" x="247.88" y="-293" font-family="Helvetica,sans-Serif" font-size="10.00">cones</text>
<text xml:space="preserve" text-anchor="start" x="254.5" y="-277.75" font-family="Helvetica,sans-Serif" font-size="10.00"> </text>
<polygon fill="#666666" stroke="#666666" points="233.88,-349 233.88,-349 278.12,-349 278.12,-349 233.88,-349"/>
<polygon fill="#666666" stroke="#666666" points="233.88,-288 233.88,-288 245.88,-288 245.88,-288 233.88,-288"/>
<polygon fill="#666666" stroke="#666666" points="245.88,-288 245.88,-288 278.12,-288 278.12,-288 245.88,-288"/>
<polygon fill="none" stroke="#666666" points="233.88,-270.75 233.88,-366.25 278.12,-366.25 278.12,-270.75 233.88,-270.75"/>
</a>
</g>
</g>
<!-- Node6&#45;&gt;Node1 -->
<g id="edge5_Node000001_Node000006" class="edge">
<title>Node6&#45;&gt;Node1</title>
<g id="a_edge5_Node000001_Node000006"><a xlink:title=" ">
<path fill="none" stroke="#63b8ff" d="M246.24,-270.77C242.74,-254.04 238.64,-234.4 234.49,-214.53"/>
<polygon fill="none" stroke="#63b8ff" points="234.47,-214.45 229.33,-209.4 232.02,-202.71 237.16,-207.76 234.47,-214.45"/>
</a>
</g>
<text xml:space="preserve" text-anchor="start" x="244.44" y="-233.88" font-family="Helvetica,sans-Serif" font-size="10.00" fill="grey">+light</text>
</g>
<!-- Node7 -->
<g id="Node000007" class="node">
<title>Node7</title>
<g id="a_Node000007"><a xlink:title=" ">
<polygon fill="white" stroke="none" points="411.62,-343.38 296.38,-343.38 296.38,-293.62 411.62,-293.62 411.62,-343.38"/>
<text xml:space="preserve" text-anchor="start" x="300.38" y="-331.12" font-family="Helvetica,sans-Serif" font-size="10.00">std::vector&lt; glm::vec3 &gt;</text>
<text xml:space="preserve" text-anchor="start" x="314.75" y="-315.88" font-family="Helvetica,sans-Serif" font-size="10.00">+</text>
<text xml:space="preserve" text-anchor="start" x="339.12" y="-315.88" font-family="Helvetica,sans-Serif" font-size="10.00">elements</text>
<text xml:space="preserve" text-anchor="start" x="352.5" y="-300.62" font-family="Helvetica,sans-Serif" font-size="10.00"> </text>
<polygon fill="#666666" stroke="#666666" points="296.38,-326.12 296.38,-326.12 411.62,-326.12 411.62,-326.12 296.38,-326.12"/>
<polygon fill="#666666" stroke="#666666" points="296.38,-310.88 296.38,-310.88 337.12,-310.88 337.12,-310.88 296.38,-310.88"/>
<polygon fill="#666666" stroke="#666666" points="337.12,-310.88 337.12,-310.88 411.62,-310.88 411.62,-310.88 337.12,-310.88"/>
<polygon fill="none" stroke="#666666" points="296.38,-293.62 296.38,-343.38 411.62,-343.38 411.62,-293.62 296.38,-293.62"/>
</a>
</g>
</g>
<!-- Node7&#45;&gt;Node1 -->
<g id="edge6_Node000001_Node000007" class="edge">
<title>Node7&#45;&gt;Node1</title>
<g id="a_edge6_Node000001_Node000007"><a xlink:title=" ">
<path fill="none" stroke="#63b8ff" d="M338.15,-293.63C319.02,-264.81 285.97,-215.04 258.37,-173.47"/>
<polygon fill="none" stroke="#63b8ff" points="258.43,-173.56 251.78,-170.78 251.79,-163.56 258.44,-166.35 258.43,-173.56"/>
</a>
</g>
<text xml:space="preserve" text-anchor="start" x="310.75" y="-233.88" font-family="Helvetica,sans-Serif" font-size="10.00" fill="grey">+patrolPoints</text>
</g>
</g>
</svg>

<g id="navigator" transform="translate(0 0)" fill="#404254">
  <rect fill="#f2f5e9" fill-opacity="0.5" stroke="#606060" stroke-width=".5" x="0" y="0" width="60" height="60"/>
  <use id="zoomplus" xlink:href="#zoomPlus" x="17" y="9" onmousedown="handleZoom(evt,'in')"/>
  <use id="zoomminus" xlink:href="#zoomMin" x="42" y="9" onmousedown="handleZoom(evt,'out')"/>
  <use id="reset" xlink:href="#resetDef" x="30" y="36" onmousedown="handleReset()"/>
   <use id="arrowup" xlink:href="#arrowUp" x="0" y="0" onmousedown="handlePan(0,-1)"/>
  <use id="arrowright" xlink:href="#arrowRight" x="0" y="0" onmousedown="handlePan(1,0)"/>
  <use id="arrowdown" xlink:href="#arrowDown" x="0" y="0" onmousedown="handlePan(0,1)"/>
  <use id="arrowleft" xlink:href="#arrowLeft" x="0" y="0" onmousedown="handlePan(-1,0)"/>
</g>
<svg viewBox="0 0 15 15" width="100%" height="30px" preserveAspectRatio="xMaxYMin meet">
 <g id="arrow_out" transform="scale(0.3 0.3)">
  <a xlink:href="struct_scene_object__coll__graph_org.svg" target="_base">
   <rect id="button" ry="5" rx="5" y="6" x="6" height="38" width="38"
        fill="#f2f5e9" fill-opacity="0.5" stroke="#606060" stroke-width="1.0"/>
   <path id="arrow"
     d="M 11.500037,31.436501 C 11.940474,20.09759 22.043105,11.32322 32.158766,21.979434 L 37.068811,17.246167 C 37.068811,17.246167 37.088388,32 37.088388,32 L 22.160133,31.978069 C 22.160133,31.978069 26.997745,27.140456 26.997745,27.140456 C 18.528582,18.264221 13.291696,25.230495 11.500037,31.436501 z"
     style="fill:#404040;"/>
  </a>
 </g>
</svg>

<style type='text/css'>
<![CDATA[
[data-mouse-over-selected='false'] { opacity: 0.7; }
[data-mouse-over-selected='true']  { opacity: 1.0; }
]]>
</style>
<script type="application/ecmascript"><![CDATA[
document.addEventListener('DOMContentLoaded', (event) => {
  highlightEdges();
  highlightAdjacentNodes();
});
]]></script>
</svg>
