<?xml version="1.0" encoding="UTF-8" standalone="no"?>
<!DOCTYPE svg PUBLIC "-//W3C//DTD SVG 1.1//EN"
 "http://www.w3.org/Graphics/SVG/1.1/DTD/svg11.dtd">
<!-- Generated by graphviz version 15.0.0 (20260523.1842)
 -->
<!-- Title: ShopSystem::Item Pages: 1 -->
<svg width="99pt" height="320pt"
 viewBox="0.00 0.00 99.00 320.00" xmlns="http://www.w3.org/2000/svg" xmlns:xlink="http://www.w3.org/1999/xlink">

<svg id="main" version="1.1" xmlns="http://www.w3.org/2000/svg" xmlns:xlink="http://www.w3.org/1999/xlink" xml:space="preserve">

<style type="text/css"><![CDATA[
.node, .edge {opacity: 0.7;}
.node.selected, .edge.selected {opacity: 1;}
.edge:hover path { stroke: red; }
.edge:hover polygon { stroke: red; fill: red; }
]]></style>
<script type="application/ecmascript" xlink:href="svg.min.js"/>
<svg id="graph" class="graph">
<g id="graph0" class="graph" transform="scale(1 1) rotate(0) translate(4 315.75)">
<title>ShopSystem::Item</title>
<!-- Node1 -->
<g id="Node000001" class="node">
<title>Node1</title>
<g id="a_Node000001"><a xlink:title="One row of the wares table: a buyable/sellable good.">
<polygon fill="#999999" stroke="none" points="89.75,-95.5 0,-95.5 0,0 89.75,0 89.75,-95.5"/>
<text xml:space="preserve" text-anchor="start" x="4" y="-83.25" font-family="Helvetica,sans-Serif" font-size="10.00">ShopSystem::Item</text>
<text xml:space="preserve" text-anchor="start" x="14.81" y="-68" font-family="Helvetica,sans-Serif" font-size="10.00">+</text>
<text xml:space="preserve" text-anchor="start" x="35.62" y="-68" font-family="Helvetica,sans-Serif" font-size="10.00">price</text>
<text xml:space="preserve" text-anchor="start" x="14.81" y="-52.75" font-family="Helvetica,sans-Serif" font-size="10.00">+</text>
<text xml:space="preserve" text-anchor="start" x="35.62" y="-52.75" font-family="Helvetica,sans-Serif" font-size="10.00">stock</text>
<text xml:space="preserve" text-anchor="start" x="14.81" y="-37.5" font-family="Helvetica,sans-Serif" font-size="10.00">+</text>
<text xml:space="preserve" text-anchor="start" x="35.62" y="-37.5" font-family="Helvetica,sans-Serif" font-size="10.00">owned</text>
<text xml:space="preserve" text-anchor="start" x="14.81" y="-22.25" font-family="Helvetica,sans-Serif" font-size="10.00">+</text>
<text xml:space="preserve" text-anchor="start" x="35.62" y="-22.25" font-family="Helvetica,sans-Serif" font-size="10.00">icon</text>
<text xml:space="preserve" text-anchor="start" x="43.38" y="-7" font-family="Helvetica,sans-Serif" font-size="10.00"> </text>
<polygon fill="#666666" stroke="#666666" points="0,-78.25 0,-78.25 89.75,-78.25 89.75,-78.25 0,-78.25"/>
<polygon fill="#666666" stroke="#666666" points="0,-17.25 0,-17.25 33.62,-17.25 33.62,-17.25 0,-17.25"/>
<polygon fill="#666666" stroke="#666666" points="33.62,-17.25 33.62,-17.25 89.75,-17.25 89.75,-17.25 33.62,-17.25"/>
<polygon fill="none" stroke="#666666" points="0,0 0,-95.5 89.75,-95.5 89.75,0 0,0"/>
</a>
</g>
</g>
<!-- Node2 -->
<g id="Node000002" class="node">
<title>Node2</title>
<g id="a_Node000002"><a xlink:title=" ">
<polygon fill="white" stroke="none" points="70.62,-213.75 19.12,-213.75 19.12,-164 70.62,-164 70.62,-213.75"/>
<text xml:space="preserve" text-anchor="start" x="23.12" y="-201.5" font-family="Helvetica,sans-Serif" font-size="10.00">std::string</text>
<text xml:space="preserve" text-anchor="start" x="43.38" y="-186.25" font-family="Helvetica,sans-Serif" font-size="10.00"> </text>
<text xml:space="preserve" text-anchor="start" x="43.38" y="-171" font-family="Helvetica,sans-Serif" font-size="10.00"> </text>
<polygon fill="#666666" stroke="#666666" points="19.12,-196.5 19.12,-196.5 70.62,-196.5 70.62,-196.5 19.12,-196.5"/>
<polygon fill="#666666" stroke="#666666" points="19.12,-181.25 19.12,-181.25 70.62,-181.25 70.62,-181.25 19.12,-181.25"/>
<polygon fill="none" stroke="#666666" points="19.12,-164 19.12,-213.75 70.62,-213.75 70.62,-164 19.12,-164"/>
</a>
</g>
</g>
<!-- Node2&#45;&gt;Node1 -->
<g id="edge1_Node000001_Node000002" class="edge">
<title>Node2&#45;&gt;Node1</title>
<g id="a_edge1_Node000001_Node000002"><a xlink:title=" ">
<path fill="none" stroke="#63b8ff" d="M44.88,-164.27C44.88,-148.82 44.88,-127.89 44.88,-108.09"/>
<polygon fill="none" stroke="#63b8ff" points="44.88,-108.21 40.88,-102.21 44.88,-96.21 48.88,-102.21 44.88,-108.21"/>
</a>
</g>
<text xml:space="preserve" text-anchor="start" x="47.88" y="-134.75" font-family="Helvetica,sans-Serif" font-size="10.00" fill="grey">+iconFile</text>
<text xml:space="preserve" text-anchor="start" x="47.88" y="-119.5" font-family="Helvetica,sans-Serif" font-size="10.00" fill="grey">+name</text>
</g>
<!-- Node3 -->
<g id="Node000003" class="node">
<title>Node3</title>
<g id="a_Node000003"><a xlink:title=" ">
<polygon fill="white" stroke="none" points="87.88,-311.75 1.88,-311.75 1.88,-250.75 87.88,-250.75 87.88,-311.75"/>
<text xml:space="preserve" text-anchor="start" x="5.88" y="-299.5" font-family="Helvetica,sans-Serif" font-size="10.00">std::basic_string&lt;</text>
<text xml:space="preserve" text-anchor="start" x="28.38" y="-288.25" font-family="Helvetica,sans-Serif" font-size="10.00"> Char &gt;</text>
<text xml:space="preserve" text-anchor="start" x="43.38" y="-273" font-family="Helvetica,sans-Serif" font-size="10.00"> </text>
<text xml:space="preserve" text-anchor="start" x="43.38" y="-257.75" font-family="Helvetica,sans-Serif" font-size="10.00"> </text>
<polygon fill="#666666" stroke="#666666" points="1.88,-283.25 1.88,-283.25 87.88,-283.25 87.88,-283.25 1.88,-283.25"/>
<polygon fill="#666666" stroke="#666666" points="1.88,-268 1.88,-268 87.88,-268 87.88,-268 1.88,-268"/>
<polygon fill="none" stroke="#666666" points="1.88,-250.75 1.88,-311.75 87.88,-311.75 87.88,-250.75 1.88,-250.75"/>
</a>
</g>
</g>
<!-- Node3&#45;&gt;Node2 -->
<g id="edge2_Node000002_Node000003" class="edge">
<title>Node3&#45;&gt;Node2</title>
<g id="a_edge2_Node000002_Node000003"><a xlink:title=" ">
<path fill="none" stroke="#63b8ff" d="M44.88,-239.65C44.88,-230.69 44.88,-221.5 44.88,-213.48"/>
<polygon fill="none" stroke="#63b8ff" points="41.38,-239.64 44.88,-249.64 48.38,-239.64 41.38,-239.64"/>
</a>
</g>
</g>
</g>
</svg>
</svg>

<style type='text/css'>
<![CDATA[
[data-mouse-over-selected='false'] { opacity: 0.7; }
[data-mouse-over-selected='true']  { opacity: 1.0; }
]]>
</style>
<script type="application/ecmascript"><![CDATA[
document.addEventListener('DOMContentLoaded', (event) => {
  highlightEdges();
  highlightAdjacentNodes();
});
]]></script>
</svg>
