{
  "asset": {
    "generator": "Khronos glTF Blender I/O v3.4.50",
    "version": "2.0"
  },
  "scene": 0,
  "scenes": [
    {
      "name": "Scene",
      "nodes": [
        0
      ]
    }
  ],
  "nodes": [
    {
      "mesh": 0,
      "name": "chest_gold"
    }
  ],
  "meshes": [
    {
      "name": "chest_gold",
      "primitives": [
        {
          "attributes": {
            "POSITION": 0,
            "TEXCOORD_0": 1,
            "NORMAL": 2
          },
          "indices": 3,
          "material": 0
        }
      ]
    }
  ],
  "materials": [
    {
      "name": "texture",
      "pbrMetallicRoughness": {
        "baseColorTexture": {
          "index": 0
        },
        "metallicFactor": 0,
        "roughnessFactor": 0.44999998807907104
      }
    }
  ],
  "accessors": [
    {
      "bufferView": 0,
      "componentType": 5126,
      "count": 2225,
      "type": "VEC3",
      "min": [
        -0.8500000238418579,
        -2.384185791015625e-07,
        -0.7000007927417755
      ],
      "max": [
        0.8500000238418579,
        1.300000011920929,
        0.7458029985427856
      ]
    },
    {
      "bufferView": 1,
      "componentType": 5126,
      "count": 2225,
      "type": "VEC2"
    },
    {
      "bufferView": 2,
      "componentType": 5126,
      "count": 2225,
      "type": "VEC3"
    },
    {
      "bufferView": 3,
      "componentType": 5123,
      "count": 4704,
      "type": "SCALAR"
    }
  ],
  "bufferViews": [
    {
      "buffer": 0,
      "byteOffset": 0,
      "byteLength": 26700,
      "target": 34962
    },
    {
      "buffer": 0,
      "byteOffset": 26700,
      "byteLength": 17800,
      "target": 34962
    },
    {
      "buffer": 0,
      "byteOffset": 44500,
      "byteLength": 26700,
      "target": 34962
    },
    {
      "buffer": 0,
      "byteOffset": 71200,
      "byteLength": 9408,
      "target": 34963
    }
  ],
  "buffers": [
    {
      "byteLength": 80608,
      "uri": "chest_gold.bin"
    }
  ],
  "images": [
    {
      "mimeType": "image/png",
      "name": "dungeon_texture",
      "uri": "dungeon_texture.png"
    }
  ],
  "textures": [
    {
      "sampler": 0,
      "source": 0
    }
  ],
  "samplers": [
    {
      "magFilter": 9729,
      "minFilter": 9987
    }
  ]
}