{
	"asset":{
		"generator":"Khronos glTF Blender I/O v4.1.63",
		"version":"2.0"
	},
	"scene":0,
	"scenes":[
		{
			"name":"Scene",
			"nodes":[
				0
			]
		}
	],
	"nodes":[
		{
			"mesh":0,
			"name":"Cylinder",
			"scale":[
				2.609621047973633,
				2.609621047973633,
				2.609621047973633
			],
			"translation":[
				6,
				0,
				3
			]
		}
	],
	"meshes":[
		{
			"name":"Cylinder",
			"primitives":[
				{
					"attributes":{
						"POSITION":0,
						"NORMAL":1,
						"TEXCOORD_0":2,
						"TANGENT":3
					},
					"indices":4
				}
			]
		}
	],
	"accessors":[
		{
			"bufferView":0,
			"componentType":5126,
			"count":21557,
			"max":[
				0.20297864079475403,
				0.7669193744659424,
				0.17852304875850677
			],
			"min":[
				-0.14024271070957184,
				0.0007562041282653809,
				-0.1646982729434967
			],
			"type":"VEC3"
		},
		{
			"bufferView":1,
			"componentType":5126,
			"count":21557,
			"type":"VEC3"
		},
		{
			"bufferView":2,
			"componentType":5126,
			"count":21557,
			"type":"VEC2"
		},
		{
			"bufferView":3,
			"componentType":5126,
			"count":21557,
			"type":"VEC4"
		},
		{
			"bufferView":4,
			"componentType":5123,
			"count":109080,
			"type":"SCALAR"
		}
	],
	"bufferViews":[
		{
			"buffer":0,
			"byteLength":258684,
			"byteOffset":0,
			"target":34962
		},
		{
			"buffer":0,
			"byteLength":258684,
			"byteOffset":258684,
			"target":34962
		},
		{
			"buffer":0,
			"byteLength":172456,
			"byteOffset":517368,
			"target":34962
		},
		{
			"buffer":0,
			"byteLength":344912,
			"byteOffset":689824,
			"target":34962
		},
		{
			"buffer":0,
			"byteLength":218160,
			"byteOffset":1034736,
			"target":34963
		}
	],
	"buffers":[
		{
			"byteLength":1252896,
			"uri":"Statue.bin"
		}
	]
}
