{
	"asset":{
		"generator":"Khronos glTF Blender I/O v5.1.20",
		"version":"2.0"
	},
	"scene":0,
	"scenes":[
		{
			"name":"Scene",
			"nodes":[
				0
			]
		}
	],
	"nodes":[
		{
			"mesh":0,
			"name":"Bard"
		}
	],
	"materials":[
		{
			"doubleSided":true,
			"name":"rogue_texture.002",
			"pbrMetallicRoughness":{
				"baseColorTexture":{
					"index":0
				},
				"metallicFactor":0,
				"roughnessFactor":0.5
			}
		}
	],
	"meshes":[
		{
			"name":"Bard",
			"primitives":[
				{
					"attributes":{
						"POSITION":0,
						"NORMAL":1,
						"TEXCOORD_0":2
					},
					"indices":3,
					"material":0
				}
			]
		}
	],
	"textures":[
		{
			"sampler":0,
			"source":0
		}
	],
	"images":[
		{
			"mimeType":"image/png",
			"name":"rogue_texture",
			"uri":"rogue_texture.png"
		}
	],
	"accessors":[
		{
			"bufferView":0,
			"componentType":5126,
			"count":3637,
			"max":[
				0.5905775427818298,
				2.2581591606140137,
				0.16942402720451355
			],
			"min":[
				-0.5542970895767212,
				0.1889406442642212,
				-0.8969227075576782
			],
			"type":"VEC3"
		},
		{
			"bufferView":1,
			"componentType":5126,
			"count":3637,
			"type":"VEC3"
		},
		{
			"bufferView":2,
			"componentType":5126,
			"count":3637,
			"type":"VEC2"
		},
		{
			"bufferView":3,
			"componentType":5123,
			"count":13041,
			"type":"SCALAR"
		}
	],
	"bufferViews":[
		{
			"buffer":0,
			"byteLength":43644,
			"byteOffset":0,
			"target":34962
		},
		{
			"buffer":0,
			"byteLength":43644,
			"byteOffset":43644,
			"target":34962
		},
		{
			"buffer":0,
			"byteLength":29096,
			"byteOffset":87288,
			"target":34962
		},
		{
			"buffer":0,
			"byteLength":26082,
			"byteOffset":116384,
			"target":34963
		}
	],
	"samplers":[
		{
			"magFilter":9729,
			"minFilter":9987
		}
	],
	"buffers":[
		{
			"byteLength":142468,
			"uri":"Bard.bin"
		}
	]
}
