{
	"asset":{
		"generator":"Khronos glTF Blender I/O v5.1.20",
		"version":"2.0"
	},
	"scene":0,
	"scenes":[
		{
			"name":"Scene",
			"nodes":[
				0
			]
		}
	],
	"nodes":[
		{
			"mesh":0,
			"name":"Innkeeper"
		}
	],
	"materials":[
		{
			"doubleSided":true,
			"name":"barbarian_texture.001",
			"pbrMetallicRoughness":{
				"baseColorTexture":{
					"index":0
				},
				"metallicFactor":0,
				"roughnessFactor":0.5
			}
		}
	],
	"meshes":[
		{
			"name":"Innkeeper",
			"primitives":[
				{
					"attributes":{
						"POSITION":0,
						"NORMAL":1,
						"TEXCOORD_0":2
					},
					"indices":3,
					"material":0
				}
			]
		}
	],
	"textures":[
		{
			"sampler":0,
			"source":0
		}
	],
	"images":[
		{
			"mimeType":"image/png",
			"name":"barbarian_texture",
			"uri":"barbarian_texture.png"
		}
	],
	"accessors":[
		{
			"bufferView":0,
			"componentType":5126,
			"count":4335,
			"max":[
				0.6693493127822876,
				2.3620529174804688,
				0.7383876442909241
			],
			"min":[
				-0.7036389112472534,
				-0.0009482201421633363,
				-0.5284448266029358
			],
			"type":"VEC3"
		},
		{
			"bufferView":1,
			"componentType":5126,
			"count":4335,
			"type":"VEC3"
		},
		{
			"bufferView":2,
			"componentType":5126,
			"count":4335,
			"type":"VEC2"
		},
		{
			"bufferView":3,
			"componentType":5123,
			"count":15375,
			"type":"SCALAR"
		}
	],
	"bufferViews":[
		{
			"buffer":0,
			"byteLength":52020,
			"byteOffset":0,
			"target":34962
		},
		{
			"buffer":0,
			"byteLength":52020,
			"byteOffset":52020,
			"target":34962
		},
		{
			"buffer":0,
			"byteLength":34680,
			"byteOffset":104040,
			"target":34962
		},
		{
			"buffer":0,
			"byteLength":30750,
			"byteOffset":138720,
			"target":34963
		}
	],
	"samplers":[
		{
			"magFilter":9729,
			"minFilter":9987
		}
	],
	"buffers":[
		{
			"byteLength":169472,
			"uri":"Innkeeper.bin"
		}
	]
}
