{
	"asset":{
		"generator":"Khronos glTF Blender I/O v5.1.20",
		"version":"2.0"
	},
	"scene":0,
	"scenes":[
		{
			"name":"Scene",
			"nodes":[
				0
			]
		}
	],
	"nodes":[
		{
			"mesh":0,
			"name":"Merchant"
		}
	],
	"materials":[
		{
			"doubleSided":true,
			"name":"rogue_texture.003",
			"pbrMetallicRoughness":{
				"baseColorTexture":{
					"index":0
				},
				"metallicFactor":0,
				"roughnessFactor":0.5
			}
		}
	],
	"meshes":[
		{
			"name":"Merchant",
			"primitives":[
				{
					"attributes":{
						"POSITION":0,
						"NORMAL":1,
						"TEXCOORD_0":2
					},
					"indices":3,
					"material":0
				}
			]
		}
	],
	"textures":[
		{
			"sampler":0,
			"source":0
		}
	],
	"images":[
		{
			"mimeType":"image/png",
			"name":"rogue_texture",
			"uri":"rogue_texture.png"
		}
	],
	"accessors":[
		{
			"bufferView":0,
			"componentType":5126,
			"count":3307,
			"max":[
				0.6684848070144653,
				2.215519666671753,
				0.5889756083488464
			],
			"min":[
				-0.6509932279586792,
				-0.0009946543723344803,
				-0.5672933459281921
			],
			"type":"VEC3"
		},
		{
			"bufferView":1,
			"componentType":5126,
			"count":3307,
			"type":"VEC3"
		},
		{
			"bufferView":2,
			"componentType":5126,
			"count":3307,
			"type":"VEC2"
		},
		{
			"bufferView":3,
			"componentType":5123,
			"count":12015,
			"type":"SCALAR"
		}
	],
	"bufferViews":[
		{
			"buffer":0,
			"byteLength":39684,
			"byteOffset":0,
			"target":34962
		},
		{
			"buffer":0,
			"byteLength":39684,
			"byteOffset":39684,
			"target":34962
		},
		{
			"buffer":0,
			"byteLength":26456,
			"byteOffset":79368,
			"target":34962
		},
		{
			"buffer":0,
			"byteLength":24030,
			"byteOffset":105824,
			"target":34963
		}
	],
	"samplers":[
		{
			"magFilter":9729,
			"minFilter":9987
		}
	],
	"buffers":[
		{
			"byteLength":129856,
			"uri":"Merchant.bin"
		}
	]
}
