{"asset":{"version":"2.0","generator":"bake_kaykit_static"},"scene":0,"scenes":[{"nodes":[0]}],"nodes":[{"mesh":0,"name":"baked"}],"meshes":[{"primitives":[{"attributes":{"POSITION":0,"NORMAL":1,"TEXCOORD_0":2},"indices":3,"material":0}]}],"materials":[{"pbrMetallicRoughness":{"baseColorTexture":{"index":0},"metallicFactor":0.0,"roughnessFactor":1.0}}],"textures":[{"source":0,"sampler":0}],"images":[{"uri":"skeleton_texture.png"}],"samplers":[{}],"accessors":[{"bufferView":0,"componentType":5126,"count":4056,"type":"VEC3","min":[-0.9158181548118591,-0.000274319521849975,-0.8500392436981201],"max":[0.8821271657943726,2.6178736686706543,0.8972347974777222]},{"bufferView":1,"componentType":5126,"count":4056,"type":"VEC3"},{"bufferView":2,"componentType":5126,"count":4056,"type":"VEC2"},{"bufferView":3,"componentType":5125,"count":13764,"type":"SCALAR"}],"bufferViews":[{"buffer":0,"byteOffset":0,"byteLength":48672,"target":34962},{"buffer":0,"byteOffset":48672,"byteLength":48672,"target":34962},{"buffer":0,"byteOffset":97344,"byteLength":32448,"target":34962},{"buffer":0,"byteOffset":129792,"byteLength":55056,"target":34963},{"buffer":0,"byteOffset":184848,"byteLength":17037}],"buffers":[{"byteLength":201888,"uri":"Skeleton_Mage.bin"}]}