{
	"asset":{
		"generator":"Khronos glTF Blender I/O v5.1.20",
		"version":"2.0"
	},
	"scene":0,
	"scenes":[
		{
			"name":"Scene",
			"nodes":[
				0
			]
		}
	],
	"nodes":[
		{
			"mesh":0,
			"name":"door_gate"
		}
	],
	"materials":[
		{
			"name":"texture.048",
			"pbrMetallicRoughness":{
				"baseColorTexture":{
					"index":0
				},
				"metallicFactor":0,
				"roughnessFactor":0.44999998807907104
			}
		}
	],
	"meshes":[
		{
			"name":"door_gate",
			"primitives":[
				{
					"attributes":{
						"POSITION":0,
						"NORMAL":1,
						"TEXCOORD_0":2
					},
					"indices":3,
					"material":0
				}
			]
		}
	],
	"textures":[
		{
			"sampler":0,
			"source":0
		}
	],
	"images":[
		{
			"mimeType":"image/png",
			"name":"dungeon_texture",
			"uri":"dungeon_texture.png"
		}
	],
	"accessors":[
		{
			"bufferView":0,
			"componentType":5126,
			"count":695,
			"max":[
				2,
				2.75,
				0.38677310943603516
			],
			"min":[
				0,
				0,
				-0.38677310943603516
			],
			"type":"VEC3"
		},
		{
			"bufferView":1,
			"componentType":5126,
			"count":695,
			"type":"VEC3"
		},
		{
			"bufferView":2,
			"componentType":5126,
			"count":695,
			"type":"VEC2"
		},
		{
			"bufferView":3,
			"componentType":5123,
			"count":1926,
			"type":"SCALAR"
		}
	],
	"bufferViews":[
		{
			"buffer":0,
			"byteLength":8340,
			"byteOffset":0,
			"target":34962
		},
		{
			"buffer":0,
			"byteLength":8340,
			"byteOffset":8340,
			"target":34962
		},
		{
			"buffer":0,
			"byteLength":5560,
			"byteOffset":16680,
			"target":34962
		},
		{
			"buffer":0,
			"byteLength":3852,
			"byteOffset":22240,
			"target":34963
		}
	],
	"samplers":[
		{
			"magFilter":9729,
			"minFilter":9987
		}
	],
	"buffers":[
		{
			"byteLength":26092,
			"uri":"door_gate.bin"
		}
	]
}
