{
  "asset": {
    "generator": "Khronos glTF Blender I/O v3.4.50",
    "version": "2.0"
  },
  "scene": 0,
  "scenes": [
    {
      "name": "Scene",
      "nodes": [
        0
      ]
    }
  ],
  "nodes": [
    {
      "mesh": 0,
      "name": "wall_doorway_scaffold"
    }
  ],
  "meshes": [
    {
      "name": "wall_doorway_scaffold",
      "primitives": [
        {
          "attributes": {
            "POSITION": 0,
            "TEXCOORD_0": 1,
            "NORMAL": 2
          },
          "indices": 3,
          "material": 0
        }
      ]
    }
  ],
  "materials": [
    {
      "name": "texture",
      "pbrMetallicRoughness": {
        "baseColorTexture": {
          "index": 0
        },
        "metallicFactor": 0,
        "roughnessFactor": 0.44999998807907104
      }
    }
  ],
  "accessors": [
    {
      "bufferView": 0,
      "componentType": 5126,
      "count": 1618,
      "type": "VEC3",
      "min": [
        -2.0,
        0.0,
        -0.4999999701976776
      ],
      "max": [
        2.0,
        4.0,
        0.4999999701976776
      ]
    },
    {
      "bufferView": 1,
      "componentType": 5126,
      "count": 1618,
      "type": "VEC2"
    },
    {
      "bufferView": 2,
      "componentType": 5126,
      "count": 1618,
      "type": "VEC3"
    },
    {
      "bufferView": 3,
      "componentType": 5123,
      "count": 3450,
      "type": "SCALAR"
    }
  ],
  "bufferViews": [
    {
      "buffer": 0,
      "byteOffset": 0,
      "byteLength": 19416,
      "target": 34962
    },
    {
      "buffer": 0,
      "byteOffset": 19416,
      "byteLength": 12944,
      "target": 34962
    },
    {
      "buffer": 0,
      "byteOffset": 32360,
      "byteLength": 19416,
      "target": 34962
    },
    {
      "buffer": 0,
      "byteOffset": 51776,
      "byteLength": 6900,
      "target": 34963
    }
  ],
  "buffers": [
    {
      "byteLength": 58676,
      "uri": "wall_doorway_scaffold.bin"
    }
  ],
  "images": [
    {
      "mimeType": "image/png",
      "name": "dungeon_texture",
      "uri": "dungeon_texture.png"
    }
  ],
  "textures": [
    {
      "sampler": 0,
      "source": 0
    }
  ],
  "samplers": [
    {
      "magFilter": 9729,
      "minFilter": 9987
    }
  ]
}